<svg data-name="グループ 66851" xmlns="http://www.w3.org/2000/svg" width="189" height="175.109"><defs><clipPath id="a"><path data-name="長方形 37549" fill="none" d="M0 0h189v175.109H0z"/></clipPath><clipPath id="b"><path data-name="パス 1016" d="M31.823 16.273a27.759 27.759 0 00-16.557 35.6l10.722-3.912a20.612 20.612 0 1138.05 1.623l3.579 1.733a27.752 27.752 0 00-35.794-35.04" transform="translate(-13.574 -14.584)" fill="none"/></clipPath><clipPath id="c"><path data-name="パス 1020" d="M39.343 43.082a20.593 20.593 0 1119.364 13.55 20.61 20.61 0 01-19.364-13.55m13.85-34.606a27.729 27.729 0 109.517-1.692 27.76 27.76 0 00-9.517 1.692" transform="translate(-34.941 -6.784)" fill="none"/></clipPath><clipPath id="d"><path data-name="パス 1023" d="M46.405 23.057a27.761 27.761 0 0019.039 52.157l-3.912-10.725a20.611 20.611 0 115.032-36.045l4.2-2.773a27.714 27.714 0 00-24.36-2.614" transform="translate(-28.157 -21.368)" fill="none"/></clipPath><clipPath id="e"><path data-name="パス 1026" d="M25.987 47.957A20.594 20.594 0 1145.351 61.5a20.611 20.611 0 01-19.364-13.543m5.835-31.684a27.739 27.739 0 109.517-1.689 27.759 27.759 0 00-9.517 1.689" transform="translate(-13.574 -14.584)" fill="none"/></clipPath></defs><g data-name="グループ 66831"><g data-name="グループ 66830" clip-path="url(#a)" fill="#fff"><path data-name="パス 1010" d="M82.952 88.148c-7.109 17.212-28.768 25.681-45.606 26.176-.058-2.627.061-5.255 0-8.048 17.484.245 32.908-5.734 43.121-19.176"/><path data-name="パス 1011" d="M62.053 47.07A20.611 20.611 0 1149.76 73.499 20.612 20.612 0 0162.053 47.07M39.035 77.414a27.761 27.761 0 1016.557-35.6 27.759 27.759 0 00-16.557 35.6"/><path data-name="パス 1012" d="M104.604 24.707a20.611 20.611 0 11-26.429-12.293 20.612 20.612 0 0126.429 12.293M74.26 1.689a27.761 27.761 0 1035.593 16.557A27.759 27.759 0 0074.26 1.689"/><path data-name="パス 1013" d="M84.412 89.621a20.611 20.611 0 1126.43 12.29 20.612 20.612 0 01-26.43-12.29m30.345 23.014a27.761 27.761 0 10-35.6-16.557 27.759 27.759 0 0035.6 16.557"/><path data-name="パス 1014" d="M49.76 73.499a20.61 20.61 0 1138.048 1.626l3.582 1.731a27.761 27.761 0 10-52.354.559"/></g></g><g data-name="グループ 66833"><g data-name="グループ 66832" clip-path="url(#b)" transform="translate(37.347 40.125)"><path data-name="パス 1015" d="M47.065 49.496a20.611 20.611 0 1126.43 12.29 20.612 20.612 0 01-26.43-12.29M77.41 72.51a27.761 27.761 0 10-35.6-16.557 27.759 27.759 0 0035.6 16.557" fill="#fff"/></g></g><g data-name="グループ 66835"><g data-name="グループ 66834" clip-path="url(#a)" fill="#fff"><path data-name="パス 1017" d="M126.964 67.258a20.611 20.611 0 1112.293-26.429 20.612 20.612 0 01-12.293 26.429m23.017-30.344a27.761 27.761 0 10-16.557 35.6 27.759 27.759 0 0016.557-35.6"/><path data-name="パス 1018" d="M126.964 67.258a20.611 20.611 0 1112.293-26.429 20.612 20.612 0 01-12.293 26.429m23.017-30.344a27.761 27.761 0 10-16.557 35.6 27.759 27.759 0 0016.557-35.6"/></g></g><g data-name="グループ 66837"><g data-name="グループ 66836" clip-path="url(#c)" transform="translate(96.133 18.665)"><path data-name="パス 1019" d="M-30.253 20.178a20.61 20.61 0 1136.336 4.625l1.6 3.524a27.763 27.763 0 10-46.112-9.7" fill="#fff"/></g></g><g data-name="グループ 66839"><g data-name="グループ 66838" clip-path="url(#a)"><path data-name="パス 1021" d="M110.842 101.91a20.61 20.61 0 115.035-36.045l4.2-2.773a27.761 27.761 0 10-5.318 49.543" fill="#fff"/></g></g><g data-name="グループ 66841"><g data-name="グループ 66840" clip-path="url(#d)" transform="translate(77.469 58.79)"><path data-name="パス 1022" d="M49.494 8.469A20.611 20.611 0 1161.787-17.96 20.612 20.612 0 0149.494 8.469m23.017-30.344a27.761 27.761 0 10-16.557 35.6 27.759 27.759 0 0016.557-35.6" fill="#fff"/></g></g><g data-name="グループ 66843"><g data-name="グループ 66842" clip-path="url(#a)"><path data-name="パス 1024" d="M62.053 47.07A20.611 20.611 0 1149.76 73.499 20.612 20.612 0 0162.053 47.07M39.035 77.414a27.761 27.761 0 1016.557-35.6 27.759 27.759 0 00-16.557 35.6" fill="#fff"/></g></g><g data-name="グループ 66845"><g data-name="グループ 66844" clip-path="url(#e)" transform="translate(37.347 40.125)"><path data-name="パス 1025" d="M72.505-21.875a27.761 27.761 0 10-36.01 35.442l2.71-3.227a20.61 20.61 0 1128.049-25.755" fill="#fff"/></g></g><g data-name="グループ 66847"><g data-name="グループ 66846" clip-path="url(#a)" fill="#fff"><path data-name="パス 1027" d="M6.072 131.71v8.387H9.96a2.759 2.759 0 001.956-.592 3.871 3.871 0 00.825-2.336h.583v7.222h-.583a4.258 4.258 0 00-.319-1.827 2.081 2.081 0 00-.85-.872 3.533 3.533 0 00-1.612-.295H6.072v6.7a7.038 7.038 0 00.2 2.14 1.421 1.421 0 00.663.677 2.987 2.987 0 001.444.377h.773v.583H0v-.577h.757a2.274 2.274 0 001.918-.77 4.783 4.783 0 00.376-2.43v-13.776a7.122 7.122 0 00-.2-2.138 1.419 1.419 0 00-.647-.677 2.889 2.889 0 00-1.444-.377H0v-.583h15.872l.206 4.688h-.55a6.445 6.445 0 00-.952-2.193 3.158 3.158 0 00-1.337-1.018 7.18 7.18 0 00-2.462-.314z"/><path data-name="パス 1028" d="M29.758 151.297v.583h-9.14v-.583h.754a2.276 2.276 0 001.92-.77 4.815 4.815 0 00.377-2.43v-13.773a7.131 7.131 0 00-.2-2.141 1.424 1.424 0 00-.644-.677 3 3 0 00-1.45-.377h-.757v-.583h9.14v.583h-.77a2.252 2.252 0 00-1.9.77 4.631 4.631 0 00-.393 2.424v13.774a7.131 7.131 0 00.2 2.14 1.4 1.4 0 00.663.677 2.868 2.868 0 001.431.377z"/><path data-name="パス 1029" d="M44.098 130.059a9.682 9.682 0 017.2 3.153 10.9 10.9 0 013.045 7.875 11.2 11.2 0 01-3.07 8.07 9.889 9.889 0 01-7.426 3.208 9.832 9.832 0 01-7.4-3.128 11.235 11.235 0 01-3-8.1 10.793 10.793 0 013.458-8.29 10.215 10.215 0 017.189-2.784m-.3 1.147a5.626 5.626 0 00-4.595 2.124q-2.15 2.645-2.154 7.739 0 5.225 2.234 8.039a5.525 5.525 0 004.531 2.141 6.193 6.193 0 004.963-2.344q1.956-2.344 1.956-7.4 0-5.472-2.152-8.163a5.814 5.814 0 00-4.784-2.141"/><path data-name="パス 1030" d="M79.129 151.88h-5.7l-7.222-9.976q-.8.033-1.3.033c-.138 0-.283 0-.443-.008s-.319-.014-.487-.025v6.193a4.364 4.364 0 00.44 2.5 2.243 2.243 0 001.794.693h.834v.583h-9.14v-.576h.8a2.148 2.148 0 001.934-.88 4.976 4.976 0 00.335-2.32v-13.776a4.377 4.377 0 00-.44-2.5 2.319 2.319 0 00-1.824-.691h-.8v-.583h7.772a18.483 18.483 0 015.01.5 5.734 5.734 0 012.738 1.824 4.767 4.767 0 011.125 3.172 4.988 4.988 0 01-1.282 3.412 7.244 7.244 0 01-3.977 2.042l4.4 6.119a10.958 10.958 0 002.594 2.8 6.537 6.537 0 002.834.88zm-15.151-10.967q.3 0 .52.008c.146.006.267.008.36.008a6.924 6.924 0 004.6-1.323 4.223 4.223 0 001.549-3.365 4.4 4.4 0 00-1.248-3.249 4.486 4.486 0 00-3.313-1.252 14.012 14.012 0 00-2.471.3z"/><path data-name="パス 1031" d="M91.206 151.297v.583h-9.14v-.583h.754a2.276 2.276 0 001.92-.77 4.815 4.815 0 00.377-2.43v-13.773a7.131 7.131 0 00-.2-2.141 1.418 1.418 0 00-.647-.677 3 3 0 00-1.447-.377h-.754v-.583h9.14v.583h-.771a2.256 2.256 0 00-1.9.77 4.6 4.6 0 00-.393 2.424v13.774a7.01 7.01 0 00.206 2.14 1.4 1.4 0 00.658.677 2.885 2.885 0 001.429.383z"/><path data-name="パス 1032" d="M113.051 130.546l.234 5h-.6a5.917 5.917 0 00-.473-1.887 3.183 3.183 0 00-1.3-1.345 4.507 4.507 0 00-2.132-.432h-3v16.3a4.39 4.39 0 00.426 2.457 2.36 2.36 0 001.841.66h.737v.583H99.74v-.585h.754a2.164 2.164 0 001.92-.82 4.776 4.776 0 00.344-2.3v-16.3h-2.561a7.2 7.2 0 00-2.124.22 2.929 2.929 0 00-1.4 1.147 4.689 4.689 0 00-.691 2.3h-.6l.25-5z"/><path data-name="パス 1033" d="M131.875 131.13v-.581h7.55v.581h-.8a2.16 2.16 0 00-1.931 1.054 4.768 4.768 0 00-.333 2.264v8.651a15.33 15.33 0 01-.636 4.98 6.263 6.263 0 01-2.5 3.037 8.922 8.922 0 01-5.071 1.266 9.56 9.56 0 01-5.3-1.211 6.55 6.55 0 01-2.564-3.258 18.074 18.074 0 01-.5-5.255v-8.334a4.167 4.167 0 00-.545-2.581 2.226 2.226 0 00-1.753-.614h-.8v-.58h9.22v.581h-.833a2.111 2.111 0 00-1.887.834 4.627 4.627 0 00-.4 2.361v9.3a20.623 20.623 0 00.228 2.848 6.036 6.036 0 00.825 2.5 4.524 4.524 0 001.725 1.48 5.943 5.943 0 002.76.581 7.586 7.586 0 003.745-.913 4.866 4.866 0 002.256-2.336 13.5 13.5 0 00.608-4.82v-8.641a4.426 4.426 0 00-.44-2.5 2.321 2.321 0 00-1.827-.691z"/><path data-name="パス 1034" d="M163.963 151.88h-5.7l-7.222-9.976c-.534.022-.971.033-1.3.033-.138 0-.286 0-.443-.008s-.319-.014-.487-.025v6.193a4.34 4.34 0 00.44 2.5 2.24 2.24 0 001.794.693h.834v.583h-9.142v-.576h.8a2.153 2.153 0 001.937-.88 4.976 4.976 0 00.333-2.32v-13.776a4.377 4.377 0 00-.44-2.5 2.321 2.321 0 00-1.827-.691h-.8v-.583h7.775a18.5 18.5 0 015.01.5 5.727 5.727 0 012.732 1.818 4.755 4.755 0 011.128 3.172 4.978 4.978 0 01-1.285 3.412 7.224 7.224 0 01-3.973 2.048l4.408 6.119a10.958 10.958 0 002.594 2.8 6.537 6.537 0 002.834.88zm-15.151-10.967q.3 0 .52.008c.146.006.267.008.36.008a6.929 6.929 0 004.6-1.323 4.223 4.223 0 001.549-3.365 4.407 4.407 0 00-1.249-3.249 4.488 4.488 0 00-3.315-1.252 13.986 13.986 0 00-2.468.3z"/><path data-name="パス 1035" d="M180.834 144.734h-8.259l-1.447 3.368a5.3 5.3 0 00-.534 1.854 1.08 1.08 0 00.462.858 4.034 4.034 0 002.006.479v.583h-6.716v-.583a3.656 3.656 0 001.731-.611 9.608 9.608 0 001.775-3.068l7.505-17.559h.55l7.426 17.746a8.132 8.132 0 001.628 2.784 3.305 3.305 0 002.039.713v.583h-8.415v-.583a3.128 3.128 0 001.722-.424 1.1 1.1 0 00.451-.88 6.556 6.556 0 00-.63-2.187zm-.44-1.164l-3.618-8.623-3.714 8.623z"/><path data-name="パス 1036" d="M54.418 174.231c-.289 0-.347-.171-.347-.316 0-.173.151-.27.294-.363a14.138 14.138 0 003.9-3.409 21.544 21.544 0 002.151-3.522 2.765 2.765 0 00.14-.3 5.038 5.038 0 00-.514.05c-1.422.157-3.032.352-4.242.583a1.118 1.118 0 00-.432.171.946.946 0 01-.492.124c-.3 0-.6-.2-.966-.658a1.551 1.551 0 01-.49-1.079c0-.523.22-.581.316-.581.138 0 .223.083.349.212a1.172 1.172 0 001.087.512c.347-.014.68-.03 1.023-.058l.47-.041c1.194-.11 2.427-.226 3.541-.36a1.114 1.114 0 00.55-.165.755.755 0 01.509-.2 1.583 1.583 0 01.952.44c.531.4.693.636.693 1.021a.6.6 0 01-.385.509 1.109 1.109 0 00-.52.6 15.619 15.619 0 01-2.674 3.736 12.5 12.5 0 01-4.65 3.046.993.993 0 01-.264.05m6.186-8.242c.286 0 .3.193.3.234a1.189 1.189 0 01-.2.548 21.5 21.5 0 01-2.182 3.571 14.5 14.5 0 01-3.984 3.489.977.977 0 00-.1.069.666.666 0 00.127-.033 12.109 12.109 0 004.526-2.96 15.2 15.2 0 002.616-3.662 1.409 1.409 0 01.671-.74c.135-.069.2-.157.2-.212 0-.231-.058-.38-.564-.757-.369-.281-.556-.374-.759-.374a.45.45 0 00-.3.132 1.419 1.419 0 01-.713.231c-1.117.138-2.352.25-3.546.36l-.473.044c-.352.025-.691.041-1.04.055-.047 0-.094.005-.14.005a1.441 1.441 0 01-1.2-.619l-.077-.074a.9.9 0 00-.022.217c0 .27.058.424.421.869.292.36.525.539.707.539a.6.6 0 00.314-.074 1.425 1.425 0 01.545-.217c1.224-.234 2.845-.429 4.267-.586a5.606 5.606 0 01.605-.055"/><path data-name="パス 1037" d="M68.364 174.858a.747.747 0 01-.638-.336 1.468 1.468 0 01-.25-.842.784.784 0 01.05-.259 2.505 2.505 0 00.091-.737c.011-.3.028-.583.028-1.12 0-.2 0-.5.006-.79 0-.275.008-.542.008-.713s-.005-.294-.011-.38a15.035 15.035 0 01-3.56 2.627.651.651 0 01-.311.116.293.293 0 01-.3-.305c0-.121.085-.237.264-.358a23.5 23.5 0 003.39-3.28 9.868 9.868 0 001.2-1.65l.028-.047c.121-.223.146-.292.146-.377a.806.806 0 00-.267-.217.844.844 0 00-.08-.044c-.088-.05-.223-.118-.223-.281 0-.091.044-.388.636-.388a3 3 0 011.34.47c.407.25.605.492.605.74 0 .143-.058.4-.473.545a.261.261 0 00-.162.1c-.6.66-1.067 1.161-1.42 1.527.363.27.594.506.594.762a.6.6 0 01-.061.286c.006 0-.008.212-.008.787v1.437c.011.99.011 1.585.011 1.907 0 .74-.446.817-.636.817m-.575-5.789l.1.217a1.648 1.648 0 01.1.776c0 .171 0 .44-.005.715 0 .292-.008.589-.008.787 0 .542-.011.831-.028 1.134a2.974 2.974 0 01-.088.779l-.014.052a.511.511 0 00-.039.151 1.166 1.166 0 00.187.649.438.438 0 00.374.2c.083 0 .308 0 .308-.49 0-.322 0-.916-.014-1.9v-1.446a7.022 7.022 0 01.033-.911.323.323 0 00.036-.16c0-.118-.206-.322-.611-.605l-.157-.11.132-.138c.363-.374.867-.913 1.541-1.651a.536.536 0 01.316-.2c.239-.08.239-.193.239-.228s-.036-.2-.451-.459a2.729 2.729 0 00-1.167-.424.618.618 0 00-.267.044h.005c.033.019.069.036.1.058.154.091.421.281.421.5a1.08 1.08 0 01-.184.539l-.03.05a9.913 9.913 0 01-1.244 1.7 23.735 23.735 0 01-3.392 3.293 14.715 14.715 0 003.637-2.751z"/><path data-name="パス 1038" d="M78.93 174.776c-.187 0-.421 0-.47-.3a.862.862 0 00-.226-.556 3.158 3.158 0 00-.751-.429l-.135-.061a.339.339 0 01-.25-.347c0-.121.083-.261.319-.261a.572.572 0 01.11.011c.03.006.069.011.121.017a7.488 7.488 0 001.2.14.135.135 0 00.061-.008.8.8 0 00.011-.149c0-1.5-.008-2.575-.028-3.736a15.167 15.167 0 01-1.951 2.336 11.3 11.3 0 01-2.776 2.077.79.79 0 01-.347.113c-.16 0-.27-.135-.27-.33a.517.517 0 01.237-.366 16.371 16.371 0 002.4-2.4 20.047 20.047 0 001.78-2.575 17.46 17.46 0 00-1.656.347 1.732 1.732 0 00-.583.228.686.686 0 01-.5.179c-.259 0-.561-.234-.933-.718a1.594 1.594 0 01-.413-.919c0-.237.118-.481.316-.481a.386.386 0 01.283.165 1.133 1.133 0 00.842.443c.118 0 .3-.011.589-.039.71-.088 1.549-.193 2.949-.336 0-1.249-.008-1.656-.022-1.871-.022-.355-.055-.374-.113-.41a1.586 1.586 0 00-.5-.2c-.124-.025-.283-.063-.283-.286a.551.551 0 01.242-.369.786.786 0 01.561-.171 2.851 2.851 0 011.15.283.847.847 0 01.567.715 1.2 1.2 0 01-.2.567 1.555 1.555 0 00-.11.627c-.008.237-.019.561-.022 1.015l.451-.041c.292-.028.575-.052.938-.091a.717.717 0 00.4-.113 1.055 1.055 0 01.448-.154 2.675 2.675 0 011.034.239.8.8 0 01.465.66.544.544 0 01-.5.611h-.11q-.99-.1-1.995-.1c-.283 0-.534.014-.963.03l-.14.005c0 .586.014 1.244.022 1.662.025 1.6.058 2.867.08 3.794a1.377 1.377 0 01-.283 1.059 1.675 1.675 0 01-1.037.5m-1.348-1.6l.039.019a3.213 3.213 0 01.823.473 1.123 1.123 0 01.344.757c.014.028.11.028.143.028a1.368 1.368 0 00.784-.391 1.063 1.063 0 00.209-.831c-.025-.933-.055-2.2-.08-3.8-.011-.457-.025-1.2-.025-1.824v-.16l.457-.019c.435-.019.691-.028.977-.028a19.338 19.338 0 012.011.1h.094c.121 0 .176-.143.176-.283a.5.5 0 00-.292-.369 2.321 2.321 0 00-.88-.2.978.978 0 00-.256.094l-.1-.132.1.132a1 1 0 01-.553.173 34.43 34.43 0 01-.949.091l-.627.061-.193.003v-.182c0-.559.014-.938.025-1.213a1.737 1.737 0 01.151-.776.906.906 0 00.157-.4c0-.116-.047-.248-.385-.424a2.57 2.57 0 00-1-.248.482.482 0 00-.36.107.452.452 0 00-.083.072 1.983 1.983 0 01.6.242c.209.135.242.314.264.669.017.237.025.66.025 2.041v.151l-.149.014c-1.486.151-2.361.259-3.057.344a6.728 6.728 0 01-.663.047 1.461 1.461 0 01-1.087-.55l-.011-.014a.418.418 0 00-.017.107 1.262 1.262 0 00.347.715c.418.55.622.594.671.594a.358.358 0 00.286-.1 1.864 1.864 0 01.713-.294 17.723 17.723 0 012.033-.41l.33-.044-.162.289a20.609 20.609 0 01-1.978 2.919 16.873 16.873 0 01-2.449 2.444c-.047.041-.074.069-.091.085l.116-.052a10.915 10.915 0 002.685-2.014 13.98 13.98 0 002.2-2.749l.3-.5.008.583c.028 1.392.036 2.556.036 4.3 0 .146 0 .484-.4.484a7.853 7.853 0 01-1.249-.14h-.017m-.157-.091z"/><path data-name="パス 1039" d="M86.198 175.109c-.256 0-.344-.149-.344-.286 0-.2.193-.281.3-.325a6.919 6.919 0 004.031-3.136 7.441 7.441 0 00.732-3c.039-.578.055-1.466.055-3.4 0-.545-.041-.658-.165-.74a1.806 1.806 0 00-.625-.239c-.113-.028-.281-.066-.281-.261 0-.157.138-.281.286-.393a.923.923 0 01.517-.16 3.477 3.477 0 011.263.308c.443.2.875.437.875.886a.746.746 0 01-.209.52c-.077.077-.11.281-.11.649a24.477 24.477 0 01-.349 4.826 5.369 5.369 0 01-1.439 2.622 8.077 8.077 0 01-4.237 2.082l-.083.016a.937.937 0 01-.217.028m4.091-11.44a2.025 2.025 0 01.7.275c.294.2.308.514.308 1.015 0 1.94-.014 2.834-.055 3.417a7.617 7.617 0 01-.77 3.136 7.11 7.11 0 01-4 3.216 7.715 7.715 0 004.031-1.989 4.983 4.983 0 001.346-2.456 23.9 23.9 0 00.344-4.749c0-.492.055-.732.206-.88a.423.423 0 00.116-.289c0-.228-.25-.391-.682-.586a3.231 3.231 0 00-1.128-.281.573.573 0 00-.327.1l-.088.074m-2.435 7.266a.965.965 0 01-.77-.581 1.873 1.873 0 01-.2-.861 1.466 1.466 0 01.08-.457 3.448 3.448 0 00.061-.594c.028-.545.039-1.12.039-2.2v-.253a2.8 2.8 0 00-.058-.839c-.05-.138-.228-.267-.594-.435l-.039-.019c-.094-.05-.209-.107-.209-.272a.371.371 0 01.253-.305 1.182 1.182 0 01.509-.121 2.8 2.8 0 011.125.393c.512.281.806.627.806.949a.765.765 0 01-.206.5.887.887 0 00-.058.371 114.916 114.916 0 00-.083 3.973c0 .63-.352.759-.652.759m-.545-5.907a2.784 2.784 0 01.083.957v.253c0 1.09-.008 1.67-.036 2.22a3.736 3.736 0 01-.077.674 1.359 1.359 0 00-.066.36 1.571 1.571 0 00.16.7c.151.259.327.41.484.41s.322-.033.322-.432c.011-1.626.039-2.815.085-3.984a.964.964 0 01.132-.567.462.462 0 00.129-.292c0-.154-.2-.418-.638-.66a2.49 2.49 0 00-.963-.355.845.845 0 00-.366.091c.459.217.674.4.754.619"/><path data-name="パス 1040" d="M97.685 174.844a.8.8 0 01-.732-.4 2.489 2.489 0 01-.322-1.178 1.528 1.528 0 01.085-.476.371.371 0 00.058-.162c.011-.187.039-.553.05-3.117.011-.878.005-1.689 0-2.52v-1.29a8.233 8.233 0 00-.047-1.139.518.518 0 00-.22-.22 1.656 1.656 0 00-.44-.2c-.242-.066-.261-.22-.261-.283a.448.448 0 01.25-.347.914.914 0 01.481-.151 3.471 3.471 0 011.472.388c.539.237.652.57.652.8a.763.763 0 01-.292.567.4.4 0 00-.041.171c-.03.281-.069.908-.072 2.333a7.981 7.981 0 012.413.545c.6.253 1.395.685 1.395 1.557a.848.848 0 01-.759.9 1.1 1.1 0 01-.894-.462 7.563 7.563 0 00-.977-.993 4.16 4.16 0 00-1.18-.693v2.193c0 .451.017 1.323.039 2.388l.017.974c0 .68-.366.82-.677.82m-1.457-11.029a2.3 2.3 0 01.5.234.851.851 0 01.366.407 6.831 6.831 0 01.061 1.235c0 .443.006.867.006 1.288 0 .834.005 1.648-.006 2.526-.014 2.575-.039 2.947-.052 3.128a.682.682 0 01-.085.3 1.312 1.312 0 00-.055.327 2.131 2.131 0 00.283 1.015.482.482 0 00.443.239c.176 0 .349-.039.349-.49l-.021-.97c-.019-1.067-.036-1.942-.036-2.4v-2.638l.209.063a4.322 4.322 0 011.508.82 8.063 8.063 0 011.019 1.037.768.768 0 00.641.347.535.535 0 00.432-.572c0-.52-.369-.908-1.194-1.252a7.741 7.741 0 00-2.46-.531l-.157-.008v-.157c0-1.227.025-2.1.069-2.523a.584.584 0 01.143-.369.465.465 0 00.193-.333c0-.2-.157-.369-.459-.5a3.111 3.111 0 00-1.337-.36.624.624 0 00-.3.1l-.061.041"/><path data-name="パス 1041" d="M106.715 174.859a.272.272 0 01-.305-.292c0-.113.091-.206.259-.338a9.506 9.506 0 002.592-2.85 10.671 10.671 0 001.363-2.956h-.127c-.38 0-.77.025-1.18.049l-.143.008a45.86 45.86 0 00-2.374.206c.014.534.036.911.061 1.274v.124c.006.121.017.234.025.341.011.151.019.286.019.393a.528.528 0 01-.567.594.949.949 0 01-.861-1.012.976.976 0 01.019-.187.866.866 0 00.022-.173c0-.732-.011-1.045-.052-1.6a.456.456 0 00-.113-.305 1.2 1.2 0 00-.36-.3.285.285 0 01-.209-.256c0-.215.316-.355.526-.355a2.029 2.029 0 01.809.234 3.527 3.527 0 01.462.305h.077c.171 0 .341-.016.465-.027.215-.014.38-.028.559-.041a7.14 7.14 0 01.289-.019v-.891a.9.9 0 00-.058-.41.266.266 0 00-.146-.118 1.2 1.2 0 00-.286-.072c-.187-.047-.223-.154-.223-.234a.36.36 0 01.16-.283.837.837 0 01.564-.2 2.655 2.655 0 011.2.325c.371.184.448.393.448.534a.593.593 0 01-.226.506c-.014.011-.05.061-.077.256a6.06 6.06 0 00-.028.492l.432-.028c.239-.016.465-.03.765-.055a.323.323 0 00.173-.05.639.639 0 01.437-.2 1.945 1.945 0 01.823.336l.036.03c.325.253.559.432.559.7a.5.5 0 01-.33.479c-.1.044-.132.083-.2.239a13.019 13.019 0 01-1.868 3.291 9.091 9.091 0 01-3.134 2.451.829.829 0 01-.278.083m3.786-6.767a2.873 2.873 0 01.352.016l.19.019-.047.184a10.766 10.766 0 01-1.455 3.247 9.842 9.842 0 01-2.583 2.872 8.783 8.783 0 002.914-2.314 12.434 12.434 0 001.824-3.211.674.674 0 01.347-.407c.135-.069.16-.085.16-.187s-.212-.27-.432-.443a1.773 1.773 0 00-.658-.3.322.322 0 00-.2.1.571.571 0 01-.382.154c-.3.025-.531.041-.773.058-.182.011-.371.025-.605.039l-.179.014v-.176a6.791 6.791 0 01.03-.71.7.7 0 01.193-.473.277.277 0 00.104-.249c0-.039-.058-.132-.27-.242a2.332 2.332 0 00-1.051-.289.547.547 0 00-.305.091 1.788 1.788 0 01.2.063.616.616 0 01.322.261 1.233 1.233 0 01.1.575v1.2l-.154.011c-.162.011-.3.025-.435.033-.184.014-.349.028-.528.036a5.072 5.072 0 01-.669.028h-.055l-.044-.033a2.836 2.836 0 00-.446-.3 1.721 1.721 0 00-.658-.2.391.391 0 00-.11.022 1.534 1.534 0 01.4.349.786.786 0 01.19.484c.041.572.052.891.052 1.634a1.341 1.341 0 01-.025.242.511.511 0 00-.017.118c0 .286.184.685.534.685.151 0 .239-.047.239-.267 0-.1-.011-.228-.022-.371-.008-.11-.017-.226-.022-.347l-.008-.121c-.022-.4-.05-.814-.058-1.439v-.151l.149-.017c.971-.1 1.775-.182 2.539-.223l.14-.008a20.19 20.19 0 011.2-.047"/><path data-name="パス 1042" d="M116.679 170.366c-.369 0-.638-.385-.982-1.048a1.583 1.583 0 01-.212-.828c0-.366.149-.5.286-.5.113 0 .2.094.27.19.355.462.5.462.743.462.278 0 .479-.016 1.081-.066 1.293-.113 2.674-.2 3.695-.223a1.363 1.363 0 00.724-.165.792.792 0 01.938.019c.36.2.748.457.748.919 0 .352-.187.724-.539.724-.146 0-.369-.014-.616-.027-.3-.022-.647-.044-.927-.044-.82 0-2.6.058-3.874.206a2.124 2.124 0 00-.946.226.516.516 0 01-.388.151m-.865-1.928v.058a1.288 1.288 0 00.176.68c.212.4.479.869.691.869a.218.218 0 00.165-.063c.11-.1.338-.226 1.131-.314 1.29-.149 3.084-.206 3.912-.206.292 0 .638.022.949.041.239.014.454.028.594.028.124 0 .212-.209.212-.393 0-.228-.154-.393-.583-.633a.778.778 0 00-.391-.121.387.387 0 00-.193.085 1.77 1.77 0 01-.905.223c-1.015.027-2.391.11-3.678.223-.611.052-.817.066-1.109.066-.336 0-.567-.036-.968-.542"/><path data-name="パス 1043" d="M127.593 174.954a.292.292 0 01-.3-.3.361.361 0 01.193-.275l.061-.044a16 16 0 003.989-3.83 12.737 12.737 0 001.72-2.883c.014-.028.025-.058.039-.091a.336.336 0 00-.069.014c-1.527.14-2.669.333-3.989.556a2.572 2.572 0 00-.784.217 1.106 1.106 0 01-.52.16c-.3 0-.5-.116-.883-.5a1.781 1.781 0 01-.589-1.128c0-.336.118-.553.3-.553.118 0 .176.05.3.157.41.38.553.5 1.04.5.165 0 .746-.052 1.244-.11.432-.052.944-.1 1.585-.173.6-.063 1.315-.138 2.174-.234a.723.723 0 00.41-.165 1.026 1.026 0 01.5-.154 2.409 2.409 0 011.194.7c.327.3.385.465.385.691 0 .275-.278.413-.385.468-.14.072-.206.118-.426.528a15.227 15.227 0 01-2.19 3.09 13.107 13.107 0 01-4.622 3.271 1.1 1.1 0 01-.369.094m5.813-7.767c.217 0 .261.113.261.206a1.874 1.874 0 01-.107.355 13.363 13.363 0 01-1.775 2.95 16.347 16.347 0 01-4.044 3.882l.088-.03a12.8 12.8 0 004.5-3.186 14.9 14.9 0 002.149-3.024c.223-.424.33-.548.57-.669.132-.069.2-.124.2-.173 0-.11 0-.2-.281-.446a2.222 2.222 0 00-.971-.616.677.677 0 00-.319.1 1.058 1.058 0 01-.561.22c-.853.1-1.568.168-2.171.231-.636.069-1.15.121-1.579.173a16.59 16.59 0 01-1.282.11 1.5 1.5 0 01-1.238-.559l-.052-.047a.855.855 0 00-.019.179 1.512 1.512 0 00.5.9c.369.369.5.4.649.4a.818.818 0 00.366-.118 2.876 2.876 0 01.883-.253c1.329-.226 2.473-.418 3.989-.556a1.129 1.129 0 01.239-.03m-4.284-1.676c-.611 0-.927-.283-1.329-.845a1.046 1.046 0 01-.226-.7c0-.3.206-.314.25-.314a.333.333 0 01.215.1l.036.028a1.541 1.541 0 001.208.457c.19 0 .415-.025.658-.05l.077-.008c.581-.08 1.131-.176 1.676-.3a2.727 2.727 0 00.487-.165.679.679 0 01.116-.047 1.813 1.813 0 01.6-.138c.652 0 1.378.336 1.378.787a.565.565 0 01-.4.619 5.049 5.049 0 01-.856.154c-.614.088-2.174.264-3.205.38-.314.03-.523.041-.685.041m-1.223-1.442a.7.7 0 00.157.4c.4.561.627.713 1.062.713.149 0 .355-.014.652-.041a166.09 166.09 0 003.178-.377 5.079 5.079 0 00.823-.146c.085-.025.162-.077.162-.3 0-.154-.454-.459-1.048-.459a1.467 1.467 0 00-.479.116l-.1.041a2.923 2.923 0 01-.548.187c-.559.127-1.117.228-1.711.308l-.083.008c-.237.025-.484.05-.691.05a1.8 1.8 0 01-1.373-.5"/><path data-name="パス 1044" d="M55.764 166.795a1.31 1.31 0 00-.49.2.779.779 0 01-.4.1c-.239 0-.5-.179-.836-.6-.374-.459-.459-.655-.459-.974 0-.278.069-.415.154-.415.069 0 .124.055.237.165a1.274 1.274 0 001.208.556c.347-.014.682-.027 1.029-.055 1.365-.124 2.754-.25 4.02-.4a1.281 1.281 0 00.627-.2.593.593 0 01.363-.168 1.351 1.351 0 01.9.4c.5.374.627.57.627.891a.454.454 0 01-.292.36 1.26 1.26 0 00-.6.666 15.483 15.483 0 01-2.641 3.707 12.227 12.227 0 01-4.589 3 .708.708 0 01-.206.044c-.127 0-.182-.03-.182-.154 0-.069.069-.127.22-.223a14.346 14.346 0 003.937-3.447 21.407 21.407 0 002.171-3.546 1.146 1.146 0 00.179-.473c0-.055-.069-.069-.138-.069a5.593 5.593 0 00-.586.055c-1.389.154-3.015.347-4.253.583"/><path data-name="パス 1045" d="M64.006 172.165a.544.544 0 01-.237.1.13.13 0 01-.138-.138c0-.058.069-.14.193-.223a23.707 23.707 0 003.423-3.31 9.891 9.891 0 001.259-1.728.938.938 0 00.165-.459c0-.1-.138-.234-.347-.36-.113-.069-.223-.1-.223-.182 0-.154.212-.223.473-.223a2.894 2.894 0 011.252.446c.292.182.528.388.528.6 0 .165-.113.3-.363.388a.39.39 0 00-.234.151c-.6.655-1.142 1.241-1.546 1.656.421.292.682.528.682.737a.444.444 0 01-.041.209 7.659 7.659 0 00-.028.861v1.447c.017.988.017 1.585.017 1.9 0 .5-.226.655-.476.655a.6.6 0 01-.5-.264 1.313 1.313 0 01-.223-.751.936.936 0 01.058-.25 2.9 2.9 0 00.083-.737c.014-.319.03-.6.03-1.128 0-.388.011-1.153.011-1.5a1.551 1.551 0 00-.083-.71 14.706 14.706 0 01-3.735 2.813"/><path data-name="パス 1046" d="M82.005 166.599a.924.924 0 01.352-.127 2.493 2.493 0 01.96.226.647.647 0 01.377.514c0 .264-.14.443-.341.443h-.107c-.556-.055-1.23-.1-2-.1-.344 0-.641.014-1.268.041 0 .627.014 1.365.025 1.821.025 1.6.058 2.867.083 3.8a1.248 1.248 0 01-.248.946 1.525 1.525 0 01-.913.443c-.212 0-.283-.014-.305-.165a1.011 1.011 0 00-.283-.655 3.812 3.812 0 00-.924-.514c-.129-.055-.154-.1-.154-.2 0-.069.061-.1.154-.1.05 0 .094.014.215.028a7.387 7.387 0 001.216.14c.2 0 .237-.1.237-.322 0-1.819-.011-2.974-.036-4.295a14.214 14.214 0 01-2.228 2.792 11.343 11.343 0 01-2.732 2.044.717.717 0 01-.272.1c-.085 0-.11-.1-.11-.165s.061-.14.179-.237a16.672 16.672 0 002.435-2.438 20.047 20.047 0 001.964-2.892 18.073 18.073 0 00-2.014.4 1.828 1.828 0 00-.649.264.511.511 0 01-.391.14c-.187 0-.451-.2-.8-.655a1.457 1.457 0 01-.38-.82c0-.154.072-.319.154-.319.047 0 .1.041.154.11a1.3 1.3 0 00.971.5c.129 0 .319-.014.6-.041.7-.083 1.585-.2 3.1-.347 0-1.447-.011-1.824-.022-2.03-.022-.363-.058-.459-.187-.542a1.813 1.813 0 00-.559-.223c-.118-.028-.154-.028-.154-.127 0-.069.085-.165.179-.237a.652.652 0 01.459-.138 2.682 2.682 0 011.079.264c.319.165.473.333.473.57a1.036 1.036 0 01-.179.487 1.58 1.58 0 00-.129.7c-.011.278-.025.652-.025 1.208.57-.055.96-.083 1.576-.151a.852.852 0 00.473-.14"/><path data-name="パス 1047" d="M90.898 164.084a1.926 1.926 0 00-.682-.264c-.124-.028-.151-.041-.151-.1 0-.083.113-.179.22-.264a.754.754 0 01.421-.124 3.305 3.305 0 011.194.292c.459.209.779.4.779.737a.582.582 0 01-.168.4c-.1.1-.151.278-.151.765a24.16 24.16 0 01-.349 4.782 5.128 5.128 0 01-1.389 2.545 8.027 8.027 0 01-4.157 2.044 1.308 1.308 0 01-.267.044c-.124 0-.182-.044-.182-.127s.058-.11.2-.168a7.119 7.119 0 004.116-3.214 7.516 7.516 0 00.751-3.07c.041-.6.055-1.543.055-3.409 0-.528-.03-.737-.237-.875m-3.742 1c-.069-.182-.261-.336-.682-.528-.107-.058-.151-.072-.151-.14 0-.041.055-.11.151-.151a.983.983 0 01.446-.113 2.619 2.619 0 011.045.377c.459.25.721.556.721.8a.626.626 0 01-.165.391.877.877 0 00-.1.473c-.044 1.1-.072 2.267-.085 3.978 0 .415-.165.6-.487.6-.223 0-.446-.182-.627-.5a1.7 1.7 0 01-.182-.779 1.293 1.293 0 01.074-.4 3.587 3.587 0 00.069-.641c.028-.528.039-1.1.039-2.212a3.83 3.83 0 00-.069-1.153"/><path data-name="パス 1048" d="M100.661 168.31c.836.349 1.293.779 1.293 1.4a.692.692 0 01-.6.74.941.941 0 01-.765-.4 7.462 7.462 0 00-1-1.015 4.13 4.13 0 00-1.447-.792v2.418c0 .583.028 1.865.055 3.365 0 .531-.234.655-.512.655a.64.64 0 01-.586-.319 2.354 2.354 0 01-.305-1.1 1.449 1.449 0 01.069-.4.491.491 0 00.072-.237c.014-.182.041-.57.052-3.114.017-1.323 0-2.5 0-3.811a7.707 7.707 0 00-.052-1.18.646.646 0 00-.294-.322 1.95 1.95 0 00-.484-.223c-.1-.028-.14-.069-.14-.124 0-.085.1-.154.182-.209a.82.82 0 01.391-.127 3.327 3.327 0 011.4.377c.377.165.556.388.556.652a.591.591 0 01-.237.446.438.438 0 00-.1.278c-.044.391-.072 1.211-.072 2.5a7.857 7.857 0 012.517.542"/><path data-name="パス 1049" d="M110.511 167.658a.431.431 0 00.278-.1.468.468 0 01.319-.151 1.83 1.83 0 01.724.305c.305.237.528.4.528.6 0 .212-.11.264-.25.336a.52.52 0 00-.264.319 12.367 12.367 0 01-1.852 3.255 8.953 8.953 0 01-3.071 2.406.806.806 0 01-.212.069c-.1 0-.138-.03-.138-.127 0-.041.069-.11.2-.209a9.677 9.677 0 002.627-2.892 10.565 10.565 0 001.433-3.2 2.562 2.562 0 00-.333-.017c-.432 0-.875.03-1.334.055-.8.044-1.629.127-2.531.226.011.68.041 1.112.069 1.554.011.281.041.545.041.726 0 .289-.138.429-.4.429-.446 0-.7-.473-.7-.847 0-.127.041-.2.041-.363 0-.735-.011-1.056-.052-1.612a.629.629 0 00-.154-.4 1.353 1.353 0 00-.4-.336c-.1-.041-.124-.069-.124-.11 0-.085.209-.2.36-.2a1.863 1.863 0 01.737.223 2.98 2.98 0 01.473.319 4.526 4.526 0 00.652-.028c.308-.014.57-.041.963-.069v-1.038a1.119 1.119 0 00-.072-.484.456.456 0 00-.237-.2 1.6 1.6 0 00-.319-.085c-.055-.011-.085-.025-.085-.069s.03-.1.1-.151a.677.677 0 01.459-.168 2.484 2.484 0 011.125.305c.223.113.363.25.363.391a.427.427 0 01-.168.374.566.566 0 00-.138.363 6.966 6.966 0 00-.03.7c.542-.044.85-.058 1.378-.1"/><path data-name="パス 1050" d="M123.432 169.689c-.322 0-1.032-.069-1.541-.069-.825 0-2.614.055-3.9.206a2.387 2.387 0 00-1.032.264.37.37 0 01-.281.113c-.272 0-.512-.333-.836-.96a1.4 1.4 0 01-.2-.751c0-.22.063-.333.124-.333.033 0 .085.055.135.127.388.5.575.525.875.525a10.34 10.34 0 001.1-.069c1.293-.11 2.669-.2 3.687-.22a1.605 1.605 0 00.814-.2.559.559 0 01.292-.113.956.956 0 01.47.14c.393.22.666.432.666.779 0 .264-.135.556-.377.556"/><path data-name="パス 1051" d="M129.357 167.006c.834-.1 1.986-.212 3.756-.4a.9.9 0 00.484-.2.833.833 0 01.4-.127 2.331 2.331 0 011.084.655c.308.278.336.4.336.572 0 .151-.154.25-.294.319-.193.1-.278.179-.5.6a14.942 14.942 0 01-2.168 3.059 12.915 12.915 0 01-4.559 3.225 1.02 1.02 0 01-.305.083.129.129 0 01-.138-.14c0-.069.11-.124.193-.193a16.016 16.016 0 004.017-3.855 12.962 12.962 0 001.742-2.919 2.024 2.024 0 00.1-.292c0-.041-.028-.041-.1-.041a1.365 1.365 0 00-.223.028c-1.488.14-2.586.319-3.976.556a2.679 2.679 0 00-.836.237.98.98 0 01-.443.138c-.223 0-.391-.069-.768-.443a1.661 1.661 0 01-.542-1.015c0-.237.069-.391.138-.391s.085.03.212.14a1.355 1.355 0 001.125.514c.182 0 .779-.055 1.266-.11m.669-2.658a19.98 19.98 0 001.695-.305 3.134 3.134 0 00.625-.223 1.729 1.729 0 01.545-.124c.611 0 1.208.319 1.208.625a.42.42 0 01-.275.459 5.513 5.513 0 01-.85.151c-.583.083-2.085.25-3.186.377-.278.028-.5.041-.666.041-.5 0-.779-.2-1.194-.779a.885.885 0 01-.2-.6c0-.1.025-.151.083-.151s.083.041.151.1a1.688 1.688 0 001.31.487c.22 0 .487-.028.751-.055"/></g></g></svg>