<svg xmlns="http://www.w3.org/2000/svg" xmlns:xlink="http://www.w3.org/1999/xlink" width="320" height="71.011" viewBox="0 0 320 71.011"><defs><clipPath id="a"><rect width="320" height="71.01" fill="none"/></clipPath><clipPath id="b"><path d="M11.335,8.317A17.241,17.241,0,0,0,1.053,30.425L7.714,28A12.8,12.8,0,1,1,31.345,29l2.226,1.074A17.238,17.238,0,0,0,11.335,8.317" transform="translate(-0.003 -7.267)" fill="none"/></clipPath><clipPath id="d"><path d="M13.382,25.924A12.792,12.792,0,1,1,25.41,34.34a12.8,12.8,0,0,1-12.028-8.417m8.6-21.491A17.215,17.215,0,1,0,27.9,3.38a17.235,17.235,0,0,0-5.913,1.053" transform="translate(-10.649 -3.38)" fill="none"/></clipPath><clipPath id="e"><path d="M18.6,11.7A17.245,17.245,0,0,0,24.373,45.14h.274a17.22,17.22,0,0,0,5.783-1.05L28,37.43a12.8,12.8,0,1,1,3.128-22.389l2.607-1.722A17.211,17.211,0,0,0,18.6,11.7" transform="translate(-7.269 -10.647)" fill="none"/></clipPath><clipPath id="f"><path d="M7.714,28A12.782,12.782,0,1,1,19.738,36.41,12.807,12.807,0,0,1,7.714,28m3.622-19.68a17.23,17.23,0,1,0,5.913-1.05,17.241,17.241,0,0,0-5.913,1.05" transform="translate(-0.003 -7.267)" fill="none"/></clipPath></defs><g clip-path="url(#a)"><path d="M25.792,26.551c-.357,0-.429-.216-.429-.4,0-.213.189-.333.367-.449a17.676,17.676,0,0,0,4.857-4.253,26.17,26.17,0,0,0,2.685-4.39,2.853,2.853,0,0,0,.175-.37,6.24,6.24,0,0,0-.645.065c-1.5.161-3.67.418-5.289.724a1.454,1.454,0,0,0-.535.213,1.147,1.147,0,0,1-.614.154c-.377,0-.748-.25-1.2-.82a1.925,1.925,0,0,1-.614-1.344c0-.652.274-.724.394-.724.168,0,.271.1.415.247.525.569.772.7,1.375.655.432-.017.847-.034,1.276-.072,1.677-.154,3.409-.305,5-.5a1.375,1.375,0,0,0,.683-.2,1.079,1.079,0,0,1,.638-.25,1.969,1.969,0,0,1,1.187.545c.662.5.864.8.864,1.272a.759.759,0,0,1-.477.638,1.385,1.385,0,0,0-.655.741,19.494,19.494,0,0,1-3.33,4.658,15.662,15.662,0,0,1-5.8,3.8,1.257,1.257,0,0,1-.333.062m7.714-10.276c.281,0,.377.158.377.292a1.55,1.55,0,0,1-.247.683A26.724,26.724,0,0,1,30.913,21.7a18.128,18.128,0,0,1-4.963,4.349,1.224,1.224,0,0,0-.123.086,1.1,1.1,0,0,0,.161-.041,15.178,15.178,0,0,0,5.639-3.69,19.075,19.075,0,0,0,3.258-4.568,1.783,1.783,0,0,1,.837-.919c.171-.086.254-.2.254-.268,0-.285-.072-.47-.7-.943a1.612,1.612,0,0,0-.991-.463.585.585,0,0,0-.336.165,1.7,1.7,0,0,1-.885.285c-1.6.2-3.337.353-5.014.5-.439.034-.861.051-1.3.069a1.825,1.825,0,0,1-1.667-.761,1.266,1.266,0,0,1-.1-.093.925.925,0,0,0-.031.268c0,.329.075.532.528,1.087.36.446.648.669.881.669a.727.727,0,0,0,.388-.093,1.918,1.918,0,0,1,.679-.271h0c1.633-.305,3.817-.566,5.316-.727a7.2,7.2,0,0,1,.755-.072" transform="translate(59.643 36.046)" fill="#595959"/><path d="M34.3,26.763a.932.932,0,0,1-.792-.422,1.827,1.827,0,0,1-.312-1.046,1.124,1.124,0,0,1,.058-.312l.017-.062a3.142,3.142,0,0,0,.1-.868l.007-.168c.01-.336.027-.669.027-1.228,0-.25,0-.624.007-.988,0-.343.007-.676.007-.885s-.007-.364-.014-.473a18.6,18.6,0,0,1-4.435,3.272.821.821,0,0,1-.391.144.363.363,0,0,1-.374-.377c0-.151.11-.3.329-.449a29.294,29.294,0,0,0,4.225-4.088,12.338,12.338,0,0,0,1.506-2.061l.031-.055c.154-.288.182-.374.182-.473a1.2,1.2,0,0,0-.336-.274l-.1-.055a.4.4,0,0,1-.278-.343c0-.113.055-.484.792-.484a3.846,3.846,0,0,1,1.67.583c.514.322.751.614.751.923,0,.178-.072.508-.59.679a.321.321,0,0,0-.2.127c-.772.844-1.338,1.454-1.77,1.907.463.336.741.628.741.943a.772.772,0,0,1-.062.322c-.01.089-.024.418-.024,1.015v1.8c.017,1.235.017,1.976.017,2.377,0,.923-.556,1.019-.8,1.019m-.71-7.227.123.285a2.156,2.156,0,0,1,.113.964c0,.213,0,.542,0,.888-.007.364-.01.737-.01.984,0,.569-.01.905-.024,1.242l-.01.171a3.436,3.436,0,0,1-.113.971l-.017.069a.585.585,0,0,0-.045.185,1.45,1.45,0,0,0,.233.806.536.536,0,0,0,.463.254c.106,0,.388,0,.388-.611,0-.4,0-1.142-.021-2.373v-1.8a9.931,9.931,0,0,1,.038-1.125.438.438,0,0,0,.051-.213c0-.144-.257-.394-.765-.751l-.2-.137.165-.171c.449-.46,1.06-1.115,1.924-2.058a.653.653,0,0,1,.4-.254c.292-.1.292-.24.292-.285,0-.069-.055-.257-.562-.573a3.407,3.407,0,0,0-1.451-.525.848.848,0,0,0-.333.051l.007,0c.038.021.082.045.123.072.24.147.528.374.528.621a1.384,1.384,0,0,1-.23.672l-.034.062a12.535,12.535,0,0,1-1.554,2.123,29.588,29.588,0,0,1-4.229,4.105,18.172,18.172,0,0,0,4.538-3.43Z" transform="translate(68.524 36.613)" fill="#595959"/><path d="M38.575,28.4c-.233,0-.528,0-.59-.377a1.045,1.045,0,0,0-.278-.686,3.766,3.766,0,0,0-.943-.542l-.165-.075a.418.418,0,0,1-.309-.429c0-.151.1-.326.394-.326a.72.72,0,0,1,.141.014c.038.007.086.014.151.021a9.857,9.857,0,0,0,1.492.175.2.2,0,0,0,.079-.01.993.993,0,0,0,.014-.185c0-1.876-.01-3.214-.034-4.661A18.951,18.951,0,0,1,36.1,24.232a14.227,14.227,0,0,1-3.457,2.586.978.978,0,0,1-.436.144c-.2,0-.34-.168-.34-.412a.63.63,0,0,1,.295-.453,20.682,20.682,0,0,0,2.994-3,24.835,24.835,0,0,0,2.219-3.21c-.905.151-1.6.316-2.068.436a2.037,2.037,0,0,0-.717.281.866.866,0,0,1-.631.226c-.322,0-.693-.285-1.166-.9a1.97,1.97,0,0,1-.511-1.146c0-.254.12-.6.394-.6a.486.486,0,0,1,.353.209,1.408,1.408,0,0,0,1.05.549c.147,0,.374-.014.731-.048l.408-.051c.8-.093,1.773-.213,3.272-.364,0-1.567-.014-2.061-.027-2.336-.027-.439-.072-.47-.141-.511a2.082,2.082,0,0,0-.635-.254c-.147-.031-.346-.075-.346-.353a.676.676,0,0,1,.3-.46,1,1,0,0,1,.7-.213,3.507,3.507,0,0,1,1.434.35,1.048,1.048,0,0,1,.7.892,1.5,1.5,0,0,1-.247.71c-.038.062-.093.158-.137.779-.017.36-.027.775-.027,1.269.178-.017.343-.031.508-.048.381-.034.751-.069,1.224-.12a.936.936,0,0,0,.5-.141,1.351,1.351,0,0,1,.556-.192,3.393,3.393,0,0,1,1.29.3,1.015,1.015,0,0,1,.583.827.679.679,0,0,1-.631.758h-.134c-.854-.082-1.66-.12-2.49-.12-.353,0-.665.017-1.2.038l-.168.007c0,.731.014,1.547.027,2.068.031,2,.072,3.574.1,4.733a1.745,1.745,0,0,1-.353,1.32,2.1,2.1,0,0,1-1.293.621m-1.677-2,.041.021a3.991,3.991,0,0,1,1.029.593,1.374,1.374,0,0,1,.425.94c.017.034.141.034.182.034a1.731,1.731,0,0,0,.977-.484,1.344,1.344,0,0,0,.261-1.039c-.031-1.163-.069-2.74-.1-4.733-.017-.573-.031-1.492-.031-2.274v-.2l.562-.024c.545-.024.861-.034,1.221-.034a24.65,24.65,0,0,1,2.511.12h.113c.151,0,.223-.175.223-.35a.627.627,0,0,0-.364-.463,2.988,2.988,0,0,0-1.1-.254,1.226,1.226,0,0,0-.319.12l0,0a1.329,1.329,0,0,1-.683.209c-.48.055-.851.086-1.235.123-.233.021-.466.041-.731.069l-.226.021v-.226c0-.6.01-1.094.031-1.516a2.055,2.055,0,0,1,.189-.964,1.117,1.117,0,0,0,.192-.5c0-.144-.058-.309-.477-.528a3.167,3.167,0,0,0-1.248-.305.614.614,0,0,0-.453.134.665.665,0,0,0-.1.086,2.661,2.661,0,0,1,.751.3c.25.161.3.377.329.837.017.309.031.823.031,2.545v.189l-.185.017c-1.6.161-2.624.281-3.447.381l-.415.051c-.381.038-.611.051-.775.051a1.832,1.832,0,0,1-1.358-.686l-.01-.014a.521.521,0,0,0-.021.134,1.66,1.66,0,0,0,.429.892c.514.669.761.741.84.741a.459.459,0,0,0,.357-.127,2.3,2.3,0,0,1,.885-.37,24.536,24.536,0,0,1,2.535-.511l.412-.058-.2.364a25.674,25.674,0,0,1-2.466,3.639,21.09,21.09,0,0,1-3.056,3.059c-.058.051-.093.086-.113.106.034-.017.086-.034.147-.065A13.936,13.936,0,0,0,35.8,23.944a17.685,17.685,0,0,0,2.744-3.426l.37-.621.01.724c.034,1.732.045,3.183.045,5.357,0,.2,0,.6-.5.6a9.787,9.787,0,0,1-1.55-.175l-.021,0m-.2-.113v0Z" transform="translate(77.419 34.87)" fill="#595959"/><path d="M36.767,29.114c-.319,0-.432-.189-.432-.364,0-.244.233-.34.374-.4a8.617,8.617,0,0,0,5.025-3.913,9.17,9.17,0,0,0,.916-3.745c.051-.744.069-1.931.069-4.232,0-.676-.048-.816-.206-.923a2.238,2.238,0,0,0-.785-.3c-.137-.034-.343-.086-.343-.322,0-.2.168-.353.35-.5a1.156,1.156,0,0,1,.652-.192,4.248,4.248,0,0,1,1.574.381c.552.247,1.091.538,1.091,1.1a.91.91,0,0,1-.268.648c-.086.089-.13.346-.13.809a30.6,30.6,0,0,1-.436,6.012,6.625,6.625,0,0,1-1.79,3.269,10.034,10.034,0,0,1-5.285,2.6l-.123.027a1.191,1.191,0,0,1-.25.031m5.1-14.268a2.641,2.641,0,0,1,.871.35c.374.247.391.645.391,1.266,0,2.312-.017,3.505-.072,4.256a9.523,9.523,0,0,1-.96,3.917,8.885,8.885,0,0,1-4.97,4,9.626,9.626,0,0,0,5.011-2.48,6.233,6.233,0,0,0,1.677-3.066,30.7,30.7,0,0,0,.429-5.92c0-.617.065-.916.25-1.1a.528.528,0,0,0,.147-.36c0-.254-.23-.449-.851-.727a3.862,3.862,0,0,0-1.406-.35.723.723,0,0,0-.408.12l-.11.089m-3.035,9.065a1.2,1.2,0,0,1-.964-.731,2.382,2.382,0,0,1-.25-1.067,1.969,1.969,0,0,1,.1-.566A4.938,4.938,0,0,0,37.8,20.8c.031-.607.051-1.276.051-2.744v-.285a3.554,3.554,0,0,0-.079-1.084c-.065-.168-.288-.333-.744-.545l-.048-.024a.36.36,0,0,1-.257-.336.46.46,0,0,1,.312-.377,1.4,1.4,0,0,1,.638-.154,3.509,3.509,0,0,1,1.4.49c.628.346,1,.789,1,1.187a.989.989,0,0,1-.257.624,1.3,1.3,0,0,0-.072.46c-.051,1.465-.082,2.95-.1,4.956,0,.823-.5.943-.809.943m-1.619-8.135c.569.271.833.494.94.768h0a3.749,3.749,0,0,1,.1,1.228l0,.285c0,1.293-.014,2.044-.051,2.764a4.64,4.64,0,0,1-.093.844,1.508,1.508,0,0,0-.086.449,1.966,1.966,0,0,0,.206.875c.185.322.4.514.6.514s.4-.045.4-.538c.017-2.013.051-3.5.1-4.97a1.341,1.341,0,0,1,.161-.707.583.583,0,0,0,.168-.36c0-.2-.244-.525-.792-.823a3.175,3.175,0,0,0-1.2-.446,1.024,1.024,0,0,0-.456.117" transform="translate(88.285 34.574)" fill="#595959"/><path d="M42.255,28.625a1,1,0,0,1-.909-.5,3.129,3.129,0,0,1-.4-1.468,1.954,1.954,0,0,1,.106-.593.456.456,0,0,0,.065-.206c.017-.206.051-.6.069-3.882.014-1.094.007-2.109,0-3.145,0-.525,0-1.053,0-1.6a9.6,9.6,0,0,0-.062-1.42.623.623,0,0,0-.271-.278,2.017,2.017,0,0,0-.549-.254c-.3-.086-.329-.278-.329-.357,0-.216.189-.346.316-.429a1.229,1.229,0,0,1,.6-.192,4.335,4.335,0,0,1,1.835.487c.672.3.813.71.813,1a.958.958,0,0,1-.364.707.485.485,0,0,0-.055.216c-.031.3-.079,1.07-.086,2.905a9.83,9.83,0,0,1,3.011.679h0c1.183.494,1.739,1.108,1.739,1.941a1.062,1.062,0,0,1-.953,1.125,1.38,1.38,0,0,1-1.111-.576A9.394,9.394,0,0,0,44.5,21.542a5.14,5.14,0,0,0-1.471-.864v2.73c0,.511.021,1.44.041,2.589L43.1,27.6c0,.847-.456,1.022-.844,1.022M40.441,14.881a2.793,2.793,0,0,1,.621.295.981.981,0,0,1,.449.5,8.157,8.157,0,0,1,.079,1.543c0,.545,0,1.077.007,1.6,0,1.039.007,2.058-.007,3.152-.014,3.3-.051,3.7-.069,3.9a.815.815,0,0,1-.106.374,1.734,1.734,0,0,0-.062.408,2.7,2.7,0,0,0,.35,1.266.612.612,0,0,0,.552.3c.223,0,.436-.048.436-.611l-.031-1.6c-.021-1.156-.038-2.089-.038-2.6V20.119l.261.079a5.244,5.244,0,0,1,1.876,1.025,9.431,9.431,0,0,1,1.276,1.293.973.973,0,0,0,.8.432.66.66,0,0,0,.542-.717c0-.645-.473-1.139-1.489-1.561a9.607,9.607,0,0,0-3.07-.662L42.622,20v-.2c0-1.478.031-2.593.086-3.142a.748.748,0,0,1,.182-.47.579.579,0,0,0,.237-.412q0-.376-.576-.628a3.883,3.883,0,0,0-1.663-.453.82.82,0,0,0-.377.127Z" transform="translate(97.12 34.734)" fill="#595959"/><path d="M45.621,26.776a.336.336,0,0,1-.377-.364c0-.144.117-.268.322-.425a11.84,11.84,0,0,0,3.227-3.55,13.286,13.286,0,0,0,1.7-3.687c-.051,0-.1,0-.154,0-.521,0-1.06.034-1.65.072-.967.048-1.989.151-2.96.257.014.652.045,1.118.072,1.567l.01.175c.007.151.021.292.027.425.014.185.024.357.024.49a.659.659,0,0,1-.71.741,1.183,1.183,0,0,1-1.07-1.262.938.938,0,0,1,.027-.23,1.194,1.194,0,0,0,.024-.223c0-.933-.017-1.317-.069-1.993a.586.586,0,0,0-.141-.381,1.434,1.434,0,0,0-.446-.374.358.358,0,0,1-.261-.316c0-.274.391-.449.652-.449a2.527,2.527,0,0,1,1.012.3,3.8,3.8,0,0,1,.576.381c.233,0,.5-.017.669-.034l.055,0c.223-.014.422-.031.652-.048.11-.007.226-.014.353-.024V16.7a1.311,1.311,0,0,0-.065-.508.4.4,0,0,0-.185-.151,1.627,1.627,0,0,0-.36-.086c-.244-.062-.278-.209-.278-.292a.454.454,0,0,1,.2-.35,1.046,1.046,0,0,1,.707-.254,3.3,3.3,0,0,1,1.5.4c.36.178.562.415.562.665a.731.731,0,0,1-.285.628c-.017.014-.065.079-.1.319-.014.175-.027.37-.034.617.23-.014.425-.027.617-.041.271-.021.535-.038.875-.065a.479.479,0,0,0,.223-.058.761.761,0,0,1,.545-.254,2.472,2.472,0,0,1,1.019.418l.055.045c.384.3.689.535.689.871a.61.61,0,0,1-.422.6c-.11.058-.158.106-.233.295a15.783,15.783,0,0,1-2.339,4.109,11.4,11.4,0,0,1-3.9,3.059,1.115,1.115,0,0,1-.35.1m4.716-8.437a4.132,4.132,0,0,1,.432.017l.24.021-.055.233A13.476,13.476,0,0,1,49.14,22.66a12.23,12.23,0,0,1-3.214,3.574,10.98,10.98,0,0,0,3.625-2.881,15.573,15.573,0,0,0,2.277-4,.851.851,0,0,1,.425-.508c.171-.086.2-.1.2-.23s-.261-.336-.532-.545l-.051-.041a2.316,2.316,0,0,0-.772-.336.364.364,0,0,0-.24.117.741.741,0,0,1-.484.192h-.007c-.343.031-.61.048-.885.065-.25.017-.508.038-.833.062l-.223.014v-.22c0-.367.017-.645.038-.885a.883.883,0,0,1,.247-.6.32.32,0,0,0,.134-.305c0-.045-.072-.168-.336-.3a2.925,2.925,0,0,0-1.314-.364.684.684,0,0,0-.374.11,2.437,2.437,0,0,1,.25.079.79.79,0,0,1,.4.326,1.49,1.49,0,0,1,.12.717v1.5l-.189.014c-.206.014-.381.031-.542.041-.23.017-.436.034-.662.045a5.734,5.734,0,0,1-.833.034l-.065,0-.051-.041a3.483,3.483,0,0,0-.559-.377,2.149,2.149,0,0,0-.823-.254.415.415,0,0,0-.137.031,1.764,1.764,0,0,1,.508.436.971.971,0,0,1,.233.6c.055.689.072,1.1.072,2.037a1.332,1.332,0,0,1-.034.3.668.668,0,0,0-.021.151c0,.357.23.854.662.854.192,0,.3-.058.3-.333,0-.127-.014-.288-.027-.463-.01-.137-.017-.281-.024-.432l-.01-.168c-.034-.5-.065-1.012-.079-1.777l-.007-.189.189-.017c1.036-.117,2.133-.23,3.169-.278.6-.041,1.139-.072,1.674-.072" transform="translate(105.007 36.6)" fill="#595959"/><path d="M48.6,18.939c-.46,0-.8-.48-1.224-1.307a1.942,1.942,0,0,1-.264-1.032c0-.573.274-.617.357-.617.127,0,.223.086.333.233.446.58.617.58.929.58.329,0,.573-.017,1.341-.086,1.639-.141,3.365-.247,4.613-.274a1.8,1.8,0,0,0,.905-.209,1,1,0,0,1,1.163.024c.453.254.936.576.936,1.149,0,.442-.25.9-.676.9-.182,0-.46-.017-.768-.034-.377-.027-.806-.055-1.152-.055-1.029,0-3.248.072-4.833.261a2.753,2.753,0,0,0-1.176.278.654.654,0,0,1-.484.192m-1.077-2.411,0,.072a1.573,1.573,0,0,0,.22.844c.281.538.6,1.087.861,1.087a.267.267,0,0,0,.206-.082,2.851,2.851,0,0,1,1.406-.388c1.6-.189,3.841-.261,4.881-.261.36,0,.792.027,1.176.051.3.017.569.034.744.034.158,0,.268-.257.268-.487,0-.281-.192-.49-.727-.792a1,1,0,0,0-.487-.147.474.474,0,0,0-.244.106,2.177,2.177,0,0,1-1.125.278c-1.245.034-2.96.137-4.589.274a13.486,13.486,0,0,1-1.379.086c-.415,0-.707-.045-1.207-.676" transform="translate(114.459 38.836)" fill="#595959"/><path d="M52.513,28.6a.369.369,0,0,1-.381-.377.445.445,0,0,1,.237-.343l.075-.055a19.932,19.932,0,0,0,4.98-4.774,15.906,15.906,0,0,0,2.144-3.594c.014-.034.031-.072.045-.117l-.089.017c-1.845.175-3.162.388-4.966.7a2.989,2.989,0,0,0-.974.271,1.394,1.394,0,0,1-.652.2c-.37,0-.628-.144-1.1-.614a2.239,2.239,0,0,1-.737-1.413c0-.418.147-.689.377-.689a.512.512,0,0,1,.35.175l.048.045a1.489,1.489,0,0,0,1.266.593c.209,0,.919-.065,1.554-.137.542-.065,1.19-.13,2-.216.744-.079,1.629-.168,2.689-.288a.893.893,0,0,0,.511-.209,1.262,1.262,0,0,1,.621-.189,3.05,3.05,0,0,1,1.489.871c.412.37.484.573.484.861,0,.343-.346.514-.48.583-.182.093-.261.151-.532.655a18.865,18.865,0,0,1-2.734,3.855,16.3,16.3,0,0,1-5.762,4.078,1.511,1.511,0,0,1-.456.117m7.247-9.686c.271,0,.326.141.326.257a2.12,2.12,0,0,1-.134.439,16.573,16.573,0,0,1-2.2,3.69A20.26,20.26,0,0,1,52.7,28.142l.089-.027a16,16,0,0,0,5.632-3.982A18.463,18.463,0,0,0,61.1,20.36c.285-.532.412-.679.713-.83.216-.113.25-.182.25-.216,0-.141,0-.244-.353-.556A2.749,2.749,0,0,0,60.5,17.99a.864.864,0,0,0-.394.123,1.306,1.306,0,0,1-.7.278c-1.053.117-1.938.206-2.685.288-.8.082-1.451.147-1.989.213-.576.069-1.348.137-1.6.137a1.87,1.87,0,0,1-1.54-.693l-.045-.041-.024-.021a1.066,1.066,0,0,0-.024.223,1.89,1.89,0,0,0,.617,1.122c.463.46.624.494.813.494a1.046,1.046,0,0,0,.456-.147,3.272,3.272,0,0,1,1.1-.316c1.756-.3,3.138-.528,4.973-.7a1.775,1.775,0,0,1,.3-.038m-5.344-2.089c-.761,0-1.156-.353-1.653-1.053a1.313,1.313,0,0,1-.281-.864c0-.292.165-.394.309-.394a.4.4,0,0,1,.271.127l.048.038a1.918,1.918,0,0,0,1.5.562c.261,0,.573-.034.9-.069l.031.206-.024-.206c.683-.093,1.386-.219,2.1-.377a3.108,3.108,0,0,0,.621-.213l.127-.055a2.233,2.233,0,0,1,.751-.168c.809,0,1.715.418,1.715.981a.7.7,0,0,1-.49.768,6.951,6.951,0,0,1-1.094.2c-.573.082-1.842.226-3.059.367l-.916.1c-.353.034-.638.048-.854.048M52.9,15.04a.857.857,0,0,0,.2.49c.49.689.785.888,1.32.888.2,0,.477-.017.813-.048l.909-.106c1.163-.134,2.48-.281,3.052-.364a6.732,6.732,0,0,0,1.029-.185c.1-.031.2-.1.2-.374,0-.192-.562-.573-1.3-.573a1.885,1.885,0,0,0-.6.141l-.117.051a3.613,3.613,0,0,1-.7.237c-.72.161-1.437.292-2.133.384h-.007l-.021-.2.01.2c-.322.034-.662.069-.943.069A2.256,2.256,0,0,1,52.9,15.04" transform="translate(124.144 34.895)" fill="#595959"/><path d="M27.329,17.132a1.633,1.633,0,0,0-.611.244.971.971,0,0,1-.5.12c-.3,0-.628-.223-1.043-.744-.466-.573-.573-.816-.573-1.214,0-.346.086-.518.192-.518.086,0,.154.069.295.206a1.589,1.589,0,0,0,1.506.693c.432-.017.851-.034,1.283-.069,1.7-.154,3.433-.312,5.011-.5a1.6,1.6,0,0,0,.782-.244.74.74,0,0,1,.453-.209,1.685,1.685,0,0,1,1.122.5c.624.466.782.71.782,1.111a.566.566,0,0,1-.364.449,1.571,1.571,0,0,0-.744.83,19.3,19.3,0,0,1-3.3,4.613,15.3,15.3,0,0,1-5.721,3.745.977.977,0,0,1-.257.051c-.158,0-.226-.038-.226-.192,0-.086.086-.158.274-.278a17.884,17.884,0,0,0,4.908-4.3,26.686,26.686,0,0,0,2.706-4.421,1.428,1.428,0,0,0,.223-.59c0-.069-.086-.086-.171-.086a6.966,6.966,0,0,0-.731.069c-1.732.192-3.759.432-5.3.727" transform="translate(59.787 36.191)" fill="#595959"/><path d="M28.727,23.259a.678.678,0,0,1-.295.12.162.162,0,0,1-.171-.171c0-.072.086-.175.24-.278A29.554,29.554,0,0,0,32.768,18.8a12.329,12.329,0,0,0,1.561-2.15,1.169,1.169,0,0,0,.206-.573c0-.12-.171-.292-.432-.449-.141-.086-.278-.123-.278-.226,0-.192.264-.278.59-.278a3.608,3.608,0,0,1,1.561.556c.364.226.659.484.659.748,0,.206-.141.377-.453.484a.486.486,0,0,0-.292.189c-.744.816-1.423,1.547-1.928,2.065.525.364.851.659.851.919a.553.553,0,0,1-.051.261,9.544,9.544,0,0,0-.034,1.074v1.8c.021,1.231.021,1.976.021,2.373,0,.624-.281.816-.593.816a.746.746,0,0,1-.624-.329,1.637,1.637,0,0,1-.278-.936,1.167,1.167,0,0,1,.072-.312,3.619,3.619,0,0,0,.1-.919c.017-.4.038-.744.038-1.406,0-.484.014-1.437.014-1.869a1.933,1.933,0,0,0-.1-.885,18.332,18.332,0,0,1-4.647,3.5" transform="translate(68.667 36.756)" fill="#595959"/><path d="M42.266,18.066a1.153,1.153,0,0,1,.439-.158,3.108,3.108,0,0,1,1.2.281.807.807,0,0,1,.47.641c0,.329-.175.552-.425.552h-.134c-.693-.069-1.533-.12-2.49-.12-.429,0-.8.017-1.581.051,0,.782.017,1.7.031,2.271.031,2,.072,3.574.1,4.733a1.556,1.556,0,0,1-.309,1.18,1.9,1.9,0,0,1-1.139.552c-.264,0-.353-.017-.381-.206a1.261,1.261,0,0,0-.353-.816,4.752,4.752,0,0,0-1.152-.641c-.161-.069-.192-.12-.192-.244,0-.086.075-.12.192-.12.062,0,.117.017.268.034a9.208,9.208,0,0,0,1.516.175c.25,0,.295-.12.295-.4,0-2.267-.014-3.708-.045-5.354A17.72,17.72,0,0,1,35.8,23.945,14.139,14.139,0,0,1,32.4,26.493a.894.894,0,0,1-.34.12c-.106,0-.137-.12-.137-.206s.075-.175.223-.295a20.613,20.613,0,0,0,3.025-3.035,24.989,24.989,0,0,0,2.449-3.6,22.531,22.531,0,0,0-2.511.5,2.279,2.279,0,0,0-.809.329.637.637,0,0,1-.487.175c-.233,0-.562-.244-1-.816a1.816,1.816,0,0,1-.473-1.022c0-.192.089-.4.192-.4.058,0,.12.051.192.137A1.615,1.615,0,0,0,33.932,19c.161,0,.4-.017.751-.051.871-.1,1.976-.244,3.862-.432,0-1.8-.014-2.274-.027-2.531-.027-.453-.072-.573-.233-.676a2.261,2.261,0,0,0-.7-.278C37.44,15,37.4,15,37.4,14.876c0-.086.106-.206.223-.295a.812.812,0,0,1,.573-.171,3.344,3.344,0,0,1,1.344.329c.4.206.59.415.59.71a1.291,1.291,0,0,1-.223.607,1.97,1.97,0,0,0-.161.868c-.014.346-.031.813-.031,1.506.71-.069,1.2-.1,1.965-.189a1.062,1.062,0,0,0,.59-.175" transform="translate(77.563 35.014)" fill="#595959"/><path d="M42.483,15.225a2.4,2.4,0,0,0-.851-.329c-.154-.034-.189-.051-.189-.123,0-.1.141-.223.274-.329a.94.94,0,0,1,.525-.154,4.121,4.121,0,0,1,1.489.364c.573.261.971.5.971.919a.725.725,0,0,1-.209.5c-.12.12-.189.346-.189.953a30.117,30.117,0,0,1-.436,5.961,6.393,6.393,0,0,1-1.732,3.173,10.006,10.006,0,0,1-5.182,2.548,1.631,1.631,0,0,1-.333.055c-.154,0-.226-.055-.226-.158,0-.086.072-.137.247-.209a8.875,8.875,0,0,0,5.131-4.006,9.369,9.369,0,0,0,.936-3.828c.051-.748.069-1.924.069-4.249,0-.659-.038-.919-.295-1.091m-4.664,1.248c-.086-.226-.326-.418-.851-.659-.134-.072-.189-.089-.189-.175,0-.051.069-.137.189-.189a1.226,1.226,0,0,1,.556-.141,3.264,3.264,0,0,1,1.3.47c.573.312.9.693.9,1a.781.781,0,0,1-.206.487,1.093,1.093,0,0,0-.12.59c-.055,1.368-.089,2.826-.106,4.959,0,.518-.206.744-.607.744-.278,0-.556-.226-.782-.624a2.124,2.124,0,0,1-.226-.971,1.612,1.612,0,0,1,.093-.5,4.474,4.474,0,0,0,.086-.8c.034-.659.048-1.368.048-2.758a4.774,4.774,0,0,0-.086-1.437" transform="translate(88.431 34.72)" fill="#595959"/><path d="M45.819,20.335c1.043.436,1.612.971,1.612,1.749a.863.863,0,0,1-.744.923,1.173,1.173,0,0,1-.953-.5,9.3,9.3,0,0,0-1.248-1.266,5.148,5.148,0,0,0-1.8-.988v3.015c0,.727.034,2.325.069,4.195,0,.662-.292.816-.638.816a.8.8,0,0,1-.731-.4A2.935,2.935,0,0,1,41,26.506a1.806,1.806,0,0,1,.086-.5.612.612,0,0,0,.089-.295c.017-.226.051-.71.065-3.882.021-1.65,0-3.121,0-4.75a9.607,9.607,0,0,0-.065-1.471.806.806,0,0,0-.367-.4,2.432,2.432,0,0,0-.6-.278c-.12-.034-.175-.086-.175-.154,0-.106.12-.192.226-.261a1.022,1.022,0,0,1,.487-.158,4.147,4.147,0,0,1,1.749.47c.47.206.693.484.693.813a.736.736,0,0,1-.295.556.546.546,0,0,0-.12.346c-.055.487-.089,1.509-.089,3.121a9.8,9.8,0,0,1,3.138.676" transform="translate(97.263 34.878)" fill="#595959"/><path d="M50.212,17.654a.537.537,0,0,0,.346-.123.583.583,0,0,1,.4-.189,2.281,2.281,0,0,1,.9.381c.381.295.659.5.659.744,0,.264-.137.329-.312.418a.648.648,0,0,0-.329.4,15.417,15.417,0,0,1-2.308,4.057,11.161,11.161,0,0,1-3.828,3,1,1,0,0,1-.264.086c-.12,0-.171-.038-.171-.158,0-.051.086-.137.244-.261a12.064,12.064,0,0,0,3.275-3.6,13.169,13.169,0,0,0,1.787-3.985,3.2,3.2,0,0,0-.415-.021c-.538,0-1.094.038-1.663.069-.991.055-2.03.158-3.155.281.014.847.051,1.386.086,1.938.014.35.051.679.051.905,0,.36-.171.535-.5.535-.556,0-.868-.59-.868-1.056,0-.158.051-.244.051-.453,0-.916-.014-1.317-.065-2.01a.785.785,0,0,0-.192-.5,1.687,1.687,0,0,0-.5-.418c-.12-.051-.154-.086-.154-.137,0-.106.261-.244.449-.244a2.323,2.323,0,0,1,.919.278,3.715,3.715,0,0,1,.59.4,5.649,5.649,0,0,0,.813-.034c.384-.017.71-.051,1.2-.086v-1.3a1.4,1.4,0,0,0-.089-.6.569.569,0,0,0-.295-.244,1.994,1.994,0,0,0-.4-.106c-.069-.014-.106-.031-.106-.086s.038-.12.123-.189a.844.844,0,0,1,.573-.209,3.1,3.1,0,0,1,1.4.381c.278.141.453.312.453.487a.533.533,0,0,1-.209.466.705.705,0,0,0-.172.453c-.021.206-.038.484-.038.868.676-.055,1.06-.072,1.718-.123" transform="translate(105.153 36.746)" fill="#595959"/><path d="M56.865,17.95c-.4,0-1.286-.086-1.921-.086-1.029,0-3.258.069-4.857.257a2.975,2.975,0,0,0-1.286.329.462.462,0,0,1-.35.141c-.34,0-.638-.415-1.043-1.2a1.748,1.748,0,0,1-.244-.936c0-.274.079-.415.154-.415.041,0,.106.069.168.158.484.624.717.655,1.091.655a12.889,12.889,0,0,0,1.365-.086c1.612-.137,3.327-.244,4.6-.274a2,2,0,0,0,1.015-.244.7.7,0,0,1,.364-.141,1.192,1.192,0,0,1,.586.175c.49.274.83.538.83.971,0,.329-.168.693-.47.693" transform="translate(114.602 38.982)" fill="#595959"/><path d="M54.568,18.547c1.039-.123,2.476-.264,4.682-.5a1.12,1.12,0,0,0,.6-.244,1.039,1.039,0,0,1,.5-.158,2.906,2.906,0,0,1,1.351.816c.384.346.418.5.418.713,0,.189-.192.312-.367.4-.24.12-.346.223-.624.744a18.627,18.627,0,0,1-2.7,3.814,16.1,16.1,0,0,1-5.687,4.023,1.271,1.271,0,0,1-.381.1.161.161,0,0,1-.171-.175c0-.086.137-.154.24-.24a19.966,19.966,0,0,0,5.007-4.805,16.159,16.159,0,0,0,2.171-3.639,2.522,2.522,0,0,0,.12-.364c0-.051-.034-.051-.12-.051a1.7,1.7,0,0,0-.278.034c-1.855.175-3.224.4-4.956.693A3.339,3.339,0,0,0,53.337,20a1.222,1.222,0,0,1-.552.171c-.278,0-.487-.086-.957-.552a2.071,2.071,0,0,1-.676-1.266c0-.295.086-.487.171-.487s.106.038.264.175a1.689,1.689,0,0,0,1.4.641c.226,0,.971-.069,1.578-.137m.833-3.313c.638-.086,1.351-.209,2.113-.381a3.907,3.907,0,0,0,.779-.278,2.155,2.155,0,0,1,.679-.154c.761,0,1.506.4,1.506.779a.523.523,0,0,1-.343.573,6.874,6.874,0,0,1-1.06.189c-.727.1-2.6.312-3.972.47-.346.034-.624.051-.83.051-.624,0-.971-.244-1.489-.971a1.1,1.1,0,0,1-.244-.748c0-.12.031-.189.1-.189.055,0,.1.051.189.12a2.1,2.1,0,0,0,1.633.607c.274,0,.607-.034.936-.069" transform="translate(124.287 35.041)" fill="#595959"/><path d="M32.175,3.823V14.277h4.846a3.439,3.439,0,0,0,2.439-.737,4.825,4.825,0,0,0,1.029-2.912h.727v9h-.727a5.307,5.307,0,0,0-.4-2.277,2.594,2.594,0,0,0-1.06-1.087,4.4,4.4,0,0,0-2.01-.364H32.175v8.355a8.773,8.773,0,0,0,.254,2.668,1.772,1.772,0,0,0,.827.844,3.723,3.723,0,0,0,1.8.47h.964v.727H24.606v-.727h.943a2.835,2.835,0,0,0,2.391-.96,5.963,5.963,0,0,0,.47-3.022V7.078a8.878,8.878,0,0,0-.254-2.665,1.769,1.769,0,0,0-.806-.844,3.6,3.6,0,0,0-1.8-.47h-.943V2.372H44.392l.257,5.844h-.686a8.034,8.034,0,0,0-1.187-2.734A3.936,3.936,0,0,0,41.11,4.214a8.951,8.951,0,0,0-3.07-.391Z" transform="translate(59.787 5.764)" fill="#595959"/><path d="M43.494,28.238v.727H32.1v-.727h.94a2.837,2.837,0,0,0,2.394-.96,6,6,0,0,0,.47-3.022V7.08a8.89,8.89,0,0,0-.254-2.668,1.775,1.775,0,0,0-.8-.844A3.739,3.739,0,0,0,33.04,3.1H32.1V2.371H43.494V3.1h-.96a2.808,2.808,0,0,0-2.373.96,5.773,5.773,0,0,0-.49,3.022V24.256a8.89,8.89,0,0,0,.254,2.668,1.742,1.742,0,0,0,.827.844,3.575,3.575,0,0,0,1.783.47Z" transform="translate(77.995 5.762)" fill="#595959"/><path d="M50.037,2.195a12.069,12.069,0,0,1,8.976,3.931,13.593,13.593,0,0,1,3.8,9.816A13.966,13.966,0,0,1,58.982,26a12.788,12.788,0,0,1-18.483.1A14.006,14.006,0,0,1,36.764,16,13.455,13.455,0,0,1,41.075,5.666a12.734,12.734,0,0,1,8.962-3.471m-.37,1.43a7.013,7.013,0,0,0-5.728,2.648q-2.68,3.3-2.685,9.648,0,6.513,2.785,10.022a6.887,6.887,0,0,0,5.649,2.668,7.72,7.72,0,0,0,6.187-2.922q2.439-2.922,2.439-9.219,0-6.822-2.682-10.176a7.247,7.247,0,0,0-5.964-2.668" transform="translate(89.328 5.334)" fill="#595959"/><path d="M72.11,28.966h-7.1l-9-12.436q-1,.041-1.626.041c-.172,0-.353,0-.552-.01s-.4-.017-.607-.031v7.727c0,1.674.185,2.716.549,3.118a2.8,2.8,0,0,0,2.236.864h1.039v.727H45.653v-.727h1a2.678,2.678,0,0,0,2.411-1.1,6.2,6.2,0,0,0,.412-2.884V7.078c0-1.67-.185-2.713-.549-3.118A2.891,2.891,0,0,0,46.654,3.1h-1V2.372h9.689a23.042,23.042,0,0,1,6.246.617A7.148,7.148,0,0,1,65,5.263a5.942,5.942,0,0,1,1.4,3.955,6.218,6.218,0,0,1-1.6,4.253,9.03,9.03,0,0,1-4.953,2.552l5.491,7.628a13.66,13.66,0,0,0,3.234,3.491,8.149,8.149,0,0,0,3.533,1.1ZM53.222,15.3q.376,0,.648.01c.182.007.333.01.449.01q3.807,0,5.738-1.65a5.264,5.264,0,0,0,1.931-4.195,5.48,5.48,0,0,0-1.557-4.051A5.592,5.592,0,0,0,56.3,3.861a17.468,17.468,0,0,0-3.08.374Z" transform="translate(110.926 5.764)" fill="#595959"/><path d="M65.828,28.238v.727H54.434v-.727h.94a2.837,2.837,0,0,0,2.394-.96,6,6,0,0,0,.47-3.022V7.08a8.89,8.89,0,0,0-.254-2.668,1.767,1.767,0,0,0-.806-.844,3.736,3.736,0,0,0-1.8-.47h-.94V2.371H65.828V3.1h-.96a2.812,2.812,0,0,0-2.373.96A5.737,5.737,0,0,0,62,7.08V24.256a8.738,8.738,0,0,0,.257,2.668,1.74,1.74,0,0,0,.82.844,3.6,3.6,0,0,0,1.787.47Z" transform="translate(132.262 5.762)" fill="#595959"/><path d="M81.3,2.372l.295,6.235h-.744a7.468,7.468,0,0,0-.59-2.353,3.967,3.967,0,0,0-1.619-1.677,5.628,5.628,0,0,0-2.658-.538H72.236V24.353q0,2.454.532,3.063a2.942,2.942,0,0,0,2.295.823h.919v.727H64.708v-.727h.94a2.7,2.7,0,0,0,2.394-1.022,5.954,5.954,0,0,0,.429-2.864V4.039H65.277a8.982,8.982,0,0,0-2.651.274,3.659,3.659,0,0,0-1.746,1.43,5.845,5.845,0,0,0-.861,2.864h-.744l.312-6.235Z" transform="translate(144.024 5.764)" fill="#595959"/><path d="M85.96,3.1V2.372h9.411V3.1h-1a2.693,2.693,0,0,0-2.408,1.314,5.944,5.944,0,0,0-.415,2.823V18.019a19.11,19.11,0,0,1-.792,6.208,7.808,7.808,0,0,1-3.121,3.786,11.122,11.122,0,0,1-6.321,1.578q-4.358,0-6.609-1.509a8.166,8.166,0,0,1-3.2-4.061,22.408,22.408,0,0,1-.628-6.551V7.078c0-1.636-.226-2.706-.679-3.217A2.775,2.775,0,0,0,68.015,3.1h-1V2.372H78.507V3.1H77.488a2.632,2.632,0,0,0-2.353,1.039,5.767,5.767,0,0,0-.494,2.943V18.667a25.707,25.707,0,0,0,.285,3.55,7.524,7.524,0,0,0,1.029,3.118,5.639,5.639,0,0,0,2.15,1.845,7.408,7.408,0,0,0,3.44.724,9.457,9.457,0,0,0,4.668-1.139,6.066,6.066,0,0,0,2.812-2.912,16.827,16.827,0,0,0,.758-6.009V7.078c0-1.663-.185-2.7-.549-3.121A2.893,2.893,0,0,0,86.958,3.1Z" transform="translate(162.828 5.764)" fill="#595959"/><path d="M102.947,28.966h-7.1l-9-12.436c-.665.027-1.211.041-1.626.041-.171,0-.357,0-.552-.01s-.4-.017-.607-.031v7.727c0,1.674.182,2.716.549,3.118a2.792,2.792,0,0,0,2.236.864h1.039v.727h-11.4v-.727h1a2.685,2.685,0,0,0,2.415-1.1,6.2,6.2,0,0,0,.412-2.884V7.078c0-1.67-.185-2.713-.549-3.118A2.893,2.893,0,0,0,77.487,3.1h-1V2.372h9.692a23.059,23.059,0,0,1,6.246.617,7.139,7.139,0,0,1,3.409,2.274,5.927,5.927,0,0,1,1.406,3.955,6.205,6.205,0,0,1-1.6,4.253,9.006,9.006,0,0,1-4.953,2.552L96.18,23.65a13.66,13.66,0,0,0,3.234,3.491,8.149,8.149,0,0,0,3.533,1.1ZM84.059,15.3q.37,0,.648.01c.182.007.333.01.449.01a8.637,8.637,0,0,0,5.738-1.65,5.265,5.265,0,0,0,1.931-4.195,5.494,5.494,0,0,0-1.557-4.051,5.6,5.6,0,0,0-4.133-1.561,17.436,17.436,0,0,0-3.076.374Z" transform="translate(185.843 5.764)" fill="#595959"/><path d="M103.128,20.492h-10.3l-1.8,4.2A6.6,6.6,0,0,0,90.363,27a1.346,1.346,0,0,0,.576,1.07,5.028,5.028,0,0,0,2.5.6V29.4H85.067v-.727a4.558,4.558,0,0,0,2.157-.761,12.035,12.035,0,0,0,2.216-3.824L98.793,2.194h.686l9.257,22.122a10.138,10.138,0,0,0,2.03,3.464,4.121,4.121,0,0,0,2.541.888V29.4h-10.5v-.727a3.9,3.9,0,0,0,2.147-.528,1.365,1.365,0,0,0,.562-1.1,8.173,8.173,0,0,0-.785-2.727Zm-.545-1.451L98.069,8.292l-4.63,10.749Z" transform="translate(206.692 5.332)" fill="#595959"/><path d="M28.336,16.425C23.919,27.115,10.467,32.373.01,32.682c-.034-1.633.038-3.262,0-5,10.859.151,20.441-3.56,26.783-11.912" transform="translate(0.001 38.326)" fill="#5084a5"/><path d="M15.348,11.58A12.8,12.8,0,1,1,7.714,27.994,12.8,12.8,0,0,1,15.348,11.58M1.053,30.426A17.243,17.243,0,1,0,11.339,8.318,17.242,17.242,0,0,0,1.053,30.426" transform="translate(0.007 17.657)" fill="#f7ddad"/><path d="M33.565,15.345A12.8,12.8,0,1,1,17.15,7.711a12.8,12.8,0,0,1,16.415,7.635M14.719,1.05A17.243,17.243,0,1,0,36.827,11.336,17.242,17.242,0,0,0,14.719,1.05" transform="translate(8.22 0.001)" fill="#8681c1"/><path d="M11.583,29.8A12.8,12.8,0,1,1,28,37.43,12.8,12.8,0,0,1,11.583,29.8m18.847,14.3A17.243,17.243,0,1,0,8.321,33.805,17.242,17.242,0,0,0,30.429,44.091" transform="translate(17.663 25.87)" fill="#f79a9a"/></g><g transform="translate(0.01 24.925)"><g clip-path="url(#b)"><path d="M11.583,29.8A12.8,12.8,0,1,1,28,37.43,12.8,12.8,0,0,1,11.583,29.8m18.847,14.3A17.243,17.243,0,1,0,8.321,33.805,17.242,17.242,0,0,0,30.429,44.091" transform="translate(17.653 0.945)" fill="#f7ddad"/></g></g><g clip-path="url(#a)"><path d="M29.8,33.562a12.8,12.8,0,1,1,7.635-16.415A12.8,12.8,0,0,1,29.8,33.562m14.3-18.847A17.243,17.243,0,1,0,33.807,36.824,17.242,17.242,0,0,0,44.093,14.716" transform="translate(25.874 8.213)" fill="#92c9e8"/></g><g transform="translate(36.525 11.594)"><g clip-path="url(#d)"><path d="M9.512,24.125A12.8,12.8,0,1,1,32.08,27l.991,2.188a17.243,17.243,0,1,0-28.638-6.03" transform="translate(-28.305 -11.593)" fill="#8681c1"/></g></g><g transform="translate(24.931 36.518)"><g clip-path="url(#e)"><path d="M29.8,33.562a12.8,12.8,0,1,1,7.635-16.415A12.8,12.8,0,0,1,29.8,33.562m14.3-18.847A17.243,17.243,0,1,0,33.807,36.824,17.242,17.242,0,0,0,44.093,14.716" transform="translate(0.943 -28.304)" fill="#f79a9a"/></g></g><g transform="translate(0.01 24.925)"><g clip-path="url(#f)"><path d="M36.827,11.336A17.243,17.243,0,1,0,14.458,33.348l1.681-2a12.8,12.8,0,1,1,17.427-16" transform="translate(8.21 -24.924)" fill="#f7ddad"/></g></g></svg>