<svg xmlns="http://www.w3.org/2000/svg" width="323.854" height="75.106" viewBox="0 0 323.854 75.106">
  <path id="パス_513" data-name="パス 513" d="M19.2,12.129a62.757,62.757,0,0,0,9.053-.9q4.395-.769,8.7-1.912,4.087-1.055,11.821-3.977T64.468-1.274a83.817,83.817,0,0,0,12.7-7.031,1.553,1.553,0,0,0,.33-.352q.242-.308.527-.725a3.465,3.465,0,0,0,.417-.791q.132-.374-.044-.527t-.857.066a12.113,12.113,0,0,0-2,.967A169.429,169.429,0,0,1,51.614,1.143,160.367,160.367,0,0,1,26.323,8.086,58.714,58.714,0,0,1,12.92,9.1,24.015,24.015,0,0,1,7.339,8.086,13.866,13.866,0,0,1,5.1,7.075,3.869,3.869,0,0,1,2.944,3.3,14.132,14.132,0,0,1,3.252.835,20.7,20.7,0,0,1,6.636-6.5a57.366,57.366,0,0,1,5.625-6.855,114.272,114.272,0,0,1,25.137-20,95.259,95.259,0,0,1,18.325-8.437,48.4,48.4,0,0,1,8.613-2.021,13.318,13.318,0,0,1,2.285-.154,8.281,8.281,0,0,1,2.285.374,2.411,2.411,0,0,1,.308.132l.352.088a1.562,1.562,0,0,1,.791.659,2.205,2.205,0,0,1,.352,1.011,11.887,11.887,0,0,1-1.494,5.054A31.318,31.318,0,0,1,65.3-31.2l-1.055,1.23q-.659.747-1.274,1.45a1.1,1.1,0,0,0,0,1.318,2.258,2.258,0,0,0,.659.835.787.787,0,0,0,.967.132l.176-.088a1.1,1.1,0,0,0,.439-.264,25.724,25.724,0,0,0,7.075-9.58,8.764,8.764,0,0,0,.571-1.89v-.176a6.592,6.592,0,0,0-1.978-6.46,7.456,7.456,0,0,0-5.1-2.153,25.5,25.5,0,0,0-4.219.264,52.7,52.7,0,0,0-7.075,1.626,63.253,63.253,0,0,0-6.812,2.5A108.655,108.655,0,0,0,18.545-24.478q-3.032,2.593-5.889,5.383a75.847,75.847,0,0,0-5.405,5.867A41.62,41.62,0,0,0,2.769-6.855a27.585,27.585,0,0,0-1.45,3.23A13.593,13.593,0,0,0,.527-.176,10.1,10.1,0,0,0,5.405,9.756a13.825,13.825,0,0,0,5.977,2.109q.835.088,1.626.176,1.626.22,3.186.308A11.366,11.366,0,0,0,19.2,12.129ZM88.638-9.932a5.96,5.96,0,0,1-1.494,2.285A1.529,1.529,0,0,1,85.21-7.6a.205.205,0,0,1-.11-.154,1.118,1.118,0,0,1-.022-.22.436.436,0,0,1,.044-.2A6.337,6.337,0,0,1,88.2-10.283a.6.6,0,0,1,.132.022.2.2,0,0,1,.132.11.287.287,0,0,1,.132.132A.127.127,0,0,0,88.638-9.932ZM83.057-11.6a.179.179,0,0,1,.044.132.2.2,0,0,0,.022.088.2.2,0,0,1,.022.088,4.908,4.908,0,0,0-.4.659q-.264.4-.527.835a2.329,2.329,0,0,0-.088,2.065,9.453,9.453,0,0,0,1.011,1.846,2.957,2.957,0,0,1,.681,1.45Q83.8-4,82.969-3.384a29.323,29.323,0,0,1-3.494,2.373A16.544,16.544,0,0,1,75.586.615q-.439.088-.835.132a.489.489,0,0,0-.22.044,1.025,1.025,0,0,1-.747-.374A1.008,1.008,0,0,1,73.477-.4a9.675,9.675,0,0,1,1.538-3.867,32.48,32.48,0,0,1,2.637-3.3q1.1-1.187,2.263-2.241a16.945,16.945,0,0,1,2.527-1.89.78.78,0,0,1,.352-.088.689.689,0,0,1,.176.132A.127.127,0,0,0,83.057-11.6Zm21.226,1.758A27.664,27.664,0,0,1,97.91-7.976a28.185,28.185,0,0,1-5.977.417.523.523,0,0,1-.352-.264.69.69,0,0,1-.088-.483,4.373,4.373,0,0,1,.132-.659q.176-.923.264-1.8a3.532,3.532,0,0,0-.505-1.824,3.1,3.1,0,0,0-1.428-1.274,2.955,2.955,0,0,0-2.109-.066l-.7.264a5.161,5.161,0,0,1-.615.22q-.659.264-1.055-.615a.39.39,0,0,1-.044-.176.337.337,0,0,1-.044-.132,1.785,1.785,0,0,0-1.033-1.077,1.89,1.89,0,0,0-1.3.066,10.446,10.446,0,0,0-2.241,1.055,25.433,25.433,0,0,0-7.6,7.295,15.968,15.968,0,0,0-1.582,3.164,5.8,5.8,0,0,0,1.1,5.977A3.97,3.97,0,0,0,76.86,3.516a16.13,16.13,0,0,0,4.263-1.67A28.788,28.788,0,0,0,87.8-3.34a2.757,2.757,0,0,1,1.846-.879q1.1-.088,3.45-.417T98.24-5.647a20.912,20.912,0,0,0,4.79-1.736A10.607,10.607,0,0,0,106.194-9.8Q107.358-11.162,104.282-9.844Zm-1.758,5.625a4.385,4.385,0,0,0,1.187,2.988A3.169,3.169,0,0,0,106.128.044a6.343,6.343,0,0,0,3.12-.527A54.325,54.325,0,0,0,114.3-3.252q1.978-1.23,3.955-2.241a.149.149,0,0,1,.11-.044.086.086,0,0,1,.088.066.6.6,0,0,1-.022.264,3.04,3.04,0,0,1-.22.571q-.176.374-.439.989-.22.439-.439.791a2.561,2.561,0,0,0-.417,1.165A2.577,2.577,0,0,0,117.6-.264a1.656,1.656,0,0,0,1.846.7A22.049,22.049,0,0,0,121.772-.4q7.515-3.12,14.81-6.768.571-.308,1.1-.615a.511.511,0,0,1,.132-.088,4.17,4.17,0,0,0,.483-.461,2.741,2.741,0,0,0,.483-.7q.176-.374-.044-.549t-1.1.088q-1.8.527-4.834,1.648T127.09-5.691q-2.681,1.033-3.472,1.384h-.088a3.766,3.766,0,0,1-.659.286q-.439.154-.879.264a.785.785,0,0,1-.593,0q-.154-.11.154-.593,1.055-1.45,2.109-3.164,1.011-1.626,2.021-3.076a2.164,2.164,0,0,0-.132-2.637,1.346,1.346,0,0,0-2.109-.352q-.835.659-1.626,1.362a63.34,63.34,0,0,1-10.5,7.163q-1.494.791-3.076,1.45-.571.22-1.1.483a2.519,2.519,0,0,1-1.055.22,1.788,1.788,0,0,1-.967-.176.516.516,0,0,1-.264-.439A.922.922,0,0,1,104.985-4a7.3,7.3,0,0,0,.4-.835,17.261,17.261,0,0,1,1.45-2.593,26.217,26.217,0,0,1,5.1-5.845.039.039,0,0,1,.044-.044,2.131,2.131,0,0,0,.659-.7,1.353,1.353,0,0,0,.088-.505.75.75,0,0,0-.132-.461q-1.055-1.89-2.549-.7A23.475,23.475,0,0,0,103.052-6.9,6.159,6.159,0,0,0,102.524-4.219Zm52.031-2.065a4.82,4.82,0,0,0-.176-2.725,4.225,4.225,0,0,0-1.956-2.439,3.887,3.887,0,0,0-3.01-.33,15.9,15.9,0,0,0-3.911,1.67q-1.23.7-2.417,1.45-1.23.747-2.417,1.494a10.2,10.2,0,0,1-1.274.615.337.337,0,0,1-.132-.044.511.511,0,0,1-.132-.088q-.044,0-.088-.066a1.075,1.075,0,0,1-.066-.11l-.022-.044a2.873,2.873,0,0,1,.176-.308,8.388,8.388,0,0,1,.7-1.23q.747-.967,1.252-1.648t.989-1.34l1.582-2.109a2.869,2.869,0,0,1,.264-.308,5.437,5.437,0,0,0,.857-1.428,1.626,1.626,0,0,0-.374-1.6,1.519,1.519,0,0,0-.9-.461.957.957,0,0,0-.9.2l-.439.439a1.535,1.535,0,0,0-.176.2q-.044.066-.11.154l-.2.264a2.674,2.674,0,0,0-.308.4q-4.834,6.372-9.58,12.744a23.457,23.457,0,0,0-1.758,2.681,2.516,2.516,0,0,0,.439,3.208,1.252,1.252,0,0,0,.769.461.99.99,0,0,0,.813-.11,2.309,2.309,0,0,1,.352-.22q1.274-.879,2.5-1.89a93.335,93.335,0,0,1,11.6-8.086A15.489,15.489,0,0,1,151-8.921a2.965,2.965,0,0,1,.352-.066,2.832,2.832,0,0,1,.352-.022q.132.088.286.2a.3.3,0,0,1,.154.242,2.142,2.142,0,0,1,0,1.055,12.208,12.208,0,0,1-.527,1.45q-.352.923-.615,1.89a3.321,3.321,0,0,0,.439,3.032,1.586,1.586,0,0,0,2.109.747q.923-.439,1.846-.923,8.306-5.8,10.591-7.8t1.055-1.8a11.9,11.9,0,0,0-3.23,1.208q-2,1.011-4.724,2.593T155.171-5.01a.42.42,0,0,1-.439-.088.541.541,0,0,1-.22-.439,3.2,3.2,0,0,1,.044-.527Zm-.835,14.941a.039.039,0,0,0-.044-.044l-.132-.066a.344.344,0,0,1-.088-.066V8.35a.179.179,0,0,1,.044-.132l.044-.044a1.406,1.406,0,0,1,.483-.439q2.153-1.274,4.351-2.549l1.934-1.143a.605.605,0,0,1,.352-.066.331.331,0,0,1,.264.2.547.547,0,0,1,0,.308q-.044.176-.088.308A8.617,8.617,0,0,1,156.8,7.954l-.264.088a9.294,9.294,0,0,1-1.34.505A3.752,3.752,0,0,1,153.721,8.657Zm-.088,2.944h.352a14.841,14.841,0,0,0,3.208-.439,10.571,10.571,0,0,0,4.438-2.439,12.626,12.626,0,0,0,2.9-4.2,16.317,16.317,0,0,0,.747-2.109q.088-.264.22-.571a1.745,1.745,0,0,1,.879-1.055q.308-.132.659-.308,1.187-.7,2.461-1.318,1.1-.527,4.746-2.307t7.251-3.625a34.612,34.612,0,0,0,4.482-2.549q.044-1.406-1.1-1.1a51.97,51.97,0,0,0-6.724,2.9q-2.856,1.406-5.493,2.5A14.4,14.4,0,0,1,168.486-3.8q-1.538.11-1.143-1.56a.974.974,0,0,0,.044-.308q.571-2.241,1.362-4.438a10.678,10.678,0,0,1,6.592-6.46,6.941,6.941,0,0,1,1.055-.264q.352-.088.659-.176a.613.613,0,0,0,.417-.461,1.116,1.116,0,0,0-.022-.725,2.154,2.154,0,0,0-1.011-.967,3.138,3.138,0,0,0-2.065-.176,10.465,10.465,0,0,0-6.943,5.1A18.715,18.715,0,0,0,165.5-9.316q-.791,2.9-1.406,5.845a5.124,5.124,0,0,1-.659,1.6A3.2,3.2,0,0,1,162.07-.747Q160.532,0,159.082.879a.337.337,0,0,0-.132.044q-.439.264-.923.527-2.9,1.67-5.757,3.472A24.211,24.211,0,0,0,149.5,7.075a1.7,1.7,0,0,0-.439,1.67,3.275,3.275,0,0,0,2.856,2.725q.571.088,1.187.132Zm43.682-28.081a17.284,17.284,0,0,0-7.646,2.373,24.662,24.662,0,0,0-4,2.856,16.2,16.2,0,0,0-1.582,1.538,6.538,6.538,0,0,0-2.241,4.7v.088a5.556,5.556,0,0,0,.879,2.9A5.246,5.246,0,0,0,184-.615,6.161,6.161,0,0,0,188.042.527h.132a20.731,20.731,0,0,0,3.779-.4,29.875,29.875,0,0,0,3.911-.967q2.461-.7,4.614-1.538a53.661,53.661,0,0,0,10.547-5.273,18.58,18.58,0,0,0,2.285-1.846v-.044a1.321,1.321,0,0,0-.044-.22.73.73,0,0,0-.747-.4,2.469,2.469,0,0,0-.483.044A37.664,37.664,0,0,0,207.554-8a70.04,70.04,0,0,1-11.206,4,48.424,48.424,0,0,1-9.4,1.67A8.976,8.976,0,0,1,185.1-2.5a1.156,1.156,0,0,1-.923-1.143,5.009,5.009,0,0,1,1.011-2.241q.352-.483,1.143-1.406a11.8,11.8,0,0,1,2.241-1.8h.132a4.361,4.361,0,0,0,2.2.483,16.737,16.737,0,0,0,3.3-.439,19.658,19.658,0,0,0,2.637-.879,21.8,21.8,0,0,0,2.813-1.494,2.147,2.147,0,0,0,.967-1.714v-.176a3.324,3.324,0,0,0-.791-1.934,3.73,3.73,0,0,0-1.187-.923A3.534,3.534,0,0,0,197.314-16.479Zm-6.5,5.537q0-.352,1.934-1.274A18.407,18.407,0,0,1,197.71-13.8q.308.044.308.132,0,.264-.7.835a11.968,11.968,0,0,1-2.109,1.011,15.775,15.775,0,0,1-4.131,1.011Q190.811-10.811,190.811-10.942ZM227.5-23.687q-.571.308-.264-.22a1.705,1.705,0,0,0,.088-.22,2.309,2.309,0,0,1,.22-.352,102.463,102.463,0,0,1,15.425-13.931,17.44,17.44,0,0,1,1.758-1.055q.308-.176.659-.352a.337.337,0,0,1,.132.044.511.511,0,0,1,.132.088.332.332,0,0,1,.132.11.214.214,0,0,1,.044.11,2.107,2.107,0,0,1-.352.615,105.36,105.36,0,0,1-17.622,15.073.473.473,0,0,1-.264.088ZM210.146,7.734a7.151,7.151,0,0,0,2.944-.483q.571-.264,1.187-.483a15.7,15.7,0,0,0,1.758-.7A68.727,68.727,0,0,0,231.24-4.219a.511.511,0,0,0,.132-.088q.483-.439,1.384-1.274t1.714-1.626a8.732,8.732,0,0,0,1.077-1.187.893.893,0,0,0,.264-.835.674.674,0,0,0-.681-.549,2.875,2.875,0,0,0-1.736.813q-4.482,3.56-8.877,6.482a83.145,83.145,0,0,1-9.624,5.471,37.712,37.712,0,0,1-4.219,1.758,3.4,3.4,0,0,1-1.538.088h-.22a.888.888,0,0,1-.286-.176.4.4,0,0,1-.154-.308,3.537,3.537,0,0,1,.088-1.362A27.234,27.234,0,0,1,211.025-2.9a92.541,92.541,0,0,1,5.889-8.833,7.934,7.934,0,0,1,2.021-1.934q6.021-4.087,11.909-8.306a118.98,118.98,0,0,0,16.128-13.8,34.643,34.643,0,0,0,4.131-4.878,2.863,2.863,0,0,0-.4-3.867,2,2,0,0,0-2.241-.615,19.142,19.142,0,0,0-3.867,1.758,65.715,65.715,0,0,0-9.4,6.9,128.611,128.611,0,0,0-9.448,9.075q-4.482,4.768-8.569,9.954l-.527.7a9.4,9.4,0,0,1-2.021,2.153,5.062,5.062,0,0,0-.417.374.834.834,0,0,0-.242.461,5.7,5.7,0,0,1-1.187,2.241l-.527.791-.791,1.23Q210.41-7.866,209.4-6.2a31.209,31.209,0,0,0-2.681,5.757,9.963,9.963,0,0,0-.615,3.472,5.222,5.222,0,0,0,.747,2.681A3.558,3.558,0,0,0,210.146,7.734ZM233.7,2.109a17.393,17.393,0,0,0,4.175-.967q2.856-.923,6.35-2.4t6.768-3.1A49.1,49.1,0,0,0,256.4-7.4q2.131-1.428,2.263-2.307a.348.348,0,0,0-.308-.374,1.651,1.651,0,0,0-.7.022q-.4.088-.7.176-1.538.7-3.867,1.846-3.032,1.494-6.9,3.208A65.587,65.587,0,0,1,238.14-1.89q-1.846.527-3.779.967a5.643,5.643,0,0,1-1.011.088h-.4a.541.541,0,0,1-.439-.22.524.524,0,0,1-.132-.439,11.85,11.85,0,0,1,1.362-2.725,28.087,28.087,0,0,1,1.8-2.373,1.746,1.746,0,0,0,.22-.264,90.243,90.243,0,0,1,6.152-6.812q1.143-1.23-.264-2.373a1.279,1.279,0,0,0-.681-.242,1.011,1.011,0,0,0-.637.154,1.44,1.44,0,0,0-.22.176,10.5,10.5,0,0,0-.923.659,54.832,54.832,0,0,0-7.119,7.866,21.152,21.152,0,0,0-1.67,2.725,6.555,6.555,0,0,0-.659,1.978,4.705,4.705,0,0,0,.286,2.241,4.3,4.3,0,0,0,1.34,1.846A3.582,3.582,0,0,0,233.7,2.109ZM247.676-21.4l.967-.527q1.45-.747,2.944-1.582a.4.4,0,0,0,.22-.22,1.717,1.717,0,0,0,.132-.352,1.6,1.6,0,0,0-.571-1.582,1.4,1.4,0,0,0-1.582-.4,8.125,8.125,0,0,0-3.164,2.153,1.272,1.272,0,0,0-.308,1.077,1.926,1.926,0,0,0,.571,1.121.992.992,0,0,0,.439.176A1.718,1.718,0,0,1,247.676-21.4ZM273.867-6.284a4.82,4.82,0,0,0-.176-2.725,4.225,4.225,0,0,0-1.956-2.439,3.887,3.887,0,0,0-3.01-.33,15.9,15.9,0,0,0-3.911,1.67q-1.23.7-2.417,1.45-1.23.747-2.417,1.494a10.2,10.2,0,0,1-1.274.615.337.337,0,0,1-.132-.044.511.511,0,0,1-.132-.088q-.044,0-.088-.066a1.075,1.075,0,0,1-.066-.11l-.022-.044a2.873,2.873,0,0,1,.176-.308,8.388,8.388,0,0,1,.7-1.23q.747-.967,1.252-1.648t.989-1.34l1.582-2.109a2.869,2.869,0,0,1,.264-.308,5.437,5.437,0,0,0,.857-1.428,1.626,1.626,0,0,0-.374-1.6,1.519,1.519,0,0,0-.9-.461.957.957,0,0,0-.9.2l-.439.439a1.535,1.535,0,0,0-.176.2q-.044.066-.11.154l-.2.264a2.674,2.674,0,0,0-.308.4Q255.85-9.316,251.1-2.944a23.457,23.457,0,0,0-1.758,2.681,2.516,2.516,0,0,0,.439,3.208,1.252,1.252,0,0,0,.769.461.99.99,0,0,0,.813-.11,2.309,2.309,0,0,1,.352-.22q1.274-.879,2.5-1.89a93.335,93.335,0,0,1,11.6-8.086,15.489,15.489,0,0,1,4.482-2.021,2.965,2.965,0,0,1,.352-.066,2.832,2.832,0,0,1,.352-.022q.132.088.286.2a.3.3,0,0,1,.154.242,2.142,2.142,0,0,1,0,1.055,12.208,12.208,0,0,1-.527,1.45q-.352.923-.615,1.89a3.321,3.321,0,0,0,.439,3.032,1.586,1.586,0,0,0,2.109.747q.923-.439,1.846-.923,8.306-5.8,10.591-7.8t1.055-1.8a11.9,11.9,0,0,0-3.23,1.208q-2,1.011-4.724,2.593T274.482-5.01a.42.42,0,0,1-.439-.088.541.541,0,0,1-.22-.439,3.2,3.2,0,0,1,.044-.527ZM278.745,24.3l-.132.088a5.08,5.08,0,0,1-.527.33q-.352.2-.7.374a1.764,1.764,0,0,1-.571.2q-.22.022-.22-.242a2.992,2.992,0,0,1,.352-.791q.264-.439.527-.835.132-.176.22-.308a31.453,31.453,0,0,1,4.614-5.383,62.106,62.106,0,0,1,5.845-4.878q3.076-2.263,5.889-3.977.044-.044-.176.264t-.527.7q-.308.4-.571.769t-.4.549q-.4.483-.791,1.011-1.055,1.406-2.2,2.769a52.983,52.983,0,0,1-7.6,7.339A22.737,22.737,0,0,1,278.745,24.3Zm14.766-40.957a22.043,22.043,0,0,0-11.6,9.888,8.465,8.465,0,0,0-.923,3.516,2.23,2.23,0,0,0,.176,1.055,8.426,8.426,0,0,0,1.67,2.944,4.112,4.112,0,0,0,2.329,1.274,8.023,8.023,0,0,0,4.438-.439.179.179,0,0,0,.132-.044A30.525,30.525,0,0,0,294.39-.571Q297.114-2.2,299.707-4q1.055-.659,2.065-1.318.439-.308.835-.571l.791-.527a.179.179,0,0,1,.132-.044.39.39,0,0,1,.176.044q.527.132.264.527l-.527.791q-1.758,2.944-3.472,5.845a6.53,6.53,0,0,1-2.593,2.373q-4.526,2.637-8.921,5.405a57.288,57.288,0,0,0-9.185,7.163,37.047,37.047,0,0,0-3.6,4.087A13.813,13.813,0,0,0,274,22.9a3.911,3.911,0,0,0-.242.989,2.211,2.211,0,0,0,.11,1.033,5.335,5.335,0,0,0,1.648,2.593,3.341,3.341,0,0,0,2.7.7,8.656,8.656,0,0,0,1.934-.571,20.744,20.744,0,0,0,4.438-2.725,53.585,53.585,0,0,0,6.987-6.636,104.409,104.409,0,0,0,9.229-12,6.2,6.2,0,0,1,2.856-2.549q.659-.308,1.274-.659.352-.22.747-.439.308-.176,1.494-.747Q309.683.7,313.572-1.6t7.053-4.636q3.164-2.329,3.691-3.428.176-.923-1.362-.879Q312.275-4.131,310.3-3.208q-1.274.571-1.758.791a9.867,9.867,0,0,1-1.406.439q-.22.088-.483.176-.4.088-.308-.264l.088-.264a8.741,8.741,0,0,1,.4-.923,108.166,108.166,0,0,0,5.537-10.283,6.11,6.11,0,0,0,.571-1.538,1.2,1.2,0,0,0-.022-.505,1.733,1.733,0,0,0-.2-.505A9.885,9.885,0,0,0,311.4-17.49a1.036,1.036,0,0,0-.681-.33.877.877,0,0,0-.637.2q-.791.747-1.582,1.582a82.873,82.873,0,0,1-7.625,6.9,61.476,61.476,0,0,1-8.635,5.757q-2.2,1.143-4.482,2.065a.337.337,0,0,1-.132.044,8.007,8.007,0,0,1-1.648.527,3.45,3.45,0,0,1-1.912-.22,2.344,2.344,0,0,1-.286-1.56,4.676,4.676,0,0,1,.505-1.3q.22-.483.4-.923a1.705,1.705,0,0,1,.088-.22.127.127,0,0,0,.044-.088,22.608,22.608,0,0,1,9.272-8.35,9.018,9.018,0,0,1,2.153-.791,9.847,9.847,0,0,1,2.922-.264,6.381,6.381,0,0,1,3.01,1.055.511.511,0,0,0,.132.088l.132.066a.072.072,0,0,0,.088-.022l.044-.044a.836.836,0,0,0,.154-.22.518.518,0,0,0,.066-.22,2.492,2.492,0,0,0-.483-1.011,7.42,7.42,0,0,0-4.658-2.329A8.146,8.146,0,0,0,293.511-16.655Z" transform="translate(-0.48 46.851)" fill="#79c9bc"/>
</svg>
