<svg xmlns="http://www.w3.org/2000/svg" width="616.37" height="67.05" viewBox="0 0 616.37 67.05">
  <path id="パス_514" data-name="パス 514" d="M19.2,12.129a62.757,62.757,0,0,0,9.053-.9q4.395-.769,8.7-1.912,4.087-1.055,11.821-3.977T64.468-1.274a83.817,83.817,0,0,0,12.7-7.031,1.553,1.553,0,0,0,.33-.352q.242-.308.527-.725a3.465,3.465,0,0,0,.417-.791q.132-.374-.044-.527t-.857.066a12.113,12.113,0,0,0-2,.967A169.429,169.429,0,0,1,51.614,1.143,160.367,160.367,0,0,1,26.323,8.086,58.714,58.714,0,0,1,12.92,9.1,24.015,24.015,0,0,1,7.339,8.086,13.866,13.866,0,0,1,5.1,7.075,3.869,3.869,0,0,1,2.944,3.3,14.132,14.132,0,0,1,3.252.835,20.7,20.7,0,0,1,6.636-6.5a57.366,57.366,0,0,1,5.625-6.855,114.272,114.272,0,0,1,25.137-20,95.259,95.259,0,0,1,18.325-8.437,48.4,48.4,0,0,1,8.613-2.021,13.318,13.318,0,0,1,2.285-.154,8.281,8.281,0,0,1,2.285.374,2.411,2.411,0,0,1,.308.132l.352.088a1.562,1.562,0,0,1,.791.659,2.205,2.205,0,0,1,.352,1.011,11.887,11.887,0,0,1-1.494,5.054A31.318,31.318,0,0,1,65.3-31.2l-1.055,1.23q-.659.747-1.274,1.45a1.1,1.1,0,0,0,0,1.318,2.258,2.258,0,0,0,.659.835.787.787,0,0,0,.967.132l.176-.088a1.1,1.1,0,0,0,.439-.264,25.724,25.724,0,0,0,7.075-9.58,8.764,8.764,0,0,0,.571-1.89v-.176a6.592,6.592,0,0,0-1.978-6.46,7.456,7.456,0,0,0-5.1-2.153,25.5,25.5,0,0,0-4.219.264,52.7,52.7,0,0,0-7.075,1.626,63.253,63.253,0,0,0-6.812,2.5A108.655,108.655,0,0,0,18.545-24.478q-3.032,2.593-5.889,5.383a75.847,75.847,0,0,0-5.405,5.867A41.62,41.62,0,0,0,2.769-6.855a27.585,27.585,0,0,0-1.45,3.23A13.593,13.593,0,0,0,.527-.176,10.1,10.1,0,0,0,5.405,9.756a13.825,13.825,0,0,0,5.977,2.109q.835.088,1.626.176,1.626.22,3.186.308A11.366,11.366,0,0,0,19.2,12.129ZM88.638-9.932a5.96,5.96,0,0,1-1.494,2.285A1.529,1.529,0,0,1,85.21-7.6a.205.205,0,0,1-.11-.154,1.118,1.118,0,0,1-.022-.22.436.436,0,0,1,.044-.2A6.337,6.337,0,0,1,88.2-10.283a.6.6,0,0,1,.132.022.2.2,0,0,1,.132.11.287.287,0,0,1,.132.132A.127.127,0,0,0,88.638-9.932ZM83.057-11.6a.179.179,0,0,1,.044.132.2.2,0,0,0,.022.088.2.2,0,0,1,.022.088,4.908,4.908,0,0,0-.4.659q-.264.4-.527.835a2.329,2.329,0,0,0-.088,2.065,9.453,9.453,0,0,0,1.011,1.846,2.957,2.957,0,0,1,.681,1.45Q83.8-4,82.969-3.384a29.323,29.323,0,0,1-3.494,2.373A16.544,16.544,0,0,1,75.586.615q-.439.088-.835.132a.489.489,0,0,0-.22.044,1.025,1.025,0,0,1-.747-.374A1.008,1.008,0,0,1,73.477-.4a9.675,9.675,0,0,1,1.538-3.867,32.48,32.48,0,0,1,2.637-3.3q1.1-1.187,2.263-2.241a16.945,16.945,0,0,1,2.527-1.89.78.78,0,0,1,.352-.088.689.689,0,0,1,.176.132A.127.127,0,0,0,83.057-11.6Zm21.226,1.758A27.664,27.664,0,0,1,97.91-7.976a28.185,28.185,0,0,1-5.977.417.523.523,0,0,1-.352-.264.69.69,0,0,1-.088-.483,4.373,4.373,0,0,1,.132-.659q.176-.923.264-1.8a3.532,3.532,0,0,0-.505-1.824,3.1,3.1,0,0,0-1.428-1.274,2.955,2.955,0,0,0-2.109-.066l-.7.264a5.161,5.161,0,0,1-.615.22q-.659.264-1.055-.615a.39.39,0,0,1-.044-.176.337.337,0,0,1-.044-.132,1.785,1.785,0,0,0-1.033-1.077,1.89,1.89,0,0,0-1.3.066,10.446,10.446,0,0,0-2.241,1.055,25.433,25.433,0,0,0-7.6,7.295,15.968,15.968,0,0,0-1.582,3.164,5.8,5.8,0,0,0,1.1,5.977A3.97,3.97,0,0,0,76.86,3.516a16.13,16.13,0,0,0,4.263-1.67A28.788,28.788,0,0,0,87.8-3.34a2.757,2.757,0,0,1,1.846-.879q1.1-.088,3.45-.417T98.24-5.647a20.912,20.912,0,0,0,4.79-1.736A10.607,10.607,0,0,0,106.194-9.8Q107.358-11.162,104.282-9.844Zm14.634,1.23a6.444,6.444,0,0,1-.044-.7,5.193,5.193,0,0,0-.088-1.011,3.722,3.722,0,0,0-1.538-2.153,3.026,3.026,0,0,0-2.593-.264,11.115,11.115,0,0,0-1.626.659q-1.055.615-2.109,1.187-.571.352-1.143.659a.449.449,0,0,1-.659-.176.6.6,0,0,1,.022-.132.859.859,0,0,1,.066-.176q.527-.791,1.1-1.582l1.758-2.637a1.521,1.521,0,0,0-.527-2.153,1.2,1.2,0,0,0-.725-.264.8.8,0,0,0-.593.22,1.44,1.44,0,0,1-.22.176q-.483.527-.923,1.1Q104.458-9.756,99.8-3.6L97.6-.615a1.935,1.935,0,0,0,.176,2.329,1.619,1.619,0,0,0,.9.7,1.029,1.029,0,0,0,.945-.22q.483-.483,1.011-.923.352-.352.747-.7A85.8,85.8,0,0,1,112.456-8a12.526,12.526,0,0,1,1.758-.923q.308-.132.659-.308A.131.131,0,0,1,115-9.25a.859.859,0,0,1,.176.066q.439.176.22.571a23.293,23.293,0,0,1-2.461,4.087l-.791,1.143-.615.879q-.571.835-1.1,1.626a1.474,1.474,0,0,0,.176,1.67,6.875,6.875,0,0,0,.659.879,1.355,1.355,0,0,0,.659.286.887.887,0,0,0,.659-.11l1.055-.879A69.816,69.816,0,0,1,122.783-6.2a29.869,29.869,0,0,1,2.988-1.67,1.668,1.668,0,0,1,.483-.11,1.309,1.309,0,0,1,.527.066.422.422,0,0,1,.264.4,1.659,1.659,0,0,1-.088.527q-.088.4-.176.835-.308,1.1-.527,2.2a3.931,3.931,0,0,0,.527,2.769A2.447,2.447,0,0,0,129.771.176a18.109,18.109,0,0,0,3.164-1.626q2.021-1.23,4.153-2.834a26.833,26.833,0,0,0,3.538-3.12q1.406-1.516,1.274-2.4-.088-.4-.4-.4a1.487,1.487,0,0,0-.7.22q-.4.22-.747.439l-.264.176q-.747.439-2.2,1.494t-3.076,2.153a23.528,23.528,0,0,1-3.01,1.758,3.046,3.046,0,0,1-2.043.439.454.454,0,0,1-.242-.352,1.479,1.479,0,0,1,.022-.439.39.39,0,0,0,.044-.176,5.929,5.929,0,0,1,.132-.7,10.868,10.868,0,0,0,.22-1.67,4.357,4.357,0,0,0-1.846-3.779,2.6,2.6,0,0,0-2.681-.483q-1.582.659-3.12,1.45-.659.352-1.318.791l-.7.439a.511.511,0,0,0-.132.088,1.312,1.312,0,0,1-.374.2.434.434,0,0,1-.417-.11,1.437,1.437,0,0,0-.088-.154.214.214,0,0,1-.044-.11v-.088Zm36.475,0a6.444,6.444,0,0,1-.044-.7,5.193,5.193,0,0,0-.088-1.011,3.722,3.722,0,0,0-1.538-2.153,3.026,3.026,0,0,0-2.593-.264,11.115,11.115,0,0,0-1.626.659q-1.055.615-2.109,1.187-.571.352-1.143.659a.449.449,0,0,1-.659-.176.6.6,0,0,1,.022-.132.859.859,0,0,1,.066-.176q.527-.791,1.1-1.582l1.758-2.637a1.521,1.521,0,0,0-.527-2.153,1.2,1.2,0,0,0-.725-.264.8.8,0,0,0-.593.22,1.44,1.44,0,0,1-.22.176q-.483.527-.923,1.1Q140.933-9.756,136.274-3.6l-2.2,2.988a1.935,1.935,0,0,0,.176,2.329,1.619,1.619,0,0,0,.9.7,1.029,1.029,0,0,0,.945-.22q.483-.483,1.011-.923.352-.352.747-.7A85.8,85.8,0,0,1,148.931-8a12.526,12.526,0,0,1,1.758-.923q.308-.132.659-.308a.131.131,0,0,1,.132-.022.859.859,0,0,1,.176.066q.439.176.22.571a23.293,23.293,0,0,1-2.461,4.087l-.791,1.143-.615.879q-.571.835-1.1,1.626a1.474,1.474,0,0,0,.176,1.67,6.875,6.875,0,0,0,.659.879,1.355,1.355,0,0,0,.659.286.887.887,0,0,0,.659-.11l1.055-.879A69.816,69.816,0,0,1,159.258-6.2a29.869,29.869,0,0,1,2.988-1.67,1.668,1.668,0,0,1,.483-.11,1.309,1.309,0,0,1,.527.066.422.422,0,0,1,.264.4,1.659,1.659,0,0,1-.088.527q-.088.4-.176.835-.308,1.1-.527,2.2a3.931,3.931,0,0,0,.527,2.769A2.447,2.447,0,0,0,166.245.176a18.109,18.109,0,0,0,3.164-1.626q2.021-1.23,4.153-2.834A26.833,26.833,0,0,0,177.1-7.4q1.406-1.516,1.274-2.4-.088-.4-.4-.4a1.487,1.487,0,0,0-.7.22q-.4.22-.747.439l-.264.176q-.747.439-2.2,1.494t-3.076,2.153a23.528,23.528,0,0,1-3.01,1.758,3.046,3.046,0,0,1-2.043.439.454.454,0,0,1-.242-.352,1.479,1.479,0,0,1,.022-.439.39.39,0,0,0,.044-.176,5.929,5.929,0,0,1,.132-.7,10.868,10.868,0,0,0,.22-1.67,4.357,4.357,0,0,0-1.846-3.779,2.6,2.6,0,0,0-2.681-.483q-1.582.659-3.12,1.45-.659.352-1.318.791l-.7.439a.511.511,0,0,0-.132.088,1.312,1.312,0,0,1-.374.2.434.434,0,0,1-.417-.11,1.437,1.437,0,0,0-.088-.154.214.214,0,0,1-.044-.11v-.088Zm34.541-7.866a17.284,17.284,0,0,0-7.646,2.373,24.662,24.662,0,0,0-4,2.856A16.2,16.2,0,0,0,176.7-9.712a6.538,6.538,0,0,0-2.241,4.7v.088a5.556,5.556,0,0,0,.879,2.9,5.246,5.246,0,0,0,1.274,1.406A6.161,6.161,0,0,0,180.659.527h.132a20.731,20.731,0,0,0,3.779-.4,29.875,29.875,0,0,0,3.911-.967q2.461-.7,4.614-1.538a53.661,53.661,0,0,0,10.547-5.273,18.58,18.58,0,0,0,2.285-1.846v-.044a1.321,1.321,0,0,0-.044-.22.73.73,0,0,0-.747-.4,2.469,2.469,0,0,0-.483.044A37.664,37.664,0,0,0,200.171-8a70.04,70.04,0,0,1-11.206,4,48.424,48.424,0,0,1-9.4,1.67,8.976,8.976,0,0,1-1.846-.176,1.156,1.156,0,0,1-.923-1.143A5.009,5.009,0,0,1,177.8-5.889q.352-.483,1.143-1.406a11.8,11.8,0,0,1,2.241-1.8h.132a4.361,4.361,0,0,0,2.2.483,16.737,16.737,0,0,0,3.3-.439,19.658,19.658,0,0,0,2.637-.879,21.8,21.8,0,0,0,2.813-1.494,2.147,2.147,0,0,0,.967-1.714v-.176a3.324,3.324,0,0,0-.791-1.934,3.73,3.73,0,0,0-1.187-.923A3.534,3.534,0,0,0,189.932-16.479Zm-6.5,5.537q0-.352,1.934-1.274a18.407,18.407,0,0,1,4.966-1.582q.308.044.308.132,0,.264-.7.835a11.968,11.968,0,0,1-2.109,1.011,15.775,15.775,0,0,1-4.131,1.011Q183.428-10.811,183.428-10.942Zm35.464,2.329a6.444,6.444,0,0,1-.044-.7,5.193,5.193,0,0,0-.088-1.011,3.722,3.722,0,0,0-1.538-2.153,3.026,3.026,0,0,0-2.593-.264,11.115,11.115,0,0,0-1.626.659q-1.055.615-2.109,1.187-.571.352-1.143.659a.449.449,0,0,1-.659-.176.6.6,0,0,1,.022-.132.859.859,0,0,1,.066-.176q.527-.791,1.1-1.582l1.758-2.637a1.521,1.521,0,0,0-.527-2.153,1.2,1.2,0,0,0-.725-.264.8.8,0,0,0-.593.22,1.44,1.44,0,0,1-.22.176q-.483.527-.923,1.1Q204.434-9.756,199.775-3.6l-2.2,2.988a1.935,1.935,0,0,0,.176,2.329,1.619,1.619,0,0,0,.9.7,1.029,1.029,0,0,0,.945-.22q.483-.483,1.011-.923.352-.352.747-.7A85.8,85.8,0,0,1,212.432-8a12.526,12.526,0,0,1,1.758-.923q.308-.132.659-.308a.131.131,0,0,1,.132-.022.859.859,0,0,1,.176.066q.439.176.22.571a23.293,23.293,0,0,1-2.461,4.087l-.791,1.143-.615.879q-.571.835-1.1,1.626a1.474,1.474,0,0,0,.176,1.67,6.875,6.875,0,0,0,.659.879,1.355,1.355,0,0,0,.659.286.887.887,0,0,0,.659-.11l1.055-.879A69.816,69.816,0,0,1,222.759-6.2a29.869,29.869,0,0,1,2.988-1.67,1.668,1.668,0,0,1,.483-.11,1.309,1.309,0,0,1,.527.066.422.422,0,0,1,.264.4,1.659,1.659,0,0,1-.088.527q-.088.4-.176.835-.308,1.1-.527,2.2a3.931,3.931,0,0,0,.527,2.769A2.447,2.447,0,0,0,229.746.176,18.109,18.109,0,0,0,232.91-1.45q2.021-1.23,4.153-2.834A26.833,26.833,0,0,0,240.6-7.4q1.406-1.516,1.274-2.4-.088-.4-.4-.4a1.487,1.487,0,0,0-.7.22q-.4.22-.747.439l-.264.176q-.747.439-2.2,1.494t-3.076,2.153a23.528,23.528,0,0,1-3.01,1.758,3.046,3.046,0,0,1-2.043.439.454.454,0,0,1-.242-.352,1.479,1.479,0,0,1,.022-.439.39.39,0,0,0,.044-.176,5.929,5.929,0,0,1,.132-.7,10.868,10.868,0,0,0,.22-1.67,4.357,4.357,0,0,0-1.846-3.779,2.6,2.6,0,0,0-2.681-.483q-1.582.659-3.12,1.45-.659.352-1.318.791l-.7.439a.511.511,0,0,0-.132.088,1.312,1.312,0,0,1-.374.2.434.434,0,0,1-.417-.11,1.437,1.437,0,0,0-.088-.154.214.214,0,0,1-.044-.11v-.088Zm34.321-1.318a5.96,5.96,0,0,1-1.494,2.285,1.529,1.529,0,0,1-1.934.044.205.205,0,0,1-.11-.154,1.118,1.118,0,0,1-.022-.22.436.436,0,0,1,.044-.2,6.337,6.337,0,0,1,3.076-2.109.6.6,0,0,1,.132.022.2.2,0,0,1,.132.11.287.287,0,0,1,.132.132A.127.127,0,0,0,253.213-9.932Zm-5.581-1.67a.179.179,0,0,1,.044.132.2.2,0,0,0,.022.088.2.2,0,0,1,.022.088,4.908,4.908,0,0,0-.4.659q-.264.4-.527.835a2.329,2.329,0,0,0-.088,2.065,9.453,9.453,0,0,0,1.011,1.846,2.957,2.957,0,0,1,.681,1.45q-.022.439-.857,1.055a29.323,29.323,0,0,1-3.494,2.373A16.544,16.544,0,0,1,240.161.615q-.439.088-.835.132a.489.489,0,0,0-.22.044,1.025,1.025,0,0,1-.747-.374,1.008,1.008,0,0,1-.308-.813,9.675,9.675,0,0,1,1.538-3.867,32.48,32.48,0,0,1,2.637-3.3q1.1-1.187,2.263-2.241a16.945,16.945,0,0,1,2.527-1.89.78.78,0,0,1,.352-.088.689.689,0,0,1,.176.132A.127.127,0,0,0,247.632-11.6Zm21.226,1.758a27.664,27.664,0,0,1-6.372,1.868,28.185,28.185,0,0,1-5.977.417.523.523,0,0,1-.352-.264.69.69,0,0,1-.088-.483,4.373,4.373,0,0,1,.132-.659q.176-.923.264-1.8a3.532,3.532,0,0,0-.505-1.824,3.1,3.1,0,0,0-1.428-1.274,2.955,2.955,0,0,0-2.109-.066l-.7.264a5.161,5.161,0,0,1-.615.22q-.659.264-1.055-.615a.39.39,0,0,1-.044-.176.337.337,0,0,1-.044-.132,1.785,1.785,0,0,0-1.033-1.077,1.89,1.89,0,0,0-1.3.066,10.446,10.446,0,0,0-2.241,1.055,25.433,25.433,0,0,0-7.6,7.295,15.968,15.968,0,0,0-1.582,3.164,5.8,5.8,0,0,0,1.1,5.977,3.97,3.97,0,0,0,4.131,1.406,16.13,16.13,0,0,0,4.263-1.67,28.788,28.788,0,0,0,6.68-5.186,2.757,2.757,0,0,1,1.846-.879q1.1-.088,3.45-.417t5.142-1.011a20.912,20.912,0,0,0,4.79-1.736A10.607,10.607,0,0,0,270.769-9.8Q271.934-11.162,268.857-9.844Zm3.735,1.187q-.4.088-.176-.264.352-.571.747-1.143.308-.527.615-1.011.4-.659.835-1.274l2.109-3.428a1.461,1.461,0,0,0,.132-1.252,2.084,2.084,0,0,0-.923-1.077.7.7,0,0,0-.308-.11.7.7,0,0,0-.308.022,2.69,2.69,0,0,0-.747.659Q268.2-8.745,261.826.088a8.594,8.594,0,0,0-1.055,1.626,1.906,1.906,0,0,0,.4,2.2,1.729,1.729,0,0,0,.9.615.988.988,0,0,0,.9-.176q1.318-1.187,2.593-2.417A116.224,116.224,0,0,1,280.239-9.888a4.543,4.543,0,0,1,.835-.439,2.412,2.412,0,0,1,.308-.132q.352-.132.264.22l-.264.7-.352,1.143a1.713,1.713,0,0,0-.044,1.011,5.491,5.491,0,0,0,.681,1.56,3.69,3.69,0,0,0,1.3,1.208,2.233,2.233,0,0,0,1.1.176h.176a.425.425,0,0,0,.4-.242.522.522,0,0,0,.044-.461l-.088-.176a1.749,1.749,0,0,0-.264-.439,1.4,1.4,0,0,1-.264-2.065q1.011-1.406,1.978-2.856l.615-.879a1.173,1.173,0,0,0,.22-.308q.352-.483.7-1.055a2.077,2.077,0,0,0,.044-1.626,2.757,2.757,0,0,0-1.34-1.538,2.187,2.187,0,0,0-1.912,0,.39.39,0,0,1-.176.044q-.967.439-1.89.967-3.252,2.109-6.5,4.307-.879.615-1.758,1.274L272.9-8.7q0,.044-.066.044h-.242ZM305.771,3.12a4.722,4.722,0,0,0,1.494-.154q.747-.2,1.45-.417A.127.127,0,0,0,308.8,2.5a27.034,27.034,0,0,0,2.747-1.3q2-1.033,4.46-2.483t4.7-3.01a23.94,23.94,0,0,0,3.494-2.856q1.252-1.3.813-2.043a.808.808,0,0,0-.527-.242,3.587,3.587,0,0,0-.791-.044,1.559,1.559,0,0,0-.571.11,29.977,29.977,0,0,1-3.164,2.7,35.111,35.111,0,0,1-5.8,3.472,45.485,45.485,0,0,1-8.7,3.1.476.476,0,0,1-.439-.132.546.546,0,0,1-.176-.4,5.684,5.684,0,0,1,.571-1.56A12.287,12.287,0,0,1,306.3-3.56a.179.179,0,0,1,.044-.132,46.527,46.527,0,0,1,6.5-8.042,4.8,4.8,0,0,1,.352-.4q.483-.439.967-.967a1.083,1.083,0,0,0,.088-1.187,2.969,2.969,0,0,0-1.1-1.45.9.9,0,0,0-.593-.22.851.851,0,0,0-.549.176q-.615.483-1.187,1.011a47.631,47.631,0,0,1-7.119,5.427,61.5,61.5,0,0,1-7.91,4.153,28.018,28.018,0,0,1-3.823,1.318,4.88,4.88,0,0,1-.593.088,4.4,4.4,0,0,1-.879,0,1.787,1.787,0,0,1-.725-.2q-.264-.154-.132-.505a13.381,13.381,0,0,1,3.318-3.933,20.361,20.361,0,0,1,4.5-2.747,37.023,37.023,0,0,1,4.922-1.8A11.569,11.569,0,0,1,305-13.425a8.944,8.944,0,0,1,1.736.11,8.627,8.627,0,0,0,1.582.132.8.8,0,0,0,.308-.483,1.536,1.536,0,0,0-.022-.923,1.991,1.991,0,0,0-.857-1.011,6.028,6.028,0,0,0-2.615-1.121,7.868,7.868,0,0,0-2.922.066,21.816,21.816,0,0,0-7.163,2.593,23.755,23.755,0,0,0-5.889,4.878,9.181,9.181,0,0,0-1.406,2.065,4.085,4.085,0,0,0-.264,2.637,4.54,4.54,0,0,0,1.318,2.329,3.6,3.6,0,0,0,2.461,1.011,10.5,10.5,0,0,0,3.691-.483,39.619,39.619,0,0,0,5.493-2.329l1.846-.791a.39.39,0,0,1,.176-.044q.044-.044.11,0a1.436,1.436,0,0,0,.154.088.72.72,0,0,1,.088.11.214.214,0,0,1,.044.11q-.132.439-.308.923a11.865,11.865,0,0,0-.439,1.45,4.189,4.189,0,0,0,.22,2.593,4.405,4.405,0,0,0,1.626,2.065A3,3,0,0,0,305.771,3.12ZM331-26.587v-.044h4.966a.361.361,0,0,1,.11.022.853.853,0,0,1,.11.044.07.07,0,0,1,.044.066.127.127,0,0,0,.044.088v.33a.548.548,0,0,1-.044.242l-1.318,1.582a.127.127,0,0,0-.088.044q-1.23,1.406-2.5,2.856-2.812,3.032-5.493,6.152-2.5,2.988-4.746,6.152a27.315,27.315,0,0,0-1.67,2.813l-.439.879a5.714,5.714,0,0,0-.615,2.769,4.38,4.38,0,0,0,1.23,3.208,3.1,3.1,0,0,0,2.153,1.055,9.456,9.456,0,0,0,3.516-.308q1.538-.483,3.032-1.011A49.271,49.271,0,0,0,337.148-3.3a58.269,58.269,0,0,0,7.163-4.878.511.511,0,0,1,.132-.088,3.382,3.382,0,0,0,.527-.417,2.532,2.532,0,0,0,.483-.593.4.4,0,0,0-.044-.527q-.176-.176-.835-.022a5.72,5.72,0,0,0-1.45.593,64.243,64.243,0,0,1-6.46,3.318q-3.911,1.78-7.8,3.12a33.137,33.137,0,0,1-6.35,1.648.794.794,0,0,1-.637-.286.536.536,0,0,1-.11-.593q.22-.483.439-.923a17.407,17.407,0,0,1,1.318-2.549,62.023,62.023,0,0,1,4.175-5.713q4.131-4.79,8.35-9.492.615-.7,1.274-1.406,1.23-1.362,2.5-2.681.7-.7,1.406-1.45a2.846,2.846,0,0,1,2.2-.967l2.021-.088,1.494-.088,3.252-.088q2.637-.044,5.273-.132a3.889,3.889,0,0,0,1.011-.22.733.733,0,0,0,.154-.286,1.084,1.084,0,0,0,.066-.33,2.3,2.3,0,0,0-1.8-1.538,8.844,8.844,0,0,0-1.758-.088q-1.538.044-3.076.132l-1.89.088h-.132q-1.011.044-1.978,0a.413.413,0,0,1-.264-.11,1.133,1.133,0,0,1-.22-.242.248.248,0,0,1-.022-.176.859.859,0,0,1,.066-.176,1.746,1.746,0,0,1,.22-.264,6.271,6.271,0,0,1,.923-1.055q3.779-3.56,7.559-7.075,1.011-.923,2.021-1.89l.615-.527q.615-.571,1.187-1.143a1.17,1.17,0,0,0,.22-1.318,1.523,1.523,0,0,0-.879-.9,1.126,1.126,0,0,0-1.1.2q-.879.615-1.714,1.274Q348.4-38.057,342.6-32.3l-.527.527q-.747.747-1.494,1.45a2.323,2.323,0,0,1-1.582.7,4.345,4.345,0,0,1-.615.044h-.791q-1.274.088-2.549.132-4.57.176-9.141.4a5.945,5.945,0,0,0-1.406.264q-.132.044-.308.088-.352.088-.264.571a1.542,1.542,0,0,0,1.406,1.362q2.021.132,4.087.176Zm12.656,28.7a17.393,17.393,0,0,0,4.175-.967q2.856-.923,6.35-2.4t6.768-3.1A49.1,49.1,0,0,0,366.35-7.4q2.131-1.428,2.263-2.307a.348.348,0,0,0-.308-.374,1.651,1.651,0,0,0-.7.022q-.4.088-.7.176-1.538.7-3.867,1.846-3.032,1.494-6.9,3.208a65.587,65.587,0,0,1-8.042,2.944q-1.846.527-3.779.967a5.643,5.643,0,0,1-1.011.088h-.4a.541.541,0,0,1-.439-.22.524.524,0,0,1-.132-.439A11.85,11.85,0,0,1,343.7-4.219a28.087,28.087,0,0,1,1.8-2.373,1.746,1.746,0,0,0,.22-.264,90.243,90.243,0,0,1,6.152-6.812q1.143-1.23-.264-2.373a1.279,1.279,0,0,0-.681-.242,1.011,1.011,0,0,0-.637.154,1.44,1.44,0,0,0-.22.176,10.5,10.5,0,0,0-.923.659,54.832,54.832,0,0,0-7.119,7.866,21.152,21.152,0,0,0-1.67,2.725,6.555,6.555,0,0,0-.659,1.978,4.705,4.705,0,0,0,.286,2.241,4.3,4.3,0,0,0,1.34,1.846A3.582,3.582,0,0,0,343.652,2.109ZM357.627-21.4l.967-.527q1.45-.747,2.944-1.582a.4.4,0,0,0,.22-.22,1.717,1.717,0,0,0,.132-.352,1.6,1.6,0,0,0-.571-1.582,1.4,1.4,0,0,0-1.582-.4,8.125,8.125,0,0,0-3.164,2.153,1.272,1.272,0,0,0-.308,1.077,1.926,1.926,0,0,0,.571,1.121.992.992,0,0,0,.439.176A1.718,1.718,0,0,1,357.627-21.4Zm6.46,23.73a3.755,3.755,0,0,0,2.241-.659q.352-.22.659-.439,2.373-1.45,4.7-2.988a100.261,100.261,0,0,0,13.1-10.811.651.651,0,0,0,.22-.461,1.6,1.6,0,0,0-.088-.505q-.747-1.714-2.2-.571l-1.23,1.055a1.44,1.44,0,0,0-.22.176q-6.284,5.142-12.964,9.668-.791.527-1.626,1.011a.355.355,0,0,1-.22.022q-.132-.022-.308-.066a.127.127,0,0,0-.088-.044l-.022-.044a.245.245,0,0,1-.022-.11v-.11a1.705,1.705,0,0,0,.088-.22q.308-.571.659-1.1,1.714-2.461,3.472-4.966,1.187-1.67,2.329-3.3.659-.923,1.23-1.89a1.213,1.213,0,0,0-.022-1.121,1.377,1.377,0,0,0-.857-.813.78.78,0,0,0-.33-.022.535.535,0,0,0-.33.154,4.948,4.948,0,0,0-1.055,1.011,111.622,111.622,0,0,0-7.383,10.415,12.807,12.807,0,0,0-1.45,2.988,2.948,2.948,0,0,0-.088,1.868A3.3,3.3,0,0,0,363.3,1.978a.912.912,0,0,0,.286.2.828.828,0,0,0,.33.066Zm34.98-18.809a15.514,15.514,0,0,0-6.152,1.626,19.829,19.829,0,0,0-3.823,2.241,28.839,28.839,0,0,0-3.384,2.988A6.7,6.7,0,0,0,383.6-5.361v.4a5.782,5.782,0,0,0,.923,3.076,4.873,4.873,0,0,0,1.23,1.23A6,6,0,0,0,389.795.527h.132a22.456,22.456,0,0,0,3.955-.439Q399.2-.879,410.229-3.3q17.534-3.867,27.378-3.867a34.363,34.363,0,0,1,9.756,1.23q.132-.088.176-1.055v-.308a3,3,0,0,0-.439-1.538q-1.582-2.681-8.7-2.681a89.205,89.205,0,0,0-15.645,1.846q-9.448,1.846-18.237,4.175-11.25,3.164-15.6,3.164h-.439a8.627,8.627,0,0,1-1.582-.132,1.169,1.169,0,0,1-.967-1.143v-.176a2.862,2.862,0,0,1,.264-.791,9.739,9.739,0,0,1,1.89-2.725,15.722,15.722,0,0,1,1.406-1.23,2.933,2.933,0,0,1,.835-.571h.132a4.261,4.261,0,0,0,2.153.483,20.967,20.967,0,0,0,2.109-.176,16.26,16.26,0,0,0,3.032-.835q4.746-1.8,4.746-3.779v-.132a2.7,2.7,0,0,0-.967-1.8,4.482,4.482,0,0,0-1.362-.923A3.285,3.285,0,0,0,399.067-16.479Zm-6.5,5.537q0-.352,1.978-1.274a17.611,17.611,0,0,1,4.922-1.582.542.542,0,0,1,.308.088q0,.22-.439.659a7.028,7.028,0,0,1-2.2,1.187,16.04,16.04,0,0,1-4.263,1.055Q392.563-10.854,392.563-10.942ZM489.9-8.569a38.882,38.882,0,0,0-3.735,2.549Q484.5-4.7,482.761-3.582a9.963,9.963,0,0,1-3.3,1.45,3.208,3.208,0,0,1-2.834-.725q-.044,0-.044-.066a.245.245,0,0,0-.022-.11l-.022-.044.352-.352a11.54,11.54,0,0,1,1.055-1.011q1.714-1.362,3.538-2.593a25.633,25.633,0,0,1,3.889-2.153,13.954,13.954,0,0,1,3.3-.835,1.461,1.461,0,0,1,.7.088,1.581,1.581,0,0,1,.571.439.371.371,0,0,1,.154.286,1.2,1.2,0,0,1-.022.4A.293.293,0,0,1,489.9-8.569ZM474.829-1.626q.439-.176.593.044a1.842,1.842,0,0,1,.242.7q.088.439.264,1.011a3.288,3.288,0,0,0,.659,1.143,2.5,2.5,0,0,0,1.978.923,5.643,5.643,0,0,0,1.011-.088,27.656,27.656,0,0,0,6.13-2.329,19.847,19.847,0,0,0,5.076-3.823,9.128,9.128,0,0,1,4.438-2.593l.967-.264q1.318-.352,2.681-.7,1.89-.439,3.779-.835,1.274-.308,2.549-.571a.521.521,0,0,0,.33-.483,1.053,1.053,0,0,0-.242-.7,3.6,3.6,0,0,0-2.659-.637,27,27,0,0,0-4.219.505q-2.263.439-3.8.791a9.824,9.824,0,0,1-1.055.22.826.826,0,0,1-.505-.088,5.318,5.318,0,0,1-.505-.264,4.593,4.593,0,0,1-.571-.7q-.22-.264-.4-.483a5.454,5.454,0,0,0-4.7-1.8,14.7,14.7,0,0,0-2.988.659,17.209,17.209,0,0,0-3.164,1.45,32.126,32.126,0,0,0-2.856,1.89Q476.411-7.515,475-6.372q-.747.615-1.494,1.187a.859.859,0,0,1-.176.066.6.6,0,0,1-.132.022q-.4-.264-.22-.615.483-.879.923-1.758,1.1-2.021,2.065-4.087.923-1.978,1.67-4,.352-1.143-.967-2.2a.818.818,0,0,0-.527-.176.514.514,0,0,0-.439.176,1.44,1.44,0,0,0-.176.22q-.176.264-.352.571-1.1,2.021-2.2,4.087-2.241,4.175-4.57,8.306-2.461,4.395-4.988,8.679t-5.339,8.459a17.071,17.071,0,0,0-1.274,2.285,1.205,1.205,0,0,0,0,.461,1.851,1.851,0,0,0,.176.549,5.888,5.888,0,0,0,.967,1.143,1,1,0,0,0,.681.286.669.669,0,0,0,.593-.2q1.406-1.978,2.769-4.043A80.619,80.619,0,0,1,474.3-1.23l.088-.088A1.673,1.673,0,0,1,474.829-1.626Zm42.583-20.786q-.352.088.22-.637t1.56-1.846q.989-1.121,1.912-2.131.967-1.011,1.318-1.406,1.45-1.8,4.175-4.834t6.021-6.2a55.781,55.781,0,0,1,6.482-5.405,12.162,12.162,0,0,1,5.515-2.461q.439,0,.483.286a1.253,1.253,0,0,1-.154.7,6.858,6.858,0,0,1-.439.791q-.242.374-.33.505-1.187,1.582-2.461,3.032a44.629,44.629,0,0,1-5.977,5.537q-2.812,2.2-6.68,5.164t-7.119,5.427q-2.109,1.582-3.34,2.527T517.412-22.412Zm25.84-27.334h-.132a2.382,2.382,0,0,0-.417.044q-.242.044-.549.132a32.193,32.193,0,0,0-8.855,5.076,64.994,64.994,0,0,0-7.4,7.141q-4.351,4.79-8.459,9.778t-8.152,10q-.659.879-1.362,1.714-6.2,7.822-11.953,15.952-2.9,4-5.845,7.954-.308.439-.571.879a1.684,1.684,0,0,0,0,1.406,4.37,4.37,0,0,0,.527.879,1.194,1.194,0,0,0,.747.527.883.883,0,0,0,.791-.22l.264-.264q1.274-1.23,2.461-2.549A123.732,123.732,0,0,1,509.546-5.142a51.663,51.663,0,0,1,7.6-5.142l.352-.176q.7-.4,1.934-1.055a7.038,7.038,0,0,1,2.615-1.077q.505.066,0,.923a23.257,23.257,0,0,1-1.472,2.131q-.879,1.187-1.67,2.417-.7,1.1-1.494,2.153-.439.7-.923,1.362-.791,1.187-1.538,2.373a2.543,2.543,0,0,0,0,2.725,2.062,2.062,0,0,0,2.637,1.143,21.246,21.246,0,0,0,2.9-1.274q2.2-1.187,7.361-4.153t8.723-5.471a11.473,11.473,0,0,0,1.89-1.714q.615-.747.2-.857a5.561,5.561,0,0,0-2.307.769q-3.032,1.494-7.427,3.6-4,1.934-6.812,3.34-.747.308-1.494.571a.179.179,0,0,0-.132.044.361.361,0,0,1-.11-.022.555.555,0,0,1-.132-.066q-.066-.044-.066-.088a1.359,1.359,0,0,1,.132-.615q.571-1.011,1.187-2.065.967-1.538,1.846-3.12a.511.511,0,0,0,.088-.132A13.637,13.637,0,0,0,524.114-10a4.842,4.842,0,0,0,.4-1.846,2.814,2.814,0,0,0-.769-1.912,4.072,4.072,0,0,0-1.626-1.165,3.512,3.512,0,0,0-2.241-.11,16.529,16.529,0,0,0-3.3,1.23q-1.89.967-3.669,2.109t-3.494,2.417l-1.67,1.23q-1.011.747-2.065,1.538a.254.254,0,0,1-.176.044h-.088a1.705,1.705,0,0,1-.088-.22.924.924,0,0,0-.022-.22.248.248,0,0,1,.022-.176q.967-1.274,1.494-1.934t.791-1.011q.308-.4.593-.769L509-11.821q.505-.659,1.516-1.89a83.386,83.386,0,0,0,8.723-5.889q5.076-3.823,10.085-7.91T537.8-34.5q.747-.659,1.406-1.187a46.685,46.685,0,0,0,5.537-5.493,15.586,15.586,0,0,0,2.417-3.867,2.777,2.777,0,0,0,.022-2.241,4.132,4.132,0,0,0-1.516-1.824A3.72,3.72,0,0,0,543.252-49.746Zm6.416,39.814a5.96,5.96,0,0,1-1.494,2.285,1.529,1.529,0,0,1-1.934.044.205.205,0,0,1-.11-.154,1.118,1.118,0,0,1-.022-.22.436.436,0,0,1,.044-.2,6.337,6.337,0,0,1,3.076-2.109.6.6,0,0,1,.132.022.2.2,0,0,1,.132.11.287.287,0,0,1,.132.132A.127.127,0,0,0,549.668-9.932Zm-5.581-1.67a.179.179,0,0,1,.044.132.2.2,0,0,0,.022.088.2.2,0,0,1,.022.088,4.908,4.908,0,0,0-.4.659q-.264.4-.527.835a2.329,2.329,0,0,0-.088,2.065,9.453,9.453,0,0,0,1.011,1.846,2.957,2.957,0,0,1,.681,1.45Q544.834-4,544-3.384a29.323,29.323,0,0,1-3.494,2.373A16.544,16.544,0,0,1,536.616.615q-.439.088-.835.132a.489.489,0,0,0-.22.044,1.025,1.025,0,0,1-.747-.374,1.008,1.008,0,0,1-.308-.813,9.675,9.675,0,0,1,1.538-3.867,32.48,32.48,0,0,1,2.637-3.3q1.1-1.187,2.263-2.241a16.945,16.945,0,0,1,2.527-1.89.78.78,0,0,1,.352-.088.689.689,0,0,1,.176.132A.127.127,0,0,0,544.087-11.6Zm21.226,1.758a27.664,27.664,0,0,1-6.372,1.868,28.185,28.185,0,0,1-5.977.417.523.523,0,0,1-.352-.264.69.69,0,0,1-.088-.483,4.373,4.373,0,0,1,.132-.659q.176-.923.264-1.8a3.532,3.532,0,0,0-.505-1.824,3.1,3.1,0,0,0-1.428-1.274,2.955,2.955,0,0,0-2.109-.066l-.7.264a5.161,5.161,0,0,1-.615.22q-.659.264-1.055-.615a.39.39,0,0,1-.044-.176.337.337,0,0,1-.044-.132,1.785,1.785,0,0,0-1.033-1.077,1.89,1.89,0,0,0-1.3.066,10.446,10.446,0,0,0-2.241,1.055,25.433,25.433,0,0,0-7.6,7.295,15.968,15.968,0,0,0-1.582,3.164,5.8,5.8,0,0,0,1.1,5.977,3.97,3.97,0,0,0,4.131,1.406,16.13,16.13,0,0,0,4.263-1.67,28.788,28.788,0,0,0,6.68-5.186,2.757,2.757,0,0,1,1.846-.879q1.1-.088,3.45-.417t5.142-1.011a20.912,20.912,0,0,0,4.79-1.736A10.607,10.607,0,0,0,567.224-9.8Q568.389-11.162,565.313-9.844Zm8.042-16.743v-.044h4.966a.361.361,0,0,1,.11.022.853.853,0,0,1,.11.044.07.07,0,0,1,.044.066.127.127,0,0,0,.044.088v.33a.548.548,0,0,1-.044.242l-1.318,1.582a.127.127,0,0,0-.088.044q-1.23,1.406-2.5,2.856-2.812,3.032-5.493,6.152-2.5,2.988-4.746,6.152a27.315,27.315,0,0,0-1.67,2.813l-.439.879a5.714,5.714,0,0,0-.615,2.769,4.38,4.38,0,0,0,1.23,3.208,3.1,3.1,0,0,0,2.153,1.055,9.456,9.456,0,0,0,3.516-.308q1.538-.483,3.032-1.011A49.271,49.271,0,0,0,579.507-3.3a58.269,58.269,0,0,0,7.163-4.878.511.511,0,0,1,.132-.088,3.382,3.382,0,0,0,.527-.417,2.532,2.532,0,0,0,.483-.593.4.4,0,0,0-.044-.527q-.176-.176-.835-.022a5.72,5.72,0,0,0-1.45.593,64.243,64.243,0,0,1-6.46,3.318q-3.911,1.78-7.8,3.12a33.137,33.137,0,0,1-6.35,1.648.794.794,0,0,1-.637-.286.536.536,0,0,1-.11-.593q.22-.483.439-.923a17.407,17.407,0,0,1,1.318-2.549,62.023,62.023,0,0,1,4.175-5.713q4.131-4.79,8.35-9.492.615-.7,1.274-1.406,1.23-1.362,2.5-2.681.7-.7,1.406-1.45a2.846,2.846,0,0,1,2.2-.967l2.021-.088,1.494-.088,3.252-.088q2.637-.044,5.273-.132a3.889,3.889,0,0,0,1.011-.22A.733.733,0,0,0,599-28.1a1.084,1.084,0,0,0,.066-.33,2.3,2.3,0,0,0-1.8-1.538,8.844,8.844,0,0,0-1.758-.088q-1.538.044-3.076.132l-1.89.088h-.132q-1.011.044-1.978,0a.413.413,0,0,1-.264-.11,1.133,1.133,0,0,1-.22-.242.248.248,0,0,1-.022-.176.859.859,0,0,1,.066-.176,1.746,1.746,0,0,1,.22-.264,6.271,6.271,0,0,1,.923-1.055q3.779-3.56,7.559-7.075,1.011-.923,2.021-1.89l.615-.527q.615-.571,1.187-1.143a1.17,1.17,0,0,0,.22-1.318,1.523,1.523,0,0,0-.879-.9,1.126,1.126,0,0,0-1.1.2q-.879.615-1.714,1.274-6.284,5.186-12.085,10.942l-.527.527q-.747.747-1.494,1.45a2.323,2.323,0,0,1-1.582.7,4.345,4.345,0,0,1-.615.044h-.791q-1.274.088-2.549.132-4.57.176-9.141.4a5.945,5.945,0,0,0-1.406.264q-.132.044-.308.088-.352.088-.264.571a1.542,1.542,0,0,0,1.406,1.362q2.021.132,4.087.176Zm25.62,16.655a5.96,5.96,0,0,1-1.494,2.285,1.529,1.529,0,0,1-1.934.044.205.205,0,0,1-.11-.154,1.118,1.118,0,0,1-.022-.22.436.436,0,0,1,.044-.2,6.337,6.337,0,0,1,3.076-2.109.6.6,0,0,1,.132.022.2.2,0,0,1,.132.11.287.287,0,0,1,.132.132A.127.127,0,0,0,598.975-9.932Zm-5.581-1.67a.179.179,0,0,1,.044.132.2.2,0,0,0,.022.088.2.2,0,0,1,.022.088,4.908,4.908,0,0,0-.4.659q-.264.4-.527.835a2.329,2.329,0,0,0-.088,2.065,9.453,9.453,0,0,0,1.011,1.846,2.957,2.957,0,0,1,.681,1.45q-.022.439-.857,1.055a29.323,29.323,0,0,1-3.494,2.373A16.544,16.544,0,0,1,585.923.615q-.439.088-.835.132a.489.489,0,0,0-.22.044,1.025,1.025,0,0,1-.747-.374,1.008,1.008,0,0,1-.308-.813,9.675,9.675,0,0,1,1.538-3.867,32.48,32.48,0,0,1,2.637-3.3q1.1-1.187,2.263-2.241a16.945,16.945,0,0,1,2.527-1.89.78.78,0,0,1,.352-.088.689.689,0,0,1,.176.132A.127.127,0,0,0,593.394-11.6Zm21.226,1.758a27.664,27.664,0,0,1-6.372,1.868,28.185,28.185,0,0,1-5.977.417.523.523,0,0,1-.352-.264.69.69,0,0,1-.088-.483,4.373,4.373,0,0,1,.132-.659q.176-.923.264-1.8a3.532,3.532,0,0,0-.505-1.824,3.1,3.1,0,0,0-1.428-1.274,2.955,2.955,0,0,0-2.109-.066l-.7.264a5.161,5.161,0,0,1-.615.22q-.659.264-1.055-.615a.39.39,0,0,1-.044-.176.337.337,0,0,1-.044-.132,1.785,1.785,0,0,0-1.033-1.077,1.89,1.89,0,0,0-1.3.066,10.446,10.446,0,0,0-2.241,1.055,25.433,25.433,0,0,0-7.6,7.295,15.968,15.968,0,0,0-1.582,3.164,5.8,5.8,0,0,0,1.1,5.977A3.97,3.97,0,0,0,587.2,3.516a16.13,16.13,0,0,0,4.263-1.67,28.788,28.788,0,0,0,6.68-5.186,2.757,2.757,0,0,1,1.846-.879q1.1-.088,3.45-.417t5.142-1.011a20.912,20.912,0,0,0,4.79-1.736A10.607,10.607,0,0,0,616.531-9.8Q617.7-11.162,614.619-9.844Z" transform="translate(-0.48 49.756)" fill="#79c9bc"/>
</svg>
