<svg id="グループ_381" data-name="グループ 381" xmlns="http://www.w3.org/2000/svg" xmlns:xlink="http://www.w3.org/1999/xlink" width="99.997" height="100" viewBox="0 0 99.997 100">
  <defs>
    <clipPath id="clip-path">
      <rect id="長方形_23827" data-name="長方形 23827" width="99.997" height="100" fill="#79c9bc"/>
    </clipPath>
  </defs>
  <g id="グループ_380" data-name="グループ 380" clip-path="url(#clip-path)">
    <path id="パス_518" data-name="パス 518" d="M84.644,2.707a14.045,14.045,0,0,1,4.971.964,1,1,0,0,1,.146.074,1.263,1.263,0,0,1-.027.654c-.027.121-.056.242-.084.363A11.036,11.036,0,0,0,89.3,7.029a4.774,4.774,0,0,0,3.1,4.835,14.754,14.754,0,0,0,4.093.949l.389.05a2.307,2.307,0,0,1,.406.086,4.045,4.045,0,0,1-.524,2.3c-.578,1.009-.972,1.009-1.391,1.009a4.062,4.062,0,0,1-.766-.085c-.1-.027-.209-.049-.315-.066a7.268,7.268,0,0,0-1.132-.1c-1.526,0-3.53.612-4.416,3.529a44.242,44.242,0,0,0-1.268,6.2l-.043.28c-.123.8-.241,1.6-.358,2.4-.22,1.5-.447,3.045-.711,4.543a8.887,8.887,0,0,0-.133,2.51,5.477,5.477,0,0,0,3.537,4.683c-.206.242-.415.494-.626.766l-.277.358c-1.448,1.871-2.944,3.805-4.471,5.633a7.774,7.774,0,0,0-1.41,7.053c.1.435.211.85.322,1.252a18.677,18.677,0,0,0-1.923-.125c-.227,0-.451.007-.665.022l-.132.006a5.518,5.518,0,0,0-.923.1,3.7,3.7,0,0,0-3.167,3.165,6.164,6.164,0,0,1-1.839.246q-.165,0-.332-.006l-.19,0a5.018,5.018,0,0,0-4.156,2.166,16.165,16.165,0,0,0-2.51,5.757,16.855,16.855,0,0,0-.6,4.6,5.394,5.394,0,0,0,2.012,4.437,4.291,4.291,0,0,1,.221.847,22.091,22.091,0,0,1,.308,5.577c-.04.693-.067,1.385-.089,2.069-.056-.092-.118-.185-.186-.278a4.178,4.178,0,0,0-3.461-1.735,6.016,6.016,0,0,0-1.334.161,19.5,19.5,0,0,0-4.658,1.785c-1.24.634-3.232,2.253-2.633,5.978.051.319.107.638.163.957l.071.41a.986.986,0,0,1,.017.191.952.952,0,0,1-.144.111,7.394,7.394,0,0,1-2.2.916,5.4,5.4,0,0,0-3.729,3.16l-.168.393c-.1.227-.193.453-.294.678-.146.324-.257.349-.424.386a4.845,4.845,0,0,1-1.037.122,3.343,3.343,0,0,1-.808-.094.177.177,0,0,1,0-.018c-.015-.3-.01-.625-.006-.974,0-.08,0-.161,0-.241a2.729,2.729,0,0,0,.018-.314c0-.145,0-.29-.008-.436,0-.165-.009-.351,0-.433A4.543,4.543,0,0,0,46.5,90.493c-.161-.119-.322-.236-.484-.354a9.845,9.845,0,0,1-1.09-.862,2.349,2.349,0,0,1-.688-1.731c-.005-.1,0-.209,0-.313a6.794,6.794,0,0,0-.095-1.414,4.936,4.936,0,0,0-4.375-4.1,8.279,8.279,0,0,0-1.087-.072,9.232,9.232,0,0,0-3.335.651A8.081,8.081,0,0,0,30.2,87.53a6.594,6.594,0,0,1-1.147,2.327,2.939,2.939,0,0,1-2.069,1.032,16.685,16.685,0,0,1-1.9.085q-.352,0-.7,0l-.386,0h-.047A6.571,6.571,0,0,0,19.2,92.8a3.5,3.5,0,0,0-1.818-3.662,6.732,6.732,0,0,0-1.789-.718l-.688-.165c-.563-.136-1.127-.272-1.692-.4a5.144,5.144,0,0,0-1.157-.142,3.685,3.685,0,0,0-3.509,2.5A14.581,14.581,0,0,0,7.819,92.5c-.088.343-.171.668-.263.961a4.3,4.3,0,0,1-.592,1.308c-.024-.684-.043-1.356-.055-2.01A9.65,9.65,0,0,0,6.6,90.551a5.861,5.861,0,0,0-2.349-3.425,9.911,9.911,0,0,1-.823-.628c.679-.2,1.413-.359,2.177-.519l.412-.087a22.571,22.571,0,0,0,10.565-5.463A9.768,9.768,0,0,1,20.321,78a7.607,7.607,0,0,1,1.974-.353l.14,0q.29.012.577.012a17.033,17.033,0,0,0,9.095-2.881,39.145,39.145,0,0,0,6.887-5.459A53.841,53.841,0,0,0,50.165,54.072a27.678,27.678,0,0,0,2.4-7.5,10.862,10.862,0,0,1,4.5-7.129,40.742,40.742,0,0,1,6.459-3.7l.057-.029a64.171,64.171,0,0,0,8.05-4.494,26.48,26.48,0,0,0,7.988-8.5,17.016,17.016,0,0,0,2.2-7.592A41.2,41.2,0,0,1,83.906,4.108a4.538,4.538,0,0,1,.664-1.316,1.1,1.1,0,0,1,.074-.085M48.482,95.654h0M84.582,0a2.651,2.651,0,0,0-2.14,1.122,7.174,7.174,0,0,0-1.088,2.088,43.847,43.847,0,0,0-2.235,11.748,14.444,14.444,0,0,1-1.841,6.412A23.638,23.638,0,0,1,70.095,29a62.263,62.263,0,0,1-7.775,4.327,43.178,43.178,0,0,0-6.881,3.957A13.56,13.56,0,0,0,49.9,46.128a24.84,24.84,0,0,1-2.167,6.766A51.559,51.559,0,0,1,37.1,67.383a36.629,36.629,0,0,1-6.411,5.089,14.582,14.582,0,0,1-7.681,2.482c-.155,0-.311,0-.468-.009-.083,0-.166-.005-.249-.005a9.9,9.9,0,0,0-2.718.457,12.335,12.335,0,0,0-4.809,3.028,19.786,19.786,0,0,1-9.312,4.822A22.2,22.2,0,0,0,1.534,84.3a3.8,3.8,0,0,0-.873.494c-.885.68-.884,1.7.017,2.766a10.262,10.262,0,0,0,2.036,1.79,3.129,3.129,0,0,1,1.268,1.871A6.912,6.912,0,0,1,4.2,92.81q.028,1.508.094,3.017c.048,1.117.513,1.827,1.3,1.97a4.1,4.1,0,0,0,.738.069,3.293,3.293,0,0,0,2.4-1.017,6.056,6.056,0,0,0,1.406-2.577,28.924,28.924,0,0,1,.894-2.983c.273-.625.538-.876,1.03-.876a2.6,2.6,0,0,1,.56.075c.784.177,1.565.371,2.347.558a4.007,4.007,0,0,1,1.069.432.819.819,0,0,1,.455,1.046c-.153.478-.322.951-.459,1.433a1.266,1.266,0,0,0,.286,1.314,3.213,3.213,0,0,0,2.312.969,3.774,3.774,0,0,0,.438-.027,2.825,2.825,0,0,0,1.749-1.19,3.89,3.89,0,0,1,3.134-1.351h.034c.368,0,.735.007,1.1.007a18.9,18.9,0,0,0,2.213-.1,5.615,5.615,0,0,0,3.825-1.98,9.276,9.276,0,0,0,1.655-3.253,5.424,5.424,0,0,1,3.529-3.521,6.623,6.623,0,0,1,2.37-.472,5.441,5.441,0,0,1,.728.048,2.251,2.251,0,0,1,2.076,1.928,9.6,9.6,0,0,1,.051,1.355,5.081,5.081,0,0,0,1.49,3.522,17.019,17.019,0,0,0,1.857,1.46A1.918,1.918,0,0,1,45.8,94.5a10.968,10.968,0,0,0-.007,1.157h-.016c0,.554-.023,1.109,0,1.661a2.429,2.429,0,0,0,2.044,2.51,6.091,6.091,0,0,0,1.468.175,7.523,7.523,0,0,0,1.621-.185A3.181,3.181,0,0,0,53.221,97.9c.165-.367.319-.738.479-1.107a2.716,2.716,0,0,1,1.927-1.617,10.063,10.063,0,0,0,3-1.268,2.786,2.786,0,0,0,1.315-3.026c-.076-.446-.157-.892-.229-1.338-.252-1.568.071-2.566,1.193-3.139a17.277,17.277,0,0,1,4.022-1.555,3.408,3.408,0,0,1,.739-.094,1.48,1.48,0,0,1,1.277.625,3.121,3.121,0,0,1,.385.977A3.728,3.728,0,0,0,68.4,88.141a2.214,2.214,0,0,0,1.454.589,2.029,2.029,0,0,0,1.865-1.385,3.666,3.666,0,0,0,.24-1.276c.039-1.307.066-2.615.142-3.921a24.818,24.818,0,0,0-.354-6.255,3.736,3.736,0,0,0-1.185-2.439,2.66,2.66,0,0,1-1-2.378,14.416,14.416,0,0,1,.519-3.872,13.52,13.52,0,0,1,2.064-4.819,2.326,2.326,0,0,1,1.981-1.071l.1,0q.211.007.421.007a8.6,8.6,0,0,0,2.944-.469,2.175,2.175,0,0,0,1.537-1.87c.1-.759.309-.973,1.063-1.126a5.355,5.355,0,0,1,.7-.055c.161-.011.322-.016.483-.016,1.1,0,2.181.221,3.277.223h.01c1.378,0,1.947-.726,1.627-2.081-.2-.863-.477-1.711-.675-2.576a5.158,5.158,0,0,1,.848-4.717c1.656-1.983,3.232-4.028,4.812-6.07a22.357,22.357,0,0,0,1.965-2.545,1.113,1.113,0,0,0-.645-1.8c-.468-.181-.958-.3-1.438-.451a2.888,2.888,0,0,1-2.242-2.6,6.2,6.2,0,0,1,.108-1.75c.409-2.324.718-4.662,1.078-6.993a44.073,44.073,0,0,1,1.226-6.1c.35-1.154.852-1.609,1.827-1.609a4.64,4.64,0,0,1,.713.063c.05.008.1.024.147.034a6.77,6.77,0,0,0,1.354.149,4.066,4.066,0,0,0,3.74-2.371,6.814,6.814,0,0,0,.856-4.074c-.12-1.323-1.11-2.124-2.736-2.337a13.98,13.98,0,0,1-3.769-.8A2.085,2.085,0,0,1,92,7.111a11.316,11.316,0,0,1,.375-2.122c.4-1.791-.206-3.205-1.749-3.827A16.886,16.886,0,0,0,84.644,0h-.062" transform="translate(0)" fill="#79c9bc"/>
    <path id="パス_519" data-name="パス 519" d="M58.326,23.828c-.092.18-.189.364-.29.553l-.147.275c-.939,1.759-1.911,3.578-2.785,5.448a6.681,6.681,0,0,0-.738,2.951A4.12,4.12,0,0,0,58.5,37.193a4.354,4.354,0,0,0,1.132-.152,6.189,6.189,0,0,0,.866-.306c-.182.413-.405.844-.661,1.306a25.582,25.582,0,0,1-8.134,9,8.945,8.945,0,0,1-1.362.773c.159-.2.332-.407.509-.613.153-.178.308-.355.462-.532a26.613,26.613,0,0,0,2.34-2.964l.036-.054a6.747,6.747,0,0,0,1.159-2.639,3.647,3.647,0,0,0-1.6-3.752,3.251,3.251,0,0,0-3.581-.039,14.082,14.082,0,0,1,.7-1.853,37.75,37.75,0,0,1,7.961-11.544m4.025,11.954h0m-2.5-15.906a2.734,2.734,0,0,0-1.21.355,8.38,8.38,0,0,0-2.061,1.515,40.289,40.289,0,0,0-8.692,12.531,11.568,11.568,0,0,0-1.178,4.387c0,.1,0,.2,0,.3a1.992,1.992,0,0,0,1.175,1.947,1.762,1.762,0,0,0,.706.155,2.109,2.109,0,0,0,1.377-.607c.265-.232.521-.476.8-.693a1.181,1.181,0,0,1,.661-.355.577.577,0,0,1,.323.108.954.954,0,0,1,.422,1.045,4.45,4.45,0,0,1-.792,1.665A31.118,31.118,0,0,1,48.8,45.439a8.726,8.726,0,0,0-1.613,2.415,2.052,2.052,0,0,0,1.493,2.909,2.755,2.755,0,0,0,.617.067,3.552,3.552,0,0,0,.732-.08,9.087,9.087,0,0,0,3.182-1.46A28.118,28.118,0,0,0,62.2,39.35a10.426,10.426,0,0,0,1.485-4.134,1.774,1.774,0,0,0-1.437-2.082,1.316,1.316,0,0,0-.209-.016,2.521,2.521,0,0,0-1.041.3,13.565,13.565,0,0,1-2.077,1.009,1.609,1.609,0,0,1-.425.057,1.42,1.42,0,0,1-1.426-1.459,4.1,4.1,0,0,1,.484-1.779c.887-1.9,1.88-3.744,2.868-5.592a10.1,10.1,0,0,0,1.243-3.217,2.189,2.189,0,0,0-.8-2.191,1.563,1.563,0,0,0-1.006-.372" transform="translate(-21.377 -9.096)" fill="#79c9bc"/>
  </g>
</svg>
