<svg id="グループ_252" data-name="グループ 252" xmlns="http://www.w3.org/2000/svg" xmlns:xlink="http://www.w3.org/1999/xlink" width="78.808" height="100" viewBox="0 0 78.808 100">
  <defs>
    <clipPath id="clip-path">
      <rect id="長方形_533" data-name="長方形 533" width="78.808" height="100" fill="#79c9bc"/>
    </clipPath>
  </defs>
  <g id="グループ_251" data-name="グループ 251" clip-path="url(#clip-path)">
    <path id="パス_438" data-name="パス 438" d="M30.616,0c.988.162,1.978.313,2.963.488a27.629,27.629,0,0,1,12.158,5.26,22.619,22.619,0,0,1,3.38-2.015A6.8,6.8,0,0,1,58.21,8.987a1.893,1.893,0,0,0,.881,1.127,23.525,23.525,0,0,1,9.018,8.57,23.833,23.833,0,0,1,3.11,8.661,1.459,1.459,0,0,1-1.125,1.778c-.853.168-1.48-.321-1.765-1.28a48.221,48.221,0,0,0-1.894-6.016A19.278,19.278,0,0,0,57.877,12.8l-.821,1.362c.618.854,1.258,1.7,1.861,2.577a28.7,28.7,0,0,1,3.8,8.194c.321,1.074-.016,1.879-.888,2.154a1.531,1.531,0,0,1-1.885-1.246,27.28,27.28,0,0,0-3.744-7.9c-.412-.582-.861-1.137-1.286-1.695-.848.09-.974.442-.706,1.186a33.8,33.8,0,0,1,.928,19.031,2.261,2.261,0,0,0,.264,1.828A6.054,6.054,0,0,1,52,47.165a3.28,3.28,0,0,0-2.375,2.981,21.16,21.16,0,0,0,.92,9.149C53.1,66.358,61.14,70.827,68.294,68.939a11.1,11.1,0,0,0,7.564-6.758c-.605-.168-1.171-.284-1.707-.479a8.327,8.327,0,0,1-5.6-8.113c-.039-6.251-.01-12.5-.013-18.753,0-.724.127-1.451.863-1.7a1.665,1.665,0,0,1,1.429.15,2.534,2.534,0,0,1,.614,1.621c.042,6.023.025,12.046.026,18.069,0,3.664,1.377,5.4,4.96,6.264A2.961,2.961,0,0,1,78.6,63.219c-2.31,6.094-9.14,9.882-15.626,9.014A18.8,18.8,0,0,1,46.634,54.359c0-.116-.029-.231-.058-.453-.989.961-1.929,1.8-2.775,2.723-.539.589-.094,2.379.7,3.112.26.24.581.414.863.632a1.441,1.441,0,0,1-1.509,2.454,5.58,5.58,0,0,1-2.574-2.577c-.111-.229-.223-.458-.259-.532-1.832,1.3-3.658,2.581-5.449,3.905a.959.959,0,0,0-.247.836,1.037,1.037,0,0,0,.64.557A26.3,26.3,0,0,1,54.383,88.96c.169,3.084.059,6.184.056,9.276,0,1.083-.561,1.738-1.424,1.763-.894.025-1.491-.662-1.5-1.786-.013-2.669,0-5.339-.007-8.009A23.318,23.318,0,0,0,48.625,78.89c-.108-.2-.232-.383-.362-.6a2.158,2.158,0,0,0-.388.12c-.457.245-.907.5-1.407.783,1.429,1.692,1.823,3.745,2.251,5.781a1.5,1.5,0,0,1-1.1,1.966c-.875.17-1.512-.335-1.775-1.383s-.474-2.1-.82-3.108a3.122,3.122,0,0,0-4.59-1.8c-1.819,1-3.573,2.124-5.413,3.228l.543,1.841c1.271-.23,2.509-.456,3.747-.677,1.1-.2,1.887.235,2.042,1.122s-.381,1.533-1.517,1.753c-1.4.272-2.8.526-4.178.783-.337.8.038,1.045.7,1.139a11.424,11.424,0,0,1,1.717.341,1.43,1.43,0,0,1-.515,2.8c-.613-.049-1.216-.222-1.829-.279a.706.706,0,0,0-.588.262.652.652,0,0,0,.228.59c1.746,1.072,3.47,2.189,5.282,3.137a3.068,3.068,0,0,0,4.349-1.839c.34-.945.544-1.938.82-2.906a1.387,1.387,0,0,1,1.674-1.13,1.209,1.209,0,0,1,1.155,1.344c-.333,2.363-.791,4.714-2.77,6.362a5.93,5.93,0,0,1-6.924.623c-1.84-1.039-3.613-2.2-5.452-3.24a2.362,2.362,0,0,0-1.317-.123c-.8.084-1.59.356-2.388.373A17.732,17.732,0,0,1,24.855,96a4.182,4.182,0,0,0-3.724.844c-1.175.757-2.378,1.475-3.589,2.173a6.149,6.149,0,0,1-9.194-3.543,20.863,20.863,0,0,1,0-13.6,26.38,26.38,0,0,1,1.3-2.754l-1.612-.892a16.583,16.583,0,0,0-2.4,5.643,49.945,49.945,0,0,0-.858,6.751c-.143,2.4-.027,4.816-.037,7.226,0,.388.069.894-.139,1.136a2.382,2.382,0,0,1-1.391.944c-.426.011-.889-.581-1.292-.954-.111-.1-.1-.373-.092-.566.076-3.9-.114-7.834.3-11.7a25.012,25.012,0,0,1,9.926-17.4,26.174,26.174,0,0,1,8.072-4.252c.332-.11.79-.443.816-.708a1.25,1.25,0,0,0-.6-.926,20,20,0,0,1-5.258-4.311c-.146-.169-.225-.394-.444-.536a6.854,6.854,0,0,1-2.2,3.6,6.366,6.366,0,0,1-.983.631,1.476,1.476,0,0,1-2.047-.482A1.432,1.432,0,0,1,10,60.308a3.244,3.244,0,0,0,1.609-3.571,4.152,4.152,0,0,0-.777-1.712Q8.3,51.569,5.669,48.187a2.5,2.5,0,0,0-1.147-.9,6.188,6.188,0,0,1-3.664-9.1,2.3,2.3,0,0,0,.263-1.5A35.362,35.362,0,0,1,1.5,19.023,26.476,26.476,0,0,1,5.83,10.452c.7-.92,1.524-1.141,2.252-.613s.808,1.4.113,2.323A26.294,26.294,0,0,0,3.15,29.416c.071,2.034.431,4.057.656,6.053H8.7c.071-1.267.254-2.652-1.025-3.947a8.085,8.085,0,0,1-2.013-5.571,1.5,1.5,0,0,1,1.319-1.744c.9-.08,1.507.46,1.589,1.556a6.626,6.626,0,0,0,3.769,5.949,7.659,7.659,0,0,0,2.9.71c2.307.1,4.621.043,6.933.034a2.55,2.55,0,0,0,2.447-1.435,30.5,30.5,0,0,1-3.537-1.865,9.08,9.08,0,0,1-2.3-12.26c.566-.872,1.3-1.133,2.057-.728.784.421.955,1.228.475,2.184-.271.541-.526,1.09-.836,1.736H35.785c-.314-.641-.576-1.186-.847-1.726a1.5,1.5,0,0,1,.485-2.2c.759-.4,1.49-.14,2.049.735a9.184,9.184,0,0,1-5.054,13.684c-.272.081-.539.176-.852.279A2.484,2.484,0,0,0,33.9,32.44c2.539.024,5.081.075,7.616-.038a6.606,6.606,0,0,0,6.09-6.067c.017-.227.02-.457.055-.681.157-1.01.746-1.53,1.62-1.445.808.079,1.289.681,1.285,1.658a7.8,7.8,0,0,1-1.945,5.585,4.594,4.594,0,0,0-1.092,4.016h4.958c.2-2.151.505-4.363.6-6.585a27.131,27.131,0,0,0-1.818-10.992,1.3,1.3,0,0,0-1.132-.974,6.854,6.854,0,0,1-5.575-7.55,1.442,1.442,0,0,0-.437-1.121A25.791,25.791,0,0,0,25.7,3.049,25.286,25.286,0,0,0,13.142,7.43a1.48,1.48,0,0,1-2.242-.2c-.518-.738-.275-1.6.646-2.233A28.009,28.009,0,0,1,24.79.19c.317-.033.629-.126.943-.19ZM11.748,34.781c0,2.827-.12,5.564.027,8.288a23.163,23.163,0,0,0,4.5,12.891c2.745,3.678,6.255,6.2,10.964,6.5,5.472.352,9.561-2.265,12.726-6.478a23.035,23.035,0,0,0,4.53-13.366c.088-2.593.015-5.191.015-7.8a17.437,17.437,0,0,1-2.725.5c-2.764.069-5.533.1-8.3.019A5.552,5.552,0,0,1,28.6,31.443c-.773-2.4-.34-3.106,2.113-3.466.064-.01.129-.015.194-.026A5.925,5.925,0,0,0,35.738,23.1H20.474a3.873,3.873,0,0,0,.1.6,6.2,6.2,0,0,0,5.651,4.376c1.439.154,1.786.606,1.687,2.05a5.542,5.542,0,0,1-5.258,5.206c-3.625.045-7.282.483-10.91-.549m9.29,48.983c-1.772-1.062-3.469-2.147-5.23-3.116a3.075,3.075,0,0,0-4.47,1.537,17.631,17.631,0,0,0-.013,12.858,3.048,3.048,0,0,0,4.358,1.622c1.825-.982,3.572-2.109,5.368-3.183l-.642-1.814c-.556.253-1.053.488-1.556.709-1.129.5-1.946.294-2.328-.572-.366-.831,0-1.556,1.061-2.072.637-.309,1.283-.6,2.177-1.017-1.517-.3-2.726-.531-3.931-.78s-1.782-.9-1.6-1.79c.191-.915.972-1.3,2.156-1.075,1.329.252,2.659.5,3.988.744l.657-2.051M33.9,74.783l4.288-5.791-2.866-1.1c-.025.561-.012.952-.066,1.334a1.436,1.436,0,0,1-1.5,1.356,1.414,1.414,0,0,1-1.389-1.558c-.026-1.349-.007-2.7-.007-4.153a16.468,16.468,0,0,1-8.368.035c-.026.326-.057.548-.058.77-.007,1.106.028,2.212-.019,3.316-.044,1.024-.62,1.6-1.479,1.591S21.057,70,21,68.962c-.017-.312-.032-.624-.056-1.1L18.069,69l4.357,5.876c.749-.843,1.4-1.658,2.135-2.384,2.258-2.221,4.873-2.194,7.128.038.732.725,1.446,1.468,2.213,2.25M32.589,88.634H32.6c0-.716.025-1.433-.005-2.148a2.331,2.331,0,0,0-2.356-2.469c-1.495-.064-3-.06-4.491,0A2.274,2.274,0,0,0,23.4,86.277c-.064,1.559-.061,3.126,0,4.686a2.157,2.157,0,0,0,2.145,2.227c1.622.082,3.254.082,4.876,0a2.184,2.184,0,0,0,2.16-2.216c.052-.778.01-1.561.01-2.343M40.8,70.176l-7.53,10.966.25.222c1.629-.983,3.261-1.96,4.885-2.95a5.538,5.538,0,0,1,3.769-1.066c1.818.309,2.925-.93,4.628-1.672l-6-5.5m-25.2.212a23.08,23.08,0,0,0-5.948,5.453c1.17.556,2.281,1.556,3.306,1.476a9.723,9.723,0,0,1,6.267,1.93c1.124.728,2.295,1.384,3.444,2.072l.263-.247L15.6,70.388m35.84-56.265A3.955,3.955,0,1,0,47.43,10.2a3.979,3.979,0,0,0,4.009,3.927m-27.516,63.2c.683,1.133,1.331,2.256,2.038,3.339a1.106,1.106,0,0,0,.776.392c3.242.172,3.243.164,4.9-2.591a2.306,2.306,0,0,0,.385-.669,1.1,1.1,0,0,0-.107-.817c-.833-.909-1.7-1.794-2.6-2.635a1.629,1.629,0,0,0-2.44-.005c-.992.931-1.919,1.932-2.957,2.985M53.307,41.377a3.128,3.128,0,0,0-2.638-3.153,2.5,2.5,0,0,0-3.179,2.594,7.423,7.423,0,0,1-.039,1.267,1.882,1.882,0,0,0,1.292,2.137,3.161,3.161,0,0,0,4.564-2.844m-44.6-.341c-.075-.508.37-1.5-.625-2.206a3.263,3.263,0,0,0-3.977.06,3.163,3.163,0,0,0-.844,3.877,3.065,3.065,0,0,0,3.583,1.68c1.374-.453,2.178-.664,1.862-3.411m.533,5.627-.8.443L9.549,48.8l.145-.071L9.24,46.664m37.787-.02L46.6,48.612l.172.07,1.046-1.6-.79-.434" transform="translate(0)" fill="#79c9bc"/>
    <path id="パス_439" data-name="パス 439" d="M214.531,216.486c-.012-1.15.49-1.771,1.312-1.831.9-.065,1.439.459,1.618,1.57a10.648,10.648,0,0,0,4.488,7.355,12.8,12.8,0,0,0,5.223,2.033,4.585,4.585,0,0,1,1.041.243,1.431,1.431,0,0,1-.714,2.753,14.821,14.821,0,0,1-9.837-5,13.951,13.951,0,0,1-3.13-7.121" transform="translate(-162.046 -162.135)" fill="#79c9bc"/>
    <path id="パス_440" data-name="パス 440" d="M98.493,210.158a5.839,5.839,0,0,1-5.367-5.469,1.32,1.32,0,0,1,1.106-1.4,1.341,1.341,0,0,1,1.614.783c.193.408.259.874.438,1.29a2.541,2.541,0,0,0,2.161,1.856,2.513,2.513,0,0,0,2.191-1.811c.084-.21.135-.434.2-.65q.6-1.888,2.009-1.438c.855.275,1.133,1.043.824,2.28a5.71,5.71,0,0,1-5.179,4.56" transform="translate(-70.342 -153.51)" fill="#79c9bc"/>
    <path id="パス_441" data-name="パス 441" d="M78.544,163.848a10.816,10.816,0,0,1-.01,1.36,1.356,1.356,0,0,1-1.42,1.313,1.28,1.28,0,0,1-1.415-1.194,14.229,14.229,0,0,1,0-2.908,1.3,1.3,0,0,1,1.491-1.216,1.372,1.372,0,0,1,1.359,1.382,12.223,12.223,0,0,1,.008,1.264h-.007" transform="translate(-57.121 -121.761)" fill="#79c9bc"/>
    <path id="パス_442" data-name="パス 442" d="M145.3,163.911c-.022.453-.016.909-.071,1.358a1.3,1.3,0,0,1-1.356,1.255,1.236,1.236,0,0,1-1.428-1.151,17.942,17.942,0,0,1,0-3,1.242,1.242,0,0,1,1.419-1.165,1.307,1.307,0,0,1,1.364,1.248c.062.48.052.969.074,1.454" transform="translate(-107.55 -121.768)" fill="#79c9bc"/>
  </g>
</svg>
