<svg id="グループ_233" data-name="グループ 233" xmlns="http://www.w3.org/2000/svg" xmlns:xlink="http://www.w3.org/1999/xlink" width="82.207" height="100" viewBox="0 0 82.207 100">
  <defs>
    <clipPath id="clip-path">
      <rect id="長方形_527" data-name="長方形 527" width="82.207" height="100" fill="#79c9bc"/>
    </clipPath>
  </defs>
  <g id="グループ_232" data-name="グループ 232" clip-path="url(#clip-path)">
    <path id="パス_412" data-name="パス 412" d="M5.752,100a2.266,2.266,0,0,1-1.007-2.151c.046-2.733.06-5.468.005-8.2A18.409,18.409,0,0,1,6.8,79.969c-.706-.164-1.331-.291-1.946-.454a6.312,6.312,0,0,1-4.8-6.859Q1.31,62.3,2.387,51.911A52.937,52.937,0,0,1,8.918,31.338c3.541-6.317,8.122-11.7,14.436-15.415a45.376,45.376,0,0,1,5.288-2.467.946.946,0,0,0,.708-1.145c-.146-1.423-.234-2.853-.322-4.282-.086-1.394.436-2.021,1.8-2.114A11.336,11.336,0,0,0,39.618.984c.949-1.312,2.025-1.312,2.972,0a11.349,11.349,0,0,0,8.786,4.934c1.372.1,1.891.718,1.805,2.111-.089,1.461-.2,2.921-.317,4.38-.035.45-.024.757.531.955,8.461,3.025,14.428,8.962,19.009,16.458a53.957,53.957,0,0,1,7.559,23.053q1,9.851,2.192,19.682A6.413,6.413,0,0,1,76.8,79.67c-.412.088-.826.164-1.207.238a44.875,44.875,0,0,1,1.418,4.412,22.1,22.1,0,0,1,.425,4.256c.06,3.09-.008,6.183.034,9.274A2.259,2.259,0,0,1,76.457,100H75.285a2.63,2.63,0,0,1-.974-2.378c.037-3.382.061-6.766-.015-10.147a12.177,12.177,0,0,0-3.608-8.592,17.115,17.115,0,0,0-6.333-4.116c-3.9-1.407-7.864-2.669-11.837-3.869-3.45-1.041-5.195-3.211-5.207-6.824,0-.728,0-1.456,0-2.316A18.2,18.2,0,0,1,34.9,61.78c0,1.01.013,1.848,0,2.684a6.283,6.283,0,0,1-4.743,6.268c-1.587.472-3.192.884-4.781,1.354-4.025,1.19-8.015,2.464-11.53,4.867A12.849,12.849,0,0,0,7.888,88.16c0,3.155-.028,6.31.014,9.465A2.6,2.6,0,0,1,6.924,100Zm55.46-78.732-.168.136a3.2,3.2,0,0,0,.151.308A57.174,57.174,0,0,1,67.3,36c2.836,9.592,2.818,19.529,3.644,29.365a1.489,1.489,0,0,1-1.518,1.668,1.515,1.515,0,0,1-1.586-1.6c-.265-3.536-.55-7.07-.76-10.609a81.3,81.3,0,0,0-3.119-19.007c-.4-1.316-.854-2.616-1.283-3.923l-.243.036c0,.178-.007.355,0,.533a33.832,33.832,0,0,0,.4,5.7A29,29,0,0,1,62.978,44c.009,3.157-.97,4.474-3.971,5.4a1.221,1.221,0,0,0-.264.181c0,1.421.075,2.856-.016,4.28-.155,2.427-.313,4.862-.666,7.265a8.551,8.551,0,0,1-2.126,4.637,1.544,1.544,0,0,1-2.188.169,1.636,1.636,0,0,1-.238-2.116,18.68,18.68,0,0,0,1.551-3.635,37.959,37.959,0,0,0,.636-4.516,32.9,32.9,0,0,0-2.64,2.536c-.848.846-2.1,1.494-2.523,2.5-.44,1.053-.114,2.432-.095,3.668a3.255,3.255,0,0,0,2.7,3.434c2.652.766,5.315,1.5,7.941,2.347,3.76,1.214,7.5,2.627,10.406,5.363a4.315,4.315,0,0,0,4.855,1.049c.062-.02.127-.028.189-.047a3.139,3.139,0,0,0,2.48-3.638c-.244-2.426-.519-4.85-.8-7.272-.642-5.555-1.09-11.142-1.991-16.655A46.47,46.47,0,0,0,64.139,24.057c-.922-.981-1.949-1.862-2.928-2.789M19.765,31.97l-.177-.065c-.117.285-.246.567-.349.857a78.741,78.741,0,0,0-4.122,22.264c-.192,3.475-.486,6.945-.749,10.417a1.515,1.515,0,0,1-1.595,1.6,1.563,1.563,0,0,1-1.509-1.874c.1-1.623.209-3.247.357-4.867.508-5.537.8-11.105,1.612-16.6a58.362,58.362,0,0,1,7.137-20.917q.4-.688.8-1.375a5.766,5.766,0,0,0-1.45,1.044A45.177,45.177,0,0,0,6.017,48.9C4.752,56.859,4.1,64.914,3.193,72.928A2.9,2.9,0,0,0,5.277,76.34a22.872,22.872,0,0,0,3.332.7.8.8,0,0,0,.581-.247c3.392-3.384,7.626-5.253,12.091-6.678,2.6-.829,5.232-1.552,7.847-2.329A3.259,3.259,0,0,0,31.773,64.3c.017-1.139.023-2.279-.009-3.417a1.3,1.3,0,0,0-.287-.858c-1.6-1.437-3.241-2.835-4.788-4.175a13.7,13.7,0,0,0,1.862,7.786,1.573,1.573,0,0,1-.134,2.335,1.556,1.556,0,0,1-2.3-.418,11.7,11.7,0,0,1-1.406-2.542,21.927,21.927,0,0,1-1.24-8.051c0-1.819,0-3.637,0-5.429-3.628-1.279-4.338-2.217-4.265-6.033.046-2.35-.246-4.7.483-7.059.422-1.367.076-2.969.076-4.465m36.066,5.441c-8.7-.018-16.788-1.024-23.075-7.015-2.03,2.137-3.977,4.174-5.9,6.234a1.248,1.248,0,0,0-.253.787c-.014,2.765-.062,5.533.013,8.3a14.468,14.468,0,0,0,13.327,14A14.186,14.186,0,0,0,55.094,48.76c.731-3.615.514-7.421.737-11.35M59.22,34.35A18.26,18.26,0,0,0,29.536,17.881c-4.819,3.958-7.938,11.906-6.475,16.4a2.757,2.757,0,0,0,3-1.168c1.593-1.968,3.183-3.939,4.734-5.94.831-1.073,1.712-1.216,2.709-.321.266.239.518.494.78.738a22.809,22.809,0,0,0,11.366,5.867c4.471.879,8.99.8,13.573.892M32.459,12.414A21.7,21.7,0,0,1,49.738,12.4c.063-.966.084-1.837.188-2.7.076-.635-.166-.815-.768-.934a14.315,14.315,0,0,1-7.449-3.982c-.2-.2-.413-.37-.612-.547-3.334,3.024-4.141,3.46-8.3,4.6-.207.057-.5.354-.5.539,0,.966.09,1.932.156,3.042M23.4,37.505a1.354,1.354,0,0,0-1.081,1.378q-.019,2.967,0,5.934A1.286,1.286,0,0,0,23.4,46.169Zm35.405,8.547.37.156c.224-.451.626-.9.642-1.355.07-2.01.075-4.026-.007-6.036-.019-.453-.484-.888-.743-1.331l-.262.161Z" transform="translate(0 0)" fill="#79c9bc"/>
    <path id="パス_413" data-name="パス 413" d="M111.455,331.49a2.133,2.133,0,0,1-1.159-2.165,36.4,36.4,0,0,0-.239-5.542,9.115,9.115,0,0,0-13.527-6.375,32.04,32.04,0,0,0-3.4,2.451c-2.763,2.1-4.753,2.109-7.5-.006-.567-.437-1.144-.862-1.691-1.322-2.863-2.41-6.111-2.71-9.548-1.662-3.5,1.068-5.752,4.344-5.91,8.46-.051,1.332-.057,2.668-.017,4a2.064,2.064,0,0,1-1.159,2.161h-.977a2.128,2.128,0,0,1-1.009-2.145c.178-2.36-.01-4.8.532-7.07,1.591-6.664,7.028-9.378,13.111-9.053a12.478,12.478,0,0,1,7.154,3.029q1.07.848,2.175,1.65a1.707,1.707,0,0,0,2.172,0c.97-.712,1.934-1.433,2.876-2.18,5.459-4.328,13.709-2.654,17.1,1.537a13.369,13.369,0,0,1,2.95,7.8c.088,1.427-.007,2.864.057,4.293a2.168,2.168,0,0,1-1.021,2.142Z" transform="translate(-48.279 -231.489)" fill="#79c9bc"/>
    <path id="パス_414" data-name="パス 414" d="M142.4,199.29a6.438,6.438,0,0,1-4.756-2.2,1.617,1.617,0,0,1-.054-2.35,1.588,1.588,0,0,1,2.333.215,3.235,3.235,0,0,0,5.035.019,1.6,1.6,0,0,1,2.332-.251,1.631,1.631,0,0,1-.083,2.421,6.458,6.458,0,0,1-4.807,2.15" transform="translate(-101.347 -143.631)" fill="#79c9bc"/>
    <path id="パス_415" data-name="パス 415" d="M123.987,148.987c0,.389.024.779-.006,1.165a1.532,1.532,0,0,1-1.5,1.486,1.505,1.505,0,0,1-1.584-1.394,16.442,16.442,0,0,1-.006-2.426,1.533,1.533,0,0,1,1.546-1.448,1.559,1.559,0,0,1,1.547,1.548c.023.355,0,.712,0,1.068" transform="translate(-89.326 -108.191)" fill="#79c9bc"/>
    <path id="パス_416" data-name="パス 416" d="M185.3,149.1a6.283,6.283,0,0,1-.015,1.258,1.448,1.448,0,0,1-1.589,1.267,1.422,1.422,0,0,1-1.464-1.4,18.312,18.312,0,0,1-.011-2.33,1.534,1.534,0,0,1,1.466-1.524,1.561,1.561,0,0,1,1.629,1.467c.041.417.007.841.007,1.262H185.3" transform="translate(-134.665 -108.19)" fill="#79c9bc"/>
  </g>
</svg>
