<svg xmlns="http://www.w3.org/2000/svg" xmlns:xlink="http://www.w3.org/1999/xlink" width="104.66" height="100" viewBox="0 0 104.66 100">
  <defs>
    <clipPath id="clip-path">
      <rect id="長方形_526" data-name="長方形 526" width="104.66" height="100" fill="#79c9bc"/>
    </clipPath>
  </defs>
  <g id="グループ_229" data-name="グループ 229" clip-path="url(#clip-path)">
    <path id="パス_401" data-name="パス 401" d="M104.66,85.347c-.518.671-1.079,1.262-2.043.9-.941-.356-1.028-1.143-1.03-2.01-.024-11.242-.339-22.471-1.4-33.67a140.52,140.52,0,0,0-3.3-20.745c-1.23-4.933-2.762-9.759-5.589-14.057C88.7,11.819,85.246,9.377,80.3,9.5a2.319,2.319,0,0,1-1.611-.811,7.4,7.4,0,0,0-11.947-.012,2.777,2.777,0,0,1-1.717.818c-1.178.134-2.382,0-3.571.072a12.128,12.128,0,0,0-11.062,9.344,14.968,14.968,0,0,1,1.96,2.484,7.17,7.17,0,0,1-2.565,8.663,1.888,1.888,0,0,0-.9,1.348A20.777,20.777,0,0,1,43.259,41.75c-.75.749-.746,1.238.047,1.946a15.483,15.483,0,0,0,6.536,3.426c2.14.553,4.3,1.024,6.444,1.56a1.544,1.544,0,0,1,1.354,1.829,1.49,1.49,0,0,1-1.951,1.141c-4.359-1.019-8.853-1.65-12.676-4.266-.039-.026-.124.015-.145.018-.18,2.073-.265,4.145-.554,6.189a34.633,34.633,0,0,1-6.808,16.723c-1.265,1.633-2.141,1.646-3.4.036a34.817,34.817,0,0,1-6.937-17.415c-.235-1.836-.307-3.693-.462-5.646a9.194,9.194,0,0,1-1.372.815,2.427,2.427,0,0,0-1.559,1.941c-.362,1.555-.734,3.114-1.218,4.635a8.438,8.438,0,0,0,1.949,8.883c2.508,2.683,5.047,5.341,7.654,7.927,1.326,1.315,2.829,2.452,4.258,3.662.886.75,1.084,1.672.5,2.389s-1.5.717-2.439-.01c-.081-.062-.164-.123-.239-.191-2.8-2.539-5.718-4.959-8.353-7.657a60.844,60.844,0,0,1-5.509-6.8,7.807,7.807,0,0,1-1.232-6.432c.384-1.794.78-3.586,1.165-5.38.059-.276.093-.558.166-1-3.827.972-7.487,1.875-11.124,2.863a1.833,1.833,0,0,0-1.045,1.084,38.091,38.091,0,0,0-1.156,4.54C3.585,67.123,3.3,75.8,3.051,84.48a8.244,8.244,0,0,0,2.378,6.368c2.142,2.183,4.4,4.249,6.618,6.361a1.541,1.541,0,0,1,.34,2.174,1.515,1.515,0,0,1-2.259.2,44.368,44.368,0,0,1-8.081-8.056A9.178,9.178,0,0,1,.015,85.37c.4-6.728.547-13.474,1.122-20.185A109.343,109.343,0,0,1,3.126,53.846,4.911,4.911,0,0,1,7.22,49.71c3.515-.79,7.006-1.69,10.5-2.584a15.49,15.49,0,0,0,6.612-3.5,1.1,1.1,0,0,0,.058-1.827A21.128,21.128,0,0,1,18.612,31.2a1.578,1.578,0,0,0-.639-.923,6.559,6.559,0,0,1-3.035-4.182c-.867-3.186,0-5.314,2.786-7.067a1.138,1.138,0,0,0,.361-.837c.033-1.736.073-3.476.005-5.21a10.539,10.539,0,0,1,3.682-8.411A18.1,18.1,0,0,1,45.743,4.5a10.385,10.385,0,0,1,3.738,8.381,5.9,5.9,0,0,0,.085.816c.6-.85,1.09-1.587,1.622-2.292A11.146,11.146,0,0,1,58.67,6.869c1.71-.25,3.454-.265,5.178-.435a1.966,1.966,0,0,0,1.141-.448,10.429,10.429,0,0,1,15.435,0,1.708,1.708,0,0,0,1.033.467,14.342,14.342,0,0,1,9.953,4.563A30.406,30.406,0,0,1,97.714,22a100.8,100.8,0,0,1,5.24,25.731c.749,8.575,1.053,17.19,1.557,25.786.028.47.1.938.149,1.406Zm-63.888-72.9a9.627,9.627,0,0,1-6.551,2.149c-2.889-.007-5.778-.219-8.665-.377a1.518,1.518,0,1,1,.2-3.029c1.7.052,3.4.274,5.095.265a32.826,32.826,0,0,0,5.974-.352c2.512-.482,4.324-3.561,3.85-6.081a1.079,1.079,0,0,0-.566-.6A15.025,15.025,0,0,0,23.526,7.137,7.572,7.572,0,0,0,21.152,12.9c.071,2.279.022,4.561.013,6.841-.007,1.551-.315,1.9-1.861,2.076A1.516,1.516,0,0,0,17.789,23.3a4.589,4.589,0,0,0,.775,3.4,2.163,2.163,0,0,0,1.164.9c1.327.178,1.579,1.069,1.757,2.142a17.746,17.746,0,0,0,4.021,8.793,11.479,11.479,0,0,0,6.535,4.092c3.6.712,6.548-.661,9.076-3.092a17.621,17.621,0,0,0,5.067-10.238A1.78,1.78,0,0,1,47.7,27.64c1.731-.411,2.882-3.907,1.732-5.257a2.316,2.316,0,0,0-1.354-.551c-1.245-.184-1.656-.577-1.661-1.85-.011-2.587.006-5.174-.007-7.761-.011-2.191-1.1-3.852-2.744-5.479a9.2,9.2,0,0,1-2.89,5.7m-4.759,51.29a1.45,1.45,0,0,0,.151-.776Q35.438,54.68,34.683,46.4a3.466,3.466,0,0,0-.111-.455H32.965c-.118,1.19-.25,2.427-.361,3.667-.373,4.164-.709,8.332-1.129,12.491A4.07,4.07,0,0,0,32.11,64.8c.535.857,1.048,1.726,1.716,2.831.831-1.471,1.526-2.674,2.188-3.895M28.98,55.756q.34-3.775.679-7.549c.031-.339.054-.678.083-1.018.2-2.393.523-1.763-1.849-2.719A36.7,36.7,0,0,0,28.98,55.756M39.421,44.524c-1.712.685-1.739.687-1.588,2.561.235,2.911.511,5.819.856,8.725a38.44,38.44,0,0,0,.968-11.276,1.1,1.1,0,0,0-.235-.01" transform="translate(0 0)" fill="#79c9bc"/>
    <path id="パス_402" data-name="パス 402" d="M206.539,104.63a6.654,6.654,0,0,1,5.436,11.884c-3.646,2.74-7.308,5.46-10.944,8.215a3.276,3.276,0,0,1-2.173.641,21.177,21.177,0,0,0-3.949.284,2.486,2.486,0,0,0-2.27,2.373c-.137,1.451-1.186,1.955-2.49,1.266-1.684-.89-3.4-1.748-4.987-2.785-2.418-1.576-4.774-3.253-7.095-4.971a5.5,5.5,0,0,1-2.148-3.593A80.2,80.2,0,0,1,174.835,96.9a12.837,12.837,0,0,1,5-9.373,25.665,25.665,0,0,1,7.612-3.615c1-.339,2.014-.634,2.979-1.048,1.089-.467,1.49-2.52.643-3.162a17.883,17.883,0,0,1-6.617-10.48,1.98,1.98,0,0,0-.808-1.03,7.027,7.027,0,0,1-3.14-6.385c.043-2.347,1-4.151,3.4-4.9.014-.281.033-.517.038-.753a15.677,15.677,0,0,1,31.344-.208c.017.391.237.993.526,1.118A4.685,4.685,0,0,1,218.7,61.5a7.649,7.649,0,0,1-3.127,6.709c.573.473,1.1.892,1.606,1.33a4.539,4.539,0,0,1,1.289,5.531,16.5,16.5,0,0,1-2.152,2.517,4.712,4.712,0,0,0-1,1.564c-.313,1.12-.837,1.7-1.742,1.581-.943-.122-1.415-.9-1.313-2.063.155-1.766,1.273-2.853,2.577-3.855,1.386-1.064,1.358-2.16-.019-3.243-.158-.124-.328-.231-.55-.386-.152.351-.289.652-.412.958a16.342,16.342,0,0,1-5.241,7.16,1.833,1.833,0,0,0-.838,2.039,1.953,1.953,0,0,0,1.472,1.734c.454.142.912.276,1.353.453,2.33.935,4.675,1.839,6.975,2.846a1.491,1.491,0,0,1,.865,2.167c-.431.805-1.284.953-2.294.523-2.03-.864-4.081-1.677-6.129-2.5-.914-.366-1.859-.657-2.76-1.053a3.9,3.9,0,0,1-2.3-2.818c-.083-.351-.187-.7-.3-1.115a14.766,14.766,0,0,1-10.212-.007c-.182,2.775-1.936,3.905-4.2,4.654a68.046,68.046,0,0,0-6.382,2.415c-3.861,1.724-5.709,4.94-6.056,9.015a82.575,82.575,0,0,0,.893,18.626,4.786,4.786,0,0,0,1.082,2.661c2.987,2.864,6.639,4.77,10.246,6.838,1.054-2.053,2.838-2.872,5.018-3.362-.4-.32-.669-.554-.956-.77q-3.431-2.573-6.868-5.139a6.622,6.622,0,0,1-2.679-4.309c-.379-2.212-.8-4.419-1.113-6.641-.329-2.342-1.126-4.626-.738-7.062a8.813,8.813,0,0,1,11.933-7.016,29.225,29.225,0,0,1,4.3,2.306,1.041,1.041,0,0,0,1.346,0,24.758,24.758,0,0,1,2.7-1.635,9.491,9.491,0,0,1,6.793-1.1,9.321,9.321,0,0,1,6.869,9.069,1.5,1.5,0,0,1-1.4,1.581,1.517,1.517,0,0,1-1.65-1.449c-.027-.2-.014-.408-.029-.612-.283-3.835-4.04-7.165-8.253-5.156a40.905,40.905,0,0,0-4.378,2.59,1.9,1.9,0,0,1-2.671-.006,33.069,33.069,0,0,0-4.382-2.579c-3.7-1.63-7.631.44-8.049,4.469-.239,2.3.379,4.691.636,7.3a7.129,7.129,0,0,1,6.76-1.509c1.267-2.906,3.353-4.591,6.555-4.519,3.02.067,4.979,1.73,6.2,4.519l.548-.121M184.794,63.09a8.018,8.018,0,0,1,4.117-4.479c1.954-.94,4.015-1.657,6.02-2.494,1.723-.719,3.476-1.383,5.136-2.228,1.892-.963,3.314-2.35,3.469-4.684a1.371,1.371,0,0,1,1.635-1.3,1.474,1.474,0,0,1,1.358,1.621,7.047,7.047,0,0,1-2.553,5.361,22.552,22.552,0,0,1-7.351,3.884c-1.811.685-3.661,1.286-5.421,2.085-3.419,1.552-4.614,3.95-3.755,7.621,1.182,5.054,3.87,8.931,9.058,10.5a11.451,11.451,0,0,0,12.614-4.508,15.275,15.275,0,0,0,2.817-6.814,2.17,2.17,0,0,1,1.707-2.078c1.381-.4,1.825-1.762,1.971-3.083.173-1.571-.075-2.748-2.054-2.736-.981.006-1.3-.822-1.349-1.733a30.048,30.048,0,0,0-.266-4.063,12.589,12.589,0,0,0-24.939,2.294c-.008.681.023,1.363-.017,2.042a1.476,1.476,0,0,1-1.291,1.485c-1.96.374-2.5,1.191-2.043,3.176.117.507.338.989.6,1.725.238-.709.372-1.16.539-1.6m23.082,51.625a3.6,3.6,0,1,0-1.789-6.577,3.293,3.293,0,0,1-1.459.609c-.907.048-1.389-.7-1.439-1.961a3.518,3.518,0,0,0-2.412-3.32,3.366,3.366,0,0,0-3.859,1.08,5.669,5.669,0,0,0-.867,2.324c-.115.7-.149,1.354-.844,1.725-.748.4-1.35.062-1.971-.367a3.571,3.571,0,0,0-5.171.98,3.507,3.507,0,0,0,1.242,4.949,5.425,5.425,0,0,0,2.338.544c2.652.065,5.308.025,7.962.025,2.756,0,5.513.03,8.269-.011m-8.262,7.228,5.42-4.056H194.2l5.414,4.056" transform="translate(-126.904 -29.62)" fill="#79c9bc"/>
    <path id="パス_403" data-name="パス 403" d="M307.051,225.732c-1.139.035-1.958,1.016-1.549,1.914,1.8,3.958,1.438,8.139,1.268,12.266-.149,3.631-.635,7.247-.951,10.871a4.625,4.625,0,0,1-2.22,3.7q-4.735,3-9.49,5.969c-.46.288-.97.5-1.429.786a1.489,1.489,0,0,0-.636,2.019,1.461,1.461,0,0,0,2,.679c4.451-2.353,8.876-4.746,12.676-8.127,1.834-1.632,2.154-3.848,2.313-6.031.385-5.288.635-10.588.839-15.888a15.753,15.753,0,0,0-1.387-6.949c-.311-.713-.747-1.211-1.432-1.209" transform="translate(-212.184 -164.105)" fill="#79c9bc"/>
    <path id="パス_404" data-name="パス 404" d="M119.223,302.736a1.742,1.742,0,0,0,1.73-1.747,1.786,1.786,0,0,0-1.8-1.7,1.73,1.73,0,0,0-1.651,1.719,1.675,1.675,0,0,0,1.716,1.731" transform="translate(-85.426 -217.577)" fill="#79c9bc"/>
    <path id="パス_405" data-name="パス 405" d="M120.957,330.93a1.786,1.786,0,0,0-1.8-1.7,1.728,1.728,0,0,0-1.647,1.821,1.67,1.67,0,0,0,1.715,1.628,1.742,1.742,0,0,0,1.729-1.748" transform="translate(-85.43 -239.345)" fill="#79c9bc"/>
    <path id="パス_406" data-name="パス 406" d="M107.255,129.235A7.709,7.709,0,0,0,112.9,126.7a1.534,1.534,0,1,0-2.182-2.139c-2.434,2.175-4.515,2.164-7-.037a1.53,1.53,0,1,0-2.185,2.135,7.741,7.741,0,0,0,5.718,2.576" transform="translate(-73.448 -90.143)" fill="#79c9bc"/>
    <path id="パス_407" data-name="パス 407" d="M91.931,91.226a4.621,4.621,0,0,0,3.421-1.289,1.5,1.5,0,0,0,.184-2.111,1.438,1.438,0,0,0-2.091-.237,1.9,1.9,0,0,1-2.662,0,1.43,1.43,0,0,0-2.088.25,1.506,1.506,0,0,0,.2,2.108,4.354,4.354,0,0,0,3.038,1.283" transform="translate(-64.231 -63.424)" fill="#79c9bc"/>
    <path id="パス_408" data-name="パス 408" d="M135.3,91.241a4.5,4.5,0,0,0,3.243-1.248,1.532,1.532,0,0,0,.255-2.108,1.447,1.447,0,0,0-2.16-.25,1.866,1.866,0,0,1-2.576,0,1.452,1.452,0,0,0-2.163.252,1.437,1.437,0,0,0,.279,2.083,26.96,26.96,0,0,0,2.986,1.546l.135-.272" transform="translate(-95.655 -63.439)" fill="#79c9bc"/>
    <path id="パス_409" data-name="パス 409" d="M252.359,160.315a6.419,6.419,0,0,0,4.679-2.062,1.556,1.556,0,0,0,.114-2.27,1.51,1.51,0,0,0-2.26.089c-1.827,1.585-3.248,1.575-5.114-.035a1.529,1.529,0,1,0-2.152,2.165,6.435,6.435,0,0,0,4.733,2.113" transform="translate(-179.64 -113.059)" fill="#79c9bc"/>
    <path id="パス_410" data-name="パス 410" d="M277.885,127.047a4.434,4.434,0,0,0,3.164-1.186,1.516,1.516,0,0,0,.3-2.173,1.475,1.475,0,0,0-2.17-.224,1.862,1.862,0,0,1-2.576-.029,1.464,1.464,0,0,0-2.1.211,1.5,1.5,0,0,0,.229,2.179,4.417,4.417,0,0,0,3.149,1.223" transform="translate(-199.295 -89.483)" fill="#79c9bc"/>
    <path id="パス_411" data-name="パス 411" d="M234.685,127.036a4.414,4.414,0,0,0,3.226-1.28,1.516,1.516,0,0,0,.18-2.11,1.458,1.458,0,0,0-2.093-.234,1.893,1.893,0,0,1-2.657-.01,1.464,1.464,0,0,0-2.091.254,1.5,1.5,0,0,0,.208,2.108,4.4,4.4,0,0,0,3.228,1.272" transform="translate(-167.868 -89.472)" fill="#79c9bc"/>
  </g>
</svg>
