<svg xmlns="http://www.w3.org/2000/svg" width="391.526" height="179.726" viewBox="0 0 391.526 179.726">
  <path id="パス_931" data-name="パス 931" d="M-163.332-16.926a19.712,19.712,0,0,0-1.9-.858V1.794h1.586V-.572h12.766V1.794h1.586V-15.782l.65-.442a.33.33,0,0,0,.182-.286q-.039-.39-1.716-1.638l-.988,1.222h-7.462a16.113,16.113,0,0,0,1.846-3.12c.7-.13,1.066-.312,1.066-.546,0-.364-.858-.7-2.6-1.014a26.666,26.666,0,0,1-1.2,4.68Zm-.312.65h12.766v4.394h-12.766Zm12.766,9.542h-12.766v-4.5h12.766Zm0,5.512h-12.766V-6.084h12.766Zm11.336-7.436A21.77,21.77,0,0,0-135.1-12.35a26.406,26.406,0,0,0,4.212-6.552c.728-.156,1.092-.338,1.092-.572q0-.507-2.34-1.326a25.6,25.6,0,0,1-7.826,11.622Zm12.818-11.778q.975,2.067,1.872,3.588a25.464,25.464,0,0,0,6.188,6.994,4.592,4.592,0,0,1,1.352-1.586,25.288,25.288,0,0,1-8.762-9.36Zm-4.888,9.906a20.063,20.063,0,0,1-1.066,5.122,12.619,12.619,0,0,1-6.162,6.656l.364.572a13.09,13.09,0,0,0,6.292-4.836,15.962,15.962,0,0,0,2.21-7.514h6.188a39,39,0,0,1-.7,8.294c-.26,1.092-.832,1.638-1.742,1.638a33.483,33.483,0,0,1-4.082-.364v.7a13.474,13.474,0,0,1,2.73.624c.65.26.988.65.988,1.17a3.169,3.169,0,0,0,3.042-1.56c.832-1.534,1.248-4.836,1.274-9.958l.546-.416a.5.5,0,0,0,.26-.39c0-.234-.52-.754-1.534-1.56l-.988,1.17h-11.96l.208.65ZM-102.284.832c7.514,0,10.79-3.9,10.79-7.15,0-2.366-1.69-4.368-4.784-4.368-2.028,0-4.654.858-7.748,3.094a2.656,2.656,0,0,1-1.378.572c-.364,0-.624-.234-.624-.858a2.245,2.245,0,0,1,.026-.39l.7-5.824c.13-1.118.546-1.924,2.08-1.924a7.882,7.882,0,0,1,2.158.364,4.033,4.033,0,0,0,.884.13c.754,0,1.144-.39,1.144-1.014a2.974,2.974,0,0,0-.546-1.508c-.832-1.248-1.664-2-4.55-2.106-.286,0-.494.13-.494.312,0,.156.13.286.468.442A5.11,5.11,0,0,1-101.5-17.42a.334.334,0,0,1,.1.26.279.279,0,0,1-.312.286c-2.288.312-4.5.468-4.836,2.782s-.78,5.33-.884,7.254c-.078,1.4.624,2.314,1.638,2.314a3.021,3.021,0,0,0,1.976-1.014c2.912-2.912,5.46-4.03,7.332-4.03a3.332,3.332,0,0,1,3.562,3.406c0,2.834-3.094,6.4-10.764,6.318-.416,0-.624.156-.624.312,0,.13.182.286.572.312C-103.246.806-102.778.832-102.284.832Zm29.952.156c3.12,0,7.046-1.976,10.27-5.876a.842.842,0,0,0,.234-.494.212.212,0,0,0-.234-.208.8.8,0,0,0-.546.286C-65.676-2.34-69.134-.7-71.786-.7c-2.47,0-4.238-1.43-4.238-4.524,0-.234,0-.494.026-.754.494-5.694,1.378-8.788,1.378-10.686a2.59,2.59,0,0,0-1.534-2.626,1.257,1.257,0,0,0-.546-.156c-.286,0-.442.156-.442.39a1.1,1.1,0,0,0,.26.65,2.434,2.434,0,0,1,.416,1.612c0,1.534-.52,4.394-1.118,10.946-.026.364-.052.7-.052,1.014C-77.636-.91-75.374.988-72.332.988Zm31.174.676c.416,0,.806-.364.806-1.04A2.276,2.276,0,0,0-40.4.208c-.832-4.082-2.418-5.928-5.564-9.594a1.008,1.008,0,0,1-.26-.676,1.206,1.206,0,0,1,.1-.494,17.655,17.655,0,0,1,5.3-6.344,2.053,2.053,0,0,0,.936-1.716,2.923,2.923,0,0,0-.65-1.742.936.936,0,0,0-.676-.442c-.286,0-.494.26-.494.728a2.379,2.379,0,0,0,.026.416.884.884,0,0,1,.026.26c0,1.612-2.886,3.406-5.434,8.4a2.057,2.057,0,0,0-.234.91,1.925,1.925,0,0,0,.442,1.248A21.621,21.621,0,0,1-42.25.494C-42.068,1.3-41.6,1.664-41.158,1.664Zm27.9-9.1h7.592l.312-.572A15.885,15.885,0,0,0-7.1-9.932L-8.45-8.086h-4.81V-14.17h8.866l.286-.52a15.124,15.124,0,0,0-1.768-1.976L-7.254-14.82H-13.26V-19.6c.754-.286,1.144-.546,1.144-.78,0-.39-.936-.624-2.782-.7v6.266H-20.41c.416-1.118.78-2.236,1.092-3.3.78-.13,1.17-.312,1.17-.572,0-.364-.858-.754-2.6-1.2A28.57,28.57,0,0,1-25.116-8.554l.546.39A23.524,23.524,0,0,0-20.7-14.17h5.8v6.084h-7.7l.26.65H-14.9v7.02H-25.636l.26.65h22.2l.286-.52A23.612,23.612,0,0,0-4.706-2.34L-6.188-.416H-13.26Zm34.736-7.072a54.239,54.239,0,0,1-5.33-1.092,8.24,8.24,0,0,0,1.274-.6c.468-.26.676-.546.676-.78,0-.39-.52-.7-1.118-.7a2.087,2.087,0,0,0-.78.156c-.39.182-.884.442-1.4.676-1.17-2.574-1.716-3.172-3.094-3.484a3.072,3.072,0,0,0-.78-.1c-.546,0-.884.182-.884.442s.338.6,1.092.91a5.679,5.679,0,0,1,2.418,2.73,8.1,8.1,0,0,1-2.392.416,5.651,5.651,0,0,1-1.82-.286.469.469,0,0,0-.26-.052c-.26,0-.416.13-.416.312s.13.39.468.546a7.815,7.815,0,0,0,2.964.494,11.443,11.443,0,0,0,2.08-.182c.468,1.04.936,2.21,1.43,3.484a13.013,13.013,0,0,1-3.874.65,7.971,7.971,0,0,1-3.8-.884,1,1,0,0,0-.494-.13c-.26,0-.442.13-.442.312,0,.156.13.338.416.546a7.838,7.838,0,0,0,4.628,1.3,15.391,15.391,0,0,0,4.03-.572c.416,1.144.858,2.34,1.3,3.588a1.92,1.92,0,0,1,.052.312c0,.234-.13.338-.39.338a2.7,2.7,0,0,1-.39-.052,12.2,12.2,0,0,0-3.328-.468c-3.64,0-5.772,1.872-5.772,3.77C7.54-.962,9.75.962,14.82.962c.7,0,1.482-.026,2.34-.1C17.966.78,18.33.416,18.33.026c0-.494-.65-1.066-1.742-1.066a2.379,2.379,0,0,0-.442.026,25.047,25.047,0,0,1-2.886.208c-3.3,0-4.6-1.04-4.6-2.132,0-1.352,1.846-2.808,4.316-2.808a6.924,6.924,0,0,1,4,1.326,1.869,1.869,0,0,0,1.04.364,1.417,1.417,0,0,0,1.4-1.534,3.069,3.069,0,0,0-.286-1.17c-.676-1.508-1.248-2.834-1.742-4.03a24.525,24.525,0,0,0,4.5-1.95,1.057,1.057,0,0,0,.65-.884C22.542-14.04,22.152-14.43,21.476-14.508ZM19.448-13.26a24.279,24.279,0,0,1-2.6,1.2c-.52-1.2-.936-2.21-1.326-3.094a37.983,37.983,0,0,0,3.77,1.274c.286.078.416.208.416.338C19.708-13.442,19.6-13.338,19.448-13.26Zm24.8,1.586a10.113,10.113,0,0,0-4.472,1.092.37.37,0,0,1-.156.052.056.056,0,0,1-.052-.052.346.346,0,0,1,.078-.182,52.189,52.189,0,0,1,5.8-6.24,1.853,1.853,0,0,0,.676-1.378A1.18,1.18,0,0,0,44.876-19.6a3.375,3.375,0,0,0-1.742.624c-2.262,1.456-3.848,2.34-5.2,2.34a2.458,2.458,0,0,1-1.2-.286,1.072,1.072,0,0,0-.442-.1.37.37,0,0,0-.364.416,1.619,1.619,0,0,0,.78,1.2,1.941,1.941,0,0,0,1.17.338c1.118,0,2.756-.728,5.356-2.47a.783.783,0,0,1,.364-.156.178.178,0,0,1,.182.182.758.758,0,0,1-.156.39c-.364.494-8.138,10.062-9.542,11.726A2.335,2.335,0,0,0,33.54-4.03c0,.572.312.962.728.962.364,0,.884-.364,1.378-1.3,2.288-4.524,5.486-6.11,8.19-6.11,3.042,0,5.486,2,5.512,4.134-.026,3.562-2.912,5.018-5.564,5.3a2.365,2.365,0,0,0,.182-.91c0-1.274-1.248-1.82-2.574-1.82-1.482,0-3.068.676-3.068,1.742C38.324-.7,40.716.26,43.394.26c3.51,0,7.514-1.664,7.514-6.448C50.908-9.646,47.814-11.674,44.252-11.674ZM39.676-2.028c-.026-.624.7-.988,1.43-.988.754,0,1.508.39,1.508,1.118a1.891,1.891,0,0,1-.312.936C40.82-1.04,39.65-1.482,39.676-2.028ZM77.246-16.9a5.473,5.473,0,0,0-.65.052c-3.978.442-6.37.65-9.412.754,0-.624-.208-1.274-1.976-1.534a2.007,2.007,0,0,0-.39-.052c-.468,0-.7.182-.7.416,0,.182.13.39.442.572.858.572.78.728,1.092,6.656A1.252,1.252,0,0,0,66.768-8.71c.494,0,.936-.364.936-1.144,0-.13-.026-.26-.026-.39a24.457,24.457,0,0,1-.52-4.394,80.994,80.994,0,0,1,9.464-.832.467.467,0,0,1,.546.494v.052A19.456,19.456,0,0,1,66.638.754c-.286.156-.416.338-.416.442,0,.078.078.13.208.13a1.018,1.018,0,0,0,.338-.078,19.8,19.8,0,0,0,12.4-14.82,6.051,6.051,0,0,0,.156-1.274A1.817,1.817,0,0,0,77.246-16.9Zm30.836,1.066c0-.624-.364-.988-1.144-.988a3.315,3.315,0,0,0-.494.026,36.473,36.473,0,0,1-5.694.52c.052-.13.13-.286.182-.442A3.754,3.754,0,0,0,101.3-18.1c0-.7-.416-1.326-1.69-1.794a1.643,1.643,0,0,0-.546-.13c-.286,0-.494.13-.494.364a1.483,1.483,0,0,0,.572.884,1.433,1.433,0,0,1,.39,1.04,3.442,3.442,0,0,1-.338,1.326A17.7,17.7,0,0,1,92.638-8.4c-.26.182-.364.364-.364.494a.21.21,0,0,0,.234.182.678.678,0,0,0,.286-.078c3.666-1.976,5.668-3.718,7.436-7.384,1.482-.078,3.25-.182,5.2-.39a.294.294,0,0,1,.364.312l-.026.182a27.626,27.626,0,0,1-2.132,5.512,17.162,17.162,0,0,0-3.042-1.638.9.9,0,0,0-.338-.078c-.182,0-.286.078-.286.182,0,.156.13.338.416.494a7.875,7.875,0,0,1,2.522,2.236C100.7-4.914,97.344-2.184,91.754.52c-.286.13-.442.312-.442.442,0,.1.1.182.26.182a1.018,1.018,0,0,0,.338-.078C97.4-.962,100.854-3.38,103.662-7.15c.156.312.312.624.442.962a1.92,1.92,0,0,0,1.612,1.326.9.9,0,0,0,.91-.962,2.436,2.436,0,0,0-.364-1.092,7.609,7.609,0,0,0-1.534-1.794,47.52,47.52,0,0,0,2.938-5.668A3.8,3.8,0,0,0,108.082-15.834Zm18.356,4.186a.956.956,0,0,0,1.014-.962,1.925,1.925,0,0,0-.468-1.092,6.784,6.784,0,0,0-5.252-2.054h-.624c-.364.026-.546.156-.546.312s.208.312.52.364a6.557,6.557,0,0,1,4.134,2.808A1.572,1.572,0,0,0,126.438-11.648ZM123.344-.286c4.94,0,11.8-7.514,16.2-14.17a.755.755,0,0,0,.156-.416c0-.156-.078-.234-.208-.234a.908.908,0,0,0-.65.442c-5.9,7.9-12.22,12.3-14.95,12.3a2.039,2.039,0,0,1-1.638-.572.819.819,0,0,0-.572-.26c-.286,0-.52.208-.52.65a2.63,2.63,0,0,0,.26,1.014A2.008,2.008,0,0,0,123.344-.286Zm.78-6.942a.91.91,0,0,0,.936-.91,1.568,1.568,0,0,0-.442-1.014,6.272,6.272,0,0,0-4.758-1.716c-.26,0-.546.026-.806.052-.286,0-.442.156-.442.286,0,.156.156.312.494.364a6.092,6.092,0,0,1,3.8,2.21A1.531,1.531,0,0,0,124.124-7.228Zm43.342,3.822A1.312,1.312,0,0,0,168.9-4.5c0-.364-.286-.676-.91-.7-2.808-.1-6.942-4.446-11.414-9.022a1.953,1.953,0,0,0-1.378-.806,2.051,2.051,0,0,0-1.43.936c-.936,1.118-3.562,4.654-5.382,4.654a.8.8,0,0,1-.26-.026,2.049,2.049,0,0,0-.52-.052c-.442,0-.65.156-.65.416,0,.364.468.884,1.352,1.2a2.528,2.528,0,0,0,.7.13c2.132,0,3.77-3.354,5.2-5.434.338-.442.65-.7,1.04-.7s.78.26,1.222.832C161.278-6.994,164.164-3.406,167.466-3.406ZM-134.5,33.124c-.858-.442-1.508-.78-1.924-.962v20.93h1.638V50.856H-122.9v1.976h1.612V34.346l.7-.468a.367.367,0,0,0,.208-.312c0-.26-.572-.858-1.69-1.768l-1.092,1.326Zm-.286.65H-122.9v7.618h-11.882ZM-122.9,50.206h-11.882V42.042H-122.9ZM-99.45,35.178V31.59c.7-.234,1.066-.468,1.066-.676,0-.338-.858-.52-2.548-.6v4.862h-7.618a9.317,9.317,0,0,1-.1-.988l-.7-.1a7,7,0,0,1-1.768,4.342,1.376,1.376,0,0,0-.364.806c0,.6.312.884.962.884.52,0,.962-.39,1.352-1.17a7.479,7.479,0,0,0,.65-3.12H-91.13a10.79,10.79,0,0,1-1.326,2.626l.494.364a31.492,31.492,0,0,0,2.34-2.184l.91-.156c.208-.026.312-.13.312-.26,0-.338-.6-1.092-1.82-2.21l-.936,1.17h-4.6a32.876,32.876,0,0,0,2.34-2.574c.754-.026,1.118-.156,1.118-.39,0-.338-.78-.832-2.314-1.43a26.429,26.429,0,0,1-2.106,4.394Zm-8.268-3.666a5.265,5.265,0,0,1,2.106,2.808c.13.546.416.832.832.832.65,0,.988-.364.988-1.066q0-1.755-3.588-3.042Zm2.964,6.6a16.365,16.365,0,0,0-1.638-.65v6.188h1.456V42.588h3.978v2.756H-106.7q-.507-.234-1.326-.546l-.39-.13v7.618h1.508V45.994h5.954v7.878h1.534V45.994h6.214V49.5c0,.494-.286.728-.858.728-.884,0-2.028-.078-3.406-.208V50.7a11.046,11.046,0,0,1,2.366.494,1.087,1.087,0,0,1,.884.988c1.69-.078,2.522-.754,2.522-1.976V46.488l.6-.416q.234-.156.234-.312c0-.208-.52-.7-1.56-1.508l-.988,1.092h-6.006V42.588h3.874v.962h1.456V39.312l.572-.442c.156-.13.234-.234.234-.338.026-.182-.494-.676-1.534-1.43l-.884,1.014Zm-.182.65h9.386v3.172h-9.386Zm35.256-4.472c-5.356,0-11.232,3.744-11.232,10.244,0,3.146,1.508,4.836,3.328,4.836,2.782,0,6.292-3.848,6.292-12.35,0-.52-.026-1.014-.052-1.56.39-.026.754-.052,1.118-.052,3.926,0,7.618,2.392,7.618,7.462,0,5.876-5.746,7.93-10.608,7.982-.286.026-.442.156-.442.286s.13.26.442.312a19,19,0,0,0,2.08.13c5.668,0,10.192-3.12,10.192-8.788C-60.944,36.946-65.156,34.294-69.68,34.294Zm-2.626,1.794c0,7.618-3.146,11.1-5.278,11.1-1.144,0-1.9-.936-1.9-2.834a8.729,8.729,0,0,1,7.176-8.71Zm33.28,16.77c1.144.026,1.586-.286,1.586-.7,0-.624-1.04-1.43-2.314-1.352h-.416c-2.782,0-4.082-1.716-4.082-3.51a4.056,4.056,0,0,1,2.626-3.77,25.258,25.258,0,0,1,6.552-1.56c.78-.078,1.144-.468,1.144-.858,0-.494-.546-1.014-1.456-1.014a2.733,2.733,0,0,0-.858.156,120.69,120.69,0,0,0-12.506,4.5.482.482,0,0,1-.182.052c-.13,0-.208-.078-.208-.234a.71.71,0,0,1,.182-.39,99.111,99.111,0,0,1,9.386-9.308,1.783,1.783,0,0,0,.676-1.274,1.173,1.173,0,0,0-1.326-1.118,2.813,2.813,0,0,0-1.04.234,11.421,11.421,0,0,1-3.874.936,3.732,3.732,0,0,1-1.69-.364.8.8,0,0,0-.338-.078.48.48,0,0,0-.468.52A1.8,1.8,0,0,0-46.8,35a1.986,1.986,0,0,0,1.248.39,8.129,8.129,0,0,0,3.64-1.222.419.419,0,0,1,.234-.078c.078,0,.13.052.13.156a.415.415,0,0,1-.078.208c-3.666,4.134-6.084,6.838-8.762,9.62a1.914,1.914,0,0,0-.572,1.352,1.057,1.057,0,0,0,1.144,1.118,3.316,3.316,0,0,0,1.144-.286c1.82-.78,3.12-1.326,4.368-1.82a.35.35,0,0,1,.208-.052c.078,0,.13.026.13.078a.352.352,0,0,1-.13.234,4.449,4.449,0,0,0-1.4,3.2C-45.5,50.284-43.394,52.7-39.026,52.858ZM-12.48,34.294c-5.356,0-11.232,3.744-11.232,10.244,0,3.146,1.508,4.836,3.328,4.836,2.782,0,6.292-3.848,6.292-12.35,0-.52-.026-1.014-.052-1.56.39-.026.754-.052,1.118-.052,3.926,0,7.618,2.392,7.618,7.462,0,5.876-5.746,7.93-10.608,7.982-.286.026-.442.156-.442.286s.13.26.442.312a19,19,0,0,0,2.08.13c5.668,0,10.192-3.12,10.192-8.788C-3.744,36.946-7.956,34.294-12.48,34.294Zm-2.626,1.794c0,7.618-3.146,11.1-5.278,11.1-1.144,0-1.9-.936-1.9-2.834a8.729,8.729,0,0,1,7.176-8.71Zm30.134.546h8.138l.312-.52A12.63,12.63,0,0,0,21.71,34.19l-1.352,1.794h-5.33V32.032c.754-.286,1.144-.546,1.144-.806,0-.39-.884-.6-2.678-.676v5.434h-5.2A25.736,25.736,0,0,0,9.36,33.046c.7-.156,1.066-.338,1.066-.572q0-.585-2.418-1.092A23.584,23.584,0,0,1,4.29,40.794l.546.39a17.983,17.983,0,0,0,3.146-4.55h5.512V42.25H3.146l.286.65h6.942a12.548,12.548,0,0,1-.962,4.6Q7.774,51.207,2.782,53.2l.364.624c2.99-.91,5.174-2.158,6.5-3.8A11.56,11.56,0,0,0,12.012,42.9H15.86v8.216a2.218,2.218,0,0,0,.364,1.4c.39.416,1.9.624,4.5.624a19.135,19.135,0,0,0,3.952-.234,1.379,1.379,0,0,0,.988-1.482.806.806,0,0,1-.78-.338,5.561,5.561,0,0,1-.286-2.236c0-.624,0-1.17.026-1.638l-.7-.286c-.234,2.99-.65,4.576-1.274,4.758a10.786,10.786,0,0,1-2.444.156,8.918,8.918,0,0,1-2.418-.208c-.234-.1-.364-.364-.364-.806V42.9h7.644l.312-.572a17.007,17.007,0,0,0-1.846-1.95L22.048,42.25h-7.02Zm29.692-2.34c-5.356,0-11.232,3.744-11.232,10.244,0,3.146,1.508,4.836,3.328,4.836,2.782,0,6.292-3.848,6.292-12.35,0-.52-.026-1.014-.052-1.56.39-.026.754-.052,1.118-.052,3.926,0,7.618,2.392,7.618,7.462,0,5.876-5.746,7.93-10.608,7.982-.286.026-.442.156-.442.286s.13.26.442.312a19,19,0,0,0,2.08.13c5.668,0,10.192-3.12,10.192-8.788C53.456,36.946,49.244,34.294,44.72,34.294Zm-2.626,1.794c0,7.618-3.146,11.1-5.278,11.1-1.144,0-1.9-.936-1.9-2.834a8.729,8.729,0,0,1,7.176-8.71Zm28.574,2.288H60.216l.286.65H82.576l.286-.494a11.771,11.771,0,0,0-1.872-1.9l-1.352,1.742H72.2V35.022h7.826l.286-.468a9.3,9.3,0,0,0-1.794-1.846l-1.3,1.664H72.2V32.11c.7-.26,1.066-.494,1.066-.7,0-.364-.858-.572-2.6-.624v3.588H62.66l.234.65h7.774ZM60.554,43.6l.286.65h9.8v3.822H61.906l.26.65h8.476v5.148h1.586V48.724h8.606l.26-.468A11.559,11.559,0,0,0,79.17,46.28l-1.43,1.794H72.228V44.252H82.16l.286-.494a10.9,10.9,0,0,0-1.82-1.924L79.248,43.6H74.1a27.584,27.584,0,0,0,2.262-2.678c.728-.026,1.092-.13,1.092-.364,0-.39-.754-.832-2.288-1.378a24.606,24.606,0,0,1-1.924,4.42ZM65.6,39.728a4.853,4.853,0,0,1,1.794,2.886c.078.52.338.78.754.78.65,0,.962-.338.962-1.04q0-1.755-3.12-3.042Zm45.214-.91a6.245,6.245,0,0,1-5.356-2.028v-.364a3.119,3.119,0,0,0-1.4-3.068,1.319,1.319,0,0,0-.676-.234.534.534,0,0,0-.6.546,1.32,1.32,0,0,0,.338.78,6.7,6.7,0,0,1,.936,3.952c0,.312,0,.624-.026.936-3.042.286-5.3.572-7.072.78.052-.962.078-1.742.078-2.418,0-2.184-.39-2.964-2.236-3.562a1.293,1.293,0,0,0-.416-.078c-.364,0-.6.208-.6.468,0,.234.182.546.65.832.754.494.936,2.054.988,4.94-.806.078-1.508.13-2.132.13a6.806,6.806,0,0,1-2.782-.494,1.776,1.776,0,0,0-.572-.13.725.725,0,0,0-.78.728c0,.6.676,1.43,2.288,1.43.754,0,2.158-.182,4-.39.026,1.378.026,2.99.078,4.862.1,4.5,3.12,5.668,6.682,5.668a18.541,18.541,0,0,0,2.678-.182c1.092-.13,1.56-.52,1.56-.91,0-.468-.65-.91-1.716-.91a6.489,6.489,0,0,0-.65.052,19.5,19.5,0,0,1-3.12.312c-2.418,0-4.108-.806-4.134-3.536V45.5c0-1.586.026-2.964.078-4.108,2-.234,4.394-.468,6.994-.6a23.34,23.34,0,0,1-.624,3.25.446.446,0,0,1-.442.338.653.653,0,0,1-.442-.182,9.454,9.454,0,0,0-1.508-.988.97.97,0,0,0-.416-.1c-.156,0-.26.052-.26.182a.851.851,0,0,0,.338.494,8.215,8.215,0,0,1,1.794,2.21,1.235,1.235,0,0,0,1.066.78c.754,0,1.482-.832,1.534-2.08.052-1.508.13-2.808.208-3.952.7-.026,1.43-.026,2.158-.026,1.144,0,2.288.026,3.458.1,1.2.052,1.768-.442,1.768-.962S111.93,38.792,110.812,38.818ZM106.5,39.1c-.416.026-.832.078-1.222.1.052-.52.1-1.014.13-1.456a4.767,4.767,0,0,0,1.092.962c.156.1.286.208.286.286C106.782,39.052,106.7,39.1,106.5,39.1Zm32.37,9.49A1.312,1.312,0,0,0,140.3,47.5c0-.364-.286-.676-.91-.7-2.808-.1-6.942-4.446-11.414-9.022a1.953,1.953,0,0,0-1.378-.806,2.051,2.051,0,0,0-1.43.936c-.936,1.118-3.562,4.654-5.382,4.654a.8.8,0,0,1-.26-.026,2.049,2.049,0,0,0-.52-.052c-.442,0-.65.156-.65.416,0,.364.468.884,1.352,1.2a2.528,2.528,0,0,0,.7.13c2.132,0,3.77-3.354,5.2-5.434.338-.442.65-.7,1.04-.7s.78.26,1.222.832C132.678,45.006,135.564,48.594,138.866,48.594Zm-330.8,38.48a19.711,19.711,0,0,0-1.9-.858v19.578h1.586v-2.366h12.766v2.366h1.586V88.218l.65-.442a.33.33,0,0,0,.182-.286q-.039-.39-1.716-1.638l-.988,1.222h-7.462a16.113,16.113,0,0,0,1.846-3.12c.7-.13,1.066-.312,1.066-.546,0-.364-.858-.7-2.6-1.014a26.666,26.666,0,0,1-1.2,4.68Zm-.312.65h12.766v4.394h-12.766Zm12.766,9.542h-12.766v-4.5h12.766Zm0,5.512h-12.766V97.916h12.766Zm22.776-14.17v-4.03c.754-.26,1.118-.494,1.118-.728,0-.39-.91-.6-2.7-.676v5.434h-6.786a15.979,15.979,0,0,0-1.846-.806v17.966h1.586v-2.054h15.808v2.054h1.586V89.752l.676-.442a.367.367,0,0,0,.208-.312c0-.234-.572-.806-1.69-1.69l-1.066,1.3Zm-1.586.65V95.6h-7.046V89.258Zm8.762,6.344H-156.7V89.258h7.176Zm-15.808,7.462V96.252h7.046v6.812Zm15.808-6.812v6.812H-156.7V96.252Zm14.4,8.788c.442,0,.806-.338.806-.962a2.38,2.38,0,0,0-.13-.65,13.632,13.632,0,0,1-.7-3.8,6.4,6.4,0,0,1,.624-2.756,1.719,1.719,0,0,0,.156-.572c0-.13-.052-.208-.156-.208-.13,0-.338.156-.6.468a6.926,6.926,0,0,0-.91,1.69c-.078.234-.208.364-.286.364s-.13-.13-.13-.416c.1-4.758,2.158-7.618,2.158-9.776a2.635,2.635,0,0,0-.52-1.664c-.52-.676-.988-.962-1.274-.962a.344.344,0,0,0-.338.39,1.775,1.775,0,0,0,.26.806,2.907,2.907,0,0,1,.286,1.378c0,2.288-1.664,5.746-1.664,9.906a14.34,14.34,0,0,0,1.17,5.72A1.53,1.53,0,0,0-135.122,105.04Zm10.79-15.548a8.667,8.667,0,0,0,2.834-.416c.572-.182.858-.572.858-.91,0-.364-.312-.676-.858-.676a1.444,1.444,0,0,0-.546.1,12.7,12.7,0,0,1-3.692.65,8,8,0,0,1-2.288-.338,1.341,1.341,0,0,0-.286-.052c-.208,0-.338.1-.338.26s.13.338.442.52A8.242,8.242,0,0,0-124.332,89.492Zm1.716,13.806a13.736,13.736,0,0,0,3.172-.39c.806-.208,1.144-.572,1.144-.91,0-.468-.6-.91-1.482-.91a3.315,3.315,0,0,0-.494.026,21.509,21.509,0,0,1-3.822.468,6.193,6.193,0,0,1-4.16-1.43.963.963,0,0,0-.546-.234.267.267,0,0,0-.286.26,1.056,1.056,0,0,0,.208.494C-127.5,102.492-125.19,103.3-122.616,103.3Zm14.508-13.416a57.89,57.89,0,0,0,1.69-5.668c.754-.13,1.118-.312,1.118-.546.026-.364-.78-.728-2.392-1.066a51.989,51.989,0,0,1-4.654,14.43l.6.364a34.111,34.111,0,0,0,2.6-4.888v13.364h1.456V91.26q1.092-.39,1.092-.7C-106.6,90.22-107.094,90.012-108.108,89.882Zm5.642-5.226-.338-.208c-.494-.234-.988-.468-1.43-.65v21.684h1.508V103.9H-91.26v1.586h1.508V85.826l.6-.416c.182-.13.286-.26.286-.39q-.039-.351-1.638-1.56l-.936,1.2Zm-.26.65H-91.26v17.94h-11.466Zm3.822,9.386c-.182-.078-.39-.182-.65-.312a5.83,5.83,0,0,0-.676-.286l-.338-.156v7.8h1.4V100.2h4.056v1.378h1.4V95.706l.52-.364a.445.445,0,0,0,.208-.312c0-.182-.494-.65-1.456-1.352l-.832,1.014h-1.144V90.87h4.186l.26-.52a14.565,14.565,0,0,0-1.17-1.248l-.39-.364-1.066,1.482h-1.82V87.672c.676-.234,1.014-.442,1.014-.65,0-.416-.806-.624-2.444-.65V90.22h-4.212l.26.65h3.952v3.822Zm-.26.65h4.056v4.212h-4.056Zm19.37,10.53h1.508V83.928c.7-.286,1.066-.546,1.066-.754q0-.585-2.574-.624ZM-67.262,89.96h6.448l.286-.494-.208-.26a18.05,18.05,0,0,0-1.508-1.612l-1.274,1.716h-3.744V84.084c.754-.234,1.118-.468,1.118-.7,0-.442-.884-.65-2.678-.676v6.6h-3.25c.234-.754.494-1.9.832-3.432.676-.13,1.014-.312,1.014-.52,0-.338-.832-.728-2.47-1.144A31.059,31.059,0,0,1-75.66,95.108l.624.364A20.278,20.278,0,0,0-72.28,89.96h3.458v6.292h-5.2l.26.65h4.94v7.228h-7.384l.312.65h15.86l.312-.52c-.39-.494-.884-1.04-1.456-1.638l-.312-.312-1.352,1.82h-4.42V96.9h5.694l.312-.494c-.39-.494-.936-1.118-1.638-1.846l-1.248,1.69h-3.12ZM-77.948,87.2a9.721,9.721,0,0,1,1.2,3.874c.052.7.286,1.04.676,1.04q.936,0,.936-1.092c0-1.17-.754-2.574-2.288-4.212Zm-4.186.364A13.381,13.381,0,0,1-83.226,93.6a3.183,3.183,0,0,0-.364.91c0,.546.286.832.884.832,1.092,0,1.638-1.326,1.638-4a23.138,23.138,0,0,0-.39-3.692Zm48.048,2.886c0-.832-.7-1.352-1.794-1.352-1.664,0-4.212,1.2-6.682,4.342A3.017,3.017,0,0,0-44.954,92.2a4.383,4.383,0,0,0-1.69.39.37.37,0,0,1-.156.052c-.078,0-.13-.026-.13-.1,0-.052.026-.1.1-.182a17.257,17.257,0,0,0,2.834-5.1,3.955,3.955,0,0,0,1.82-1.742,2.432,2.432,0,0,0,.234-.806c0-.26-.156-.442-.52-.52-.52-.1-1.2-.234-1.716-.286a1.56,1.56,0,0,0-1.066-.572c-.39,0-.65.208-.65.546a1.006,1.006,0,0,0,.286.65,2.267,2.267,0,0,1,.52,1.508,4.667,4.667,0,0,1-1.612.286,3.281,3.281,0,0,1-1.768-.468,1.039,1.039,0,0,0-.546-.182.653.653,0,0,0-.624.7,1.777,1.777,0,0,0,.91,1.352,2.734,2.734,0,0,0,1.456.338,6.5,6.5,0,0,0,1.794-.26c-.806,2.054-2.886,4.55-5.954,7.046a1.338,1.338,0,0,0-.6,1.04.849.849,0,0,0,.858.858,1.685,1.685,0,0,0,1.222-.676c1.846-2.158,3.38-3.016,4.55-3.016,1.222,0,2.028,1.014,2.262,2.5-3.978,1.924-5.694,4.108-5.694,5.876,0,2.08,2.262,3.588,5.954,3.588a16.954,16.954,0,0,0,4.55-.65c.832-.234,1.2-.6,1.2-.91,0-.494-.7-.91-1.638-.91a3.117,3.117,0,0,0-.806.1,17.871,17.871,0,0,1-4.732.78c-2.288,0-3.38-.832-3.38-1.976,0-1.4,1.612-3.276,4.628-4.758a9.26,9.26,0,0,1-.416,2.418,1.809,1.809,0,0,0-.1.6.833.833,0,0,0,.806.936c.468,0,1.04-.39,1.248-1.3a6.784,6.784,0,0,0,.208-1.794,7.489,7.489,0,0,0-.156-1.534l.13-.052C-36.036,94.016-34.086,91.832-34.086,90.454Zm-9.8-6.006a3.467,3.467,0,0,1,.728.156c.156.052.234.1.234.208,0,.052-.026.1-.1.182a4.863,4.863,0,0,1-.676.442A2.393,2.393,0,0,0-43.888,84.448Zm1.794,9.724c1.95-2.782,4.264-3.874,5.408-3.874.442,0,.728.156.728.468,0,.754-1.534,2.288-5.8,4.16A6.629,6.629,0,0,0-42.094,94.172Zm28.184-.52a17.506,17.506,0,0,0,9.984,11.44,7.077,7.077,0,0,1,1.352-1.612,19.015,19.015,0,0,1-6.968-4.238A26.341,26.341,0,0,0-5.72,96.278a2.528,2.528,0,0,0,.468.026c.494,0,.728-.1.728-.312,0-.312-.65-.858-1.976-1.664a27.927,27.927,0,0,1-3.51,4.42A17.1,17.1,0,0,1-13.1,93.574h9.75l.312-.52a19.512,19.512,0,0,0-1.82-1.9l-1.43,1.768h-7.332V89.83h7.488l.286-.494a21.254,21.254,0,0,0-1.716-1.768L-8.814,89.18h-4.81V86.372h9.048l.312-.468A16.213,16.213,0,0,0-6.032,84.11l-1.3,1.612h-6.292V83.9c.754-.26,1.118-.494,1.118-.728,0-.39-.884-.572-2.626-.6v3.146h-9.152l.286.65h8.866V89.18H-22.75l.26.65h7.358v3.094H-25.584l.286.65h9.282A23.5,23.5,0,0,1-26.13,99.84l.312.624a29.981,29.981,0,0,0,6.708-2.73v5.3l-.832.13c-1.95.312-3.068.494-3.38.52.494,1.56.91,2.34,1.274,2.34.182,0,.338-.338.442-.988a96.135,96.135,0,0,0,10.712-3.12l-.182-.7c-1.846.494-4,1.014-6.5,1.534V96.8A25.073,25.073,0,0,0-13.91,93.652Zm27.872-9.464-.312-.156c-.234-.13-.676-.338-1.326-.65V98.02h1.482v-1.3h1.612a10.393,10.393,0,0,1-1.04,4c-1.066,2.08-3.224,3.666-6.474,4.732l.338.6a12.759,12.759,0,0,0,6.136-2.912,9.979,9.979,0,0,0,2.6-6.422h1.95v7.02c0,.78.208,1.248.624,1.43a9.881,9.881,0,0,0,3.25.312,8.632,8.632,0,0,0,2.756-.26,1.371,1.371,0,0,0,.754-1.378.883.883,0,0,1-.884-.52,13.1,13.1,0,0,1-.286-3.64l-.65-.286a19.249,19.249,0,0,1-.52,3.978q-.273.78-1.794.78A4.233,4.233,0,0,1,20.722,104c-.234-.078-.338-.286-.338-.65V96.72H22.36v1.3h1.482V85.332l.676-.442c.13-.078.182-.156.182-.26,0-.286-.52-.832-1.586-1.638l-.962,1.2Zm-6.188,8.58h3.354l.286-.52A9.055,9.055,0,0,0,9.932,90.48l-1.17,1.638H7.774V85.852h3.64l.312-.494a16.292,16.292,0,0,0-1.612-1.742L8.97,85.2H2.678l.208.65h3.38v6.266H3.042l.208.65H6.266v6.578l-.13.026c-.858.208-2.08.468-3.666.806.442,1.534.858,2.314,1.2,2.314.182,0,.338-.312.468-.962a74.132,74.132,0,0,0,7.514-3.068l-.208-.65c-1.378.468-2.6.858-3.666,1.144Zm6.032-7.93H22.36V87.88H13.806ZM22.36,88.53v3.328H13.806V88.53Zm0,3.978V96.07H13.806V92.508ZM35.906,92.2V87.282c.7-.234,1.066-.468,1.066-.7,0-.364-.858-.6-2.548-.676v8.788h1.482V92.846h6.058V102.8h-7.28v-4.81c.65-.234.988-.468.988-.7,0-.416-.832-.624-2.522-.65v8.788h1.534v-1.976H51.012v1.976h1.534V97.838c.676-.234,1.014-.442,1.014-.676,0-.442-.858-.676-2.548-.754v6.4H43.524V92.846h6.214v1.69H51.22V87.1c.65-.234.988-.468.988-.7,0-.416-.832-.65-2.47-.728V92.2H43.524V84.162c.728-.26,1.092-.52,1.092-.754q0-.663-2.652-.7V92.2Zm34.606,2.626H59.67l.286.65h9.776a25.761,25.761,0,0,1-10.114,8.216l.364.572a25.462,25.462,0,0,0,10.53-7.228v8.84h1.56v-9.62a28.019,28.019,0,0,0,9.984,7.644,4.552,4.552,0,0,1,1.3-1.664,27.84,27.84,0,0,1-10.868-6.578l-.182-.182H83.122l.312-.52a15.576,15.576,0,0,0-1.872-1.872l-1.326,1.742H72.072V87.516H81.64l.312-.52A11.72,11.72,0,0,0,80.21,85.15l-1.3,1.716H72.072V83.954c.754-.26,1.144-.494,1.144-.728,0-.39-.91-.624-2.7-.7v4.342H61.178l.286.65h9.048Zm4.368-.7a22.386,22.386,0,0,0,2.964-4.212c.754-.052,1.144-.182,1.144-.416,0-.338-.78-.806-2.366-1.4a28.9,28.9,0,0,1-2.314,5.72Zm-11.362-5.2a9.562,9.562,0,0,1,2.132,3.874q.273,1.014.858,1.014c.65,0,.962-.338.962-1.04,0-1.456-1.2-2.86-3.562-4.238Zm37.934,3.406a10.113,10.113,0,0,0-4.472,1.092.37.37,0,0,1-.156.052.056.056,0,0,1-.052-.052.346.346,0,0,1,.078-.182,52.188,52.188,0,0,1,5.8-6.24,1.853,1.853,0,0,0,.676-1.378,1.18,1.18,0,0,0-1.248-1.222,3.375,3.375,0,0,0-1.742.624c-2.262,1.456-3.848,2.34-5.2,2.34a2.458,2.458,0,0,1-1.2-.286,1.072,1.072,0,0,0-.442-.1.37.37,0,0,0-.364.416,1.619,1.619,0,0,0,.78,1.2,1.941,1.941,0,0,0,1.17.338c1.118,0,2.756-.728,5.356-2.47a.783.783,0,0,1,.364-.156.178.178,0,0,1,.182.182.758.758,0,0,1-.156.39c-.364.494-8.138,10.062-9.542,11.726a2.335,2.335,0,0,0-.546,1.378c0,.572.312.962.728.962.364,0,.884-.364,1.378-1.3,2.288-4.524,5.486-6.11,8.19-6.11,3.042,0,5.486,2,5.512,4.134-.026,3.562-2.912,5.018-5.564,5.3a2.365,2.365,0,0,0,.182-.91c0-1.274-1.248-1.82-2.574-1.82-1.482,0-3.068.676-3.068,1.742,0,1.326,2.392,2.288,5.07,2.288,3.51,0,7.514-1.664,7.514-6.448C108.108,94.354,105.014,92.326,101.452,92.326Zm-4.576,9.646c-.026-.624.7-.988,1.43-.988.754,0,1.508.39,1.508,1.118a1.891,1.891,0,0,1-.312.936C98.02,102.96,96.85,102.518,96.876,101.972Zm36.374-4v2.08h1.534v-9.23h5.408l.286-.494a13.141,13.141,0,0,0-1.326-1.482l-.468-.468-1.352,1.794h-2.548V84.474c.754-.26,1.144-.494,1.144-.728,0-.39-.884-.624-2.678-.7v7.124h-4.576V84.526c.806-.286,1.222-.546,1.222-.754,0-.39-.91-.624-2.756-.7v7.1h-4.654V85.2c.754-.26,1.118-.494,1.118-.728,0-.416-.91-.65-2.7-.7v6.4h-3.952l.26.65H120.9v15.054h1.586v-2.288h16.9l.338-.572a26.182,26.182,0,0,0-1.976-1.9l-1.456,1.82H122.486V90.818h4.654V100.2h1.534V97.968Zm-4.576-.65v-6.5h4.576v6.5ZM150.9,84.37a15.159,15.159,0,0,0-1.872-.832V94.146h1.482V92.872h3.562a17.45,17.45,0,0,1-8.554,6.552l.39.572a20.741,20.741,0,0,0,7.072-3.77V98.2c0,3.51-1.768,5.954-5.33,7.332l.416.6c4.29-1.17,6.448-3.822,6.448-7.9v-.806c.6-.234.91-.442.91-.624,0-.338-.78-.572-2.34-.676a15.347,15.347,0,0,0,2.886-3.25h2.7a18.988,18.988,0,0,0,9.23,6.188,4.282,4.282,0,0,1,1.17-1.586,20.114,20.114,0,0,1-9.438-4.6h4.134v.962h1.482v-8.4l.754-.442c.13-.078.208-.156.208-.26,0-.26-.546-.806-1.638-1.664l-1.066,1.3Zm-.39.65h5.85v3.146h-5.85Zm7.332,0h5.928v3.146h-5.928Zm-7.332,7.2V88.816h5.85v3.406Zm13.26-3.406v3.406h-5.928V88.816Zm-3.8,16.952h1.508V97.344c.624-.234.936-.468.936-.65,0-.338-.806-.546-2.444-.624Zm36.088-5.174A1.312,1.312,0,0,0,197.5,99.5c0-.364-.286-.676-.91-.7-2.808-.1-6.942-4.446-11.414-9.022a1.953,1.953,0,0,0-1.378-.806,2.051,2.051,0,0,0-1.43.936c-.936,1.118-3.562,4.654-5.382,4.654a.8.8,0,0,1-.26-.026,2.049,2.049,0,0,0-.52-.052c-.442,0-.65.156-.65.416,0,.364.468.884,1.352,1.2a2.528,2.528,0,0,0,.7.13c2.132,0,3.77-3.354,5.2-5.434.338-.442.65-.7,1.04-.7s.78.26,1.222.832C189.878,97.006,192.764,100.594,196.066,100.594Zm-325.26,34.424a15.5,15.5,0,0,1,6.058,2.652,2.048,2.048,0,0,0,1.17.65q.78,0,.78-.858c0-.546-.52-1.066-1.586-1.56a20.692,20.692,0,0,0-6.188-1.508Zm6.188,6.084.7-.416a.352.352,0,0,0,.234-.312c0-.26-.546-.78-1.638-1.586l-1.014,1.248h-7.072l.26.65h7.072v14.066c0,.52-.312.78-.91.78a35.185,35.185,0,0,1-3.9-.286v.676a15.411,15.411,0,0,1,2.548.6,1.319,1.319,0,0,1,.962,1.248c1.846.026,2.756-.65,2.756-2.054V143.39a19.8,19.8,0,0,0,2.262,5.616,19.852,19.852,0,0,0,7.176,6.526,5.387,5.387,0,0,1,1.378-1.508,20.467,20.467,0,0,1-8.008-6.188,32.623,32.623,0,0,0,5.044-4.6,4.025,4.025,0,0,0,.572.026c.442,0,.676-.1.676-.312q0-.546-2.028-1.872a31.931,31.931,0,0,1-4.654,6.162,18.994,18.994,0,0,1-2.418-6.11Zm-5.538,3.51h-6.032l.26.65h5.9a19.509,19.509,0,0,1-6.942,10.686l.39.546a17.68,17.68,0,0,0,5.1-4.316,20.051,20.051,0,0,0,3.094-6.344l.676-.364a.352.352,0,0,0,.234-.312c0-.286-.546-.884-1.638-1.82Zm35.36-3.952h-7.046l.338.65h15.158l.312-.494a15.145,15.145,0,0,0-1.17-1.326,5.734,5.734,0,0,1-.442-.416l-1.248,1.586h-4.446v-2.6h5.85l.286-.468a13.574,13.574,0,0,0-1.612-1.638l-1.2,1.456h-3.328v-1.664c.7-.234,1.04-.468,1.04-.7,0-.39-.832-.572-2.5-.572v2.938h-5.668l.312.65h5.356Zm-12.662-4.6a8.325,8.325,0,0,1,2.86,3.51c.234.624.572.936.962.936.65,0,.988-.338.988-1.04,0-1.4-1.482-2.7-4.446-3.926Zm9.23,7.15c-.754-.312-1.274-.52-1.56-.6V148.1h1.43v-.858h3.51a22.449,22.449,0,0,1-6.708,5.46l.39.546a21.082,21.082,0,0,0,6.37-4.134v5.59h1.456v-5.33a15.548,15.548,0,0,1,4.914,3.432c.39.416.676.624.91.624a.751.751,0,0,0,.858-.832q0-1.092-3.042-2.574a12.372,12.372,0,0,0,2.522-1.9,1.374,1.374,0,0,0,.338.026q.78,0,.78-.312c-.026-.286-.572-.806-1.638-1.508a13.175,13.175,0,0,1-.936,1.4V144.3l.572-.442a.3.3,0,0,0,.182-.286c0-.182-.468-.65-1.4-1.352l-.91.988Zm8.216,3.38h-8.346v-2.73H-88.4Zm-12.87.078.624-.39q.234-.156.234-.312c0-.234-.52-.78-1.534-1.586l-1.014,1.2h-3.848l.286.65h3.8v6.942a26.78,26.78,0,0,1-4.134,2.6c.7,1.378,1.222,2.08,1.586,2.08.234,0,.364-.338.364-1.04a37.294,37.294,0,0,0,3.276-3.718,6.793,6.793,0,0,0,3.744,3.12,24.652,24.652,0,0,0,8.086,1.014h5.694a4.281,4.281,0,0,1,.806-1.742,68.992,68.992,0,0,1-6.968.39,24.594,24.594,0,0,1-7.436-.858,5.873,5.873,0,0,1-3.562-2.912Zm12.87.572v.676h1.248a23.58,23.58,0,0,1-1.534,1.846,24.349,24.349,0,0,0-2.73-.988l-.312-.078v-1.17l.234-.286Zm23.686-8.944c-5.356,0-11.232,3.744-11.232,10.244,0,3.146,1.508,4.836,3.328,4.836,2.782,0,6.292-3.848,6.292-12.35,0-.52-.026-1.014-.052-1.56.39-.026.754-.052,1.118-.052,3.926,0,7.618,2.392,7.618,7.462,0,5.876-5.746,7.93-10.608,7.982-.286.026-.442.156-.442.286s.13.26.442.312a19,19,0,0,0,2.08.13c5.668,0,10.192-3.12,10.192-8.788C-55.978,140.946-60.19,138.294-64.714,138.294Zm-2.626,1.794c0,7.618-3.146,11.1-5.278,11.1-1.144,0-1.9-.936-1.9-2.834a8.729,8.729,0,0,1,7.176-8.71Zm28.964,15.652v-.806a6.735,6.735,0,0,1-2.652-.312,1.682,1.682,0,0,1-.78-1.612V136.656c-1.066.832-2.99,1.4-5.746,1.69v.728h2.574a1.207,1.207,0,0,1,1.352,1.378V153.01a1.6,1.6,0,0,1-.884,1.664,8.027,8.027,0,0,1-2.7.26v.806Zm24.336-4.706a26.546,26.546,0,0,0,3.12-10.4h2.834l.26-.468-.234-.286a12.838,12.838,0,0,0-1.43-1.56l-1.222,1.664h-7.254a29.4,29.4,0,0,0,1.092-3.952c.7-.1,1.066-.26,1.066-.494,0-.39-.832-.78-2.5-1.118a31.792,31.792,0,0,1-3.926,12.116,9.115,9.115,0,0,0-3.042-2.626v-2.964h4.134l.26-.494a20.434,20.434,0,0,0-1.586-1.872l-1.144,1.716h-1.664v-4.368c.7-.286,1.04-.546,1.04-.78q0-.546-2.5-.546V140.3h-4.16l.26.65h3.822a36.494,36.494,0,0,1-4.342,11.362l.572.416a29.661,29.661,0,0,0,3.848-7.566v12.714h1.456V144.716a9.217,9.217,0,0,1,1.976,3.406.765.765,0,0,0,.754.65c.546,0,.832-.312.832-.936a2.5,2.5,0,0,0-.13-.6,28.235,28.235,0,0,0,2.86-4.732,27.122,27.122,0,0,0,3.276,8.5,17.1,17.1,0,0,1-7.462,6.292l.39.572a16.684,16.684,0,0,0,7.956-5.59,21.593,21.593,0,0,0,5.9,5.1A4.791,4.791,0,0,1-7.644,155.9,21.028,21.028,0,0,1-14.04,151.034Zm-.91-1.2A24.233,24.233,0,0,1-18.3,141.96l-.052-.234a3.277,3.277,0,0,1-.13-.39,3.362,3.362,0,0,0,.234-.52l.052-.182h5.616l-.026.286A29.073,29.073,0,0,1-14.95,149.838Zm17.862,7.2c.442,0,.806-.338.806-.962a2.38,2.38,0,0,0-.13-.65,13.632,13.632,0,0,1-.7-3.8,6.4,6.4,0,0,1,.624-2.756,1.719,1.719,0,0,0,.156-.572c0-.13-.052-.208-.156-.208-.13,0-.338.156-.6.468a6.926,6.926,0,0,0-.91,1.69c-.078.234-.208.364-.286.364s-.13-.13-.13-.416c.1-4.758,2.158-7.618,2.158-9.776a2.635,2.635,0,0,0-.52-1.664c-.52-.676-.988-.962-1.274-.962a.344.344,0,0,0-.338.39,1.774,1.774,0,0,0,.26.806,2.907,2.907,0,0,1,.286,1.378c0,2.288-1.664,5.746-1.664,9.906A14.34,14.34,0,0,0,1.664,156,1.53,1.53,0,0,0,2.912,157.04ZM13.7,141.492a8.667,8.667,0,0,0,2.834-.416c.572-.182.858-.572.858-.91,0-.364-.312-.676-.858-.676a1.445,1.445,0,0,0-.546.1,12.7,12.7,0,0,1-3.692.65,8,8,0,0,1-2.288-.338,1.342,1.342,0,0,0-.286-.052c-.208,0-.338.1-.338.26s.13.338.442.52A8.243,8.243,0,0,0,13.7,141.492ZM15.418,155.3a13.736,13.736,0,0,0,3.172-.39c.806-.208,1.144-.572,1.144-.91,0-.468-.6-.91-1.482-.91a3.315,3.315,0,0,0-.494.026,21.509,21.509,0,0,1-3.822.468,6.193,6.193,0,0,1-4.16-1.43.963.963,0,0,0-.546-.234.267.267,0,0,0-.286.26,1.056,1.056,0,0,0,.208.494C10.53,154.492,12.844,155.3,15.418,155.3Zm20.15-4.784v4.394c0,.494-.286.754-.832.754a28.089,28.089,0,0,1-3.38-.208v.676a14.362,14.362,0,0,1,2.262.494,1.143,1.143,0,0,1,.78,1.066c1.716.026,2.574-.624,2.574-2v-13.6l.65-.39c.156-.078.234-.182.234-.286,0-.234-.494-.754-1.456-1.534l-.962,1.17H32.786A23.754,23.754,0,0,0,34.97,137.9l.6-.26c.156-.078.234-.182.234-.26,0-.234-.494-.78-1.482-1.69l-.91,1.144H30.966a5.178,5.178,0,0,0,.208-.6l.156-.442c.65-.208.962-.416.962-.6,0-.286-.728-.52-2.184-.676a22.692,22.692,0,0,1-4.16,9l.494.416a18.482,18.482,0,0,0,1.508-1.716v7.02a15.231,15.231,0,0,1-1.976,8.242l.6.39a12.307,12.307,0,0,0,2.808-7.358Zm11.544-13.338a17.721,17.721,0,0,1-.338,4.082,1.171,1.171,0,0,1-1.2,1.014,16.482,16.482,0,0,1-2.522-.234v.65a11.547,11.547,0,0,1,1.872.416,1.022,1.022,0,0,1,.754,1.014,2.423,2.423,0,0,0,1.976-.832c.52-.7.806-2.574.884-5.642l.624-.39c.13-.078.182-.156.182-.26,0-.208-.52-.754-1.534-1.612l-.988,1.144H37.882l.26.65h3.51a11.644,11.644,0,0,1-.338,2.6,8.433,8.433,0,0,1-3.692,4.862l.364.52a10.068,10.068,0,0,0,3.77-2.964,9.315,9.315,0,0,0,1.456-5.018Zm-17.6,3.874a1.38,1.38,0,0,0-.286-.078l-.312-.1a22.2,22.2,0,0,0,1.794-3.38h2.808a23.442,23.442,0,0,1-1.508,3.562Zm-.1.65H31.72v3.64H29.406Zm6.162,3.64H33.124V141.7h2.444Zm4.862,2.574c.182-.572.364-1.144.494-1.69q.936-.2.936-.468c0-.312-.754-.65-2.236-.988a18.868,18.868,0,0,1-1.716,6.526l.546.312a14.7,14.7,0,0,0,1.716-3.042h2.7v3.588H37.336l.286.65h5.252v5.07H44.33V152.8H49.5l.286-.468c-.676-.806-1.248-1.43-1.69-1.9l-1.3,1.716H44.33v-3.588h4.576l.312-.494a9.2,9.2,0,0,0-1.3-1.508,1.914,1.914,0,0,1-.286-.26l-1.17,1.612H44.33V145.5c.572-.234.858-.442.858-.65,0-.39-.78-.572-2.314-.6v3.666Zm-11.024,1.95V145.99H31.72v3.874Zm6.162,0H33.124V145.99h2.444Zm38.142-8.372a54.24,54.24,0,0,1-5.33-1.092,8.24,8.24,0,0,0,1.274-.6c.468-.26.676-.546.676-.78,0-.39-.52-.7-1.118-.7a2.087,2.087,0,0,0-.78.156c-.39.182-.884.442-1.4.676-1.17-2.574-1.716-3.172-3.094-3.484a3.072,3.072,0,0,0-.78-.1c-.546,0-.884.182-.884.442s.338.6,1.092.91a5.679,5.679,0,0,1,2.418,2.73,8.1,8.1,0,0,1-2.392.416,5.651,5.651,0,0,1-1.82-.286.469.469,0,0,0-.26-.052c-.26,0-.416.13-.416.312s.13.39.468.546a7.815,7.815,0,0,0,2.964.494,11.442,11.442,0,0,0,2.08-.182c.468,1.04.936,2.21,1.43,3.484a13.013,13.013,0,0,1-3.874.65,7.971,7.971,0,0,1-3.8-.884,1,1,0,0,0-.494-.13c-.26,0-.442.13-.442.312,0,.156.13.338.416.546a7.838,7.838,0,0,0,4.628,1.3,15.391,15.391,0,0,0,4.03-.572c.416,1.144.858,2.34,1.3,3.588a1.92,1.92,0,0,1,.052.312c0,.234-.13.338-.39.338a2.7,2.7,0,0,1-.39-.052,12.2,12.2,0,0,0-3.328-.468c-3.64,0-5.772,1.872-5.772,3.77,0,1.95,2.21,3.874,7.28,3.874.7,0,1.482-.026,2.34-.1.806-.078,1.17-.442,1.17-.832,0-.494-.65-1.066-1.742-1.066a2.38,2.38,0,0,0-.442.026,25.046,25.046,0,0,1-2.886.208c-3.3,0-4.6-1.04-4.6-2.132,0-1.352,1.846-2.808,4.316-2.808a6.924,6.924,0,0,1,4,1.326,1.869,1.869,0,0,0,1.04.364,1.417,1.417,0,0,0,1.4-1.534,3.069,3.069,0,0,0-.286-1.17c-.676-1.508-1.248-2.834-1.742-4.03a24.523,24.523,0,0,0,4.5-1.95,1.057,1.057,0,0,0,.65-.884C74.776,141.96,74.386,141.57,73.71,141.492Zm-2.028,1.248a24.279,24.279,0,0,1-2.6,1.2c-.52-1.2-.936-2.21-1.326-3.094a37.981,37.981,0,0,0,3.77,1.274c.286.078.416.208.416.338C71.942,142.558,71.838,142.662,71.682,142.74Zm16.328-3.068H83.2l.234.65H86.84v1.69q0,9.984-3.484,15.392l.546.442q3.9-4.368,4.394-12.688h3.146a46.859,46.859,0,0,1-.65,9.23,1.259,1.259,0,0,1-1.326,1.144,16.687,16.687,0,0,1-2.522-.26v.676a9.75,9.75,0,0,1,1.664.494,1.217,1.217,0,0,1,.676,1.144,2.564,2.564,0,0,0,2.678-1.56q.9-2.223.936-10.452l.572-.364c.156-.1.234-.208.234-.286,0-.234-.52-.78-1.534-1.638l-.91,1.222H88.322c.026-1.222.052-2.028.052-2.47v-1.716h6.37l.286-.494a16.841,16.841,0,0,0-1.638-1.872l-1.248,1.716H89.492V135.9c.7-.208,1.066-.416,1.066-.624,0-.39-.858-.624-2.548-.7Zm8.632,3.094a26.392,26.392,0,0,0,2.834,8.19,16.647,16.647,0,0,1-6.812,6.292l.39.6a16.063,16.063,0,0,0,7.254-5.564,21.4,21.4,0,0,0,5.33,5.122,6.377,6.377,0,0,1,1.3-1.378,17.416,17.416,0,0,1-5.876-4.992,25.4,25.4,0,0,0,2.808-10.166H106.5l.26-.468a13.2,13.2,0,0,0-1.638-1.768l-1.222,1.586H97.6a39.448,39.448,0,0,0,.988-4.186c.7-.13,1.04-.286,1.04-.494,0-.416-.832-.728-2.5-.962a31.719,31.719,0,0,1-3.562,12.116l.572.416A20.613,20.613,0,0,0,96.642,142.766Zm.754-1.9h4.862a25.088,25.088,0,0,1-2.08,8.866,25.964,25.964,0,0,1-2.99-8.268Zm24.882,13.6c7.7-.6,11.05-4.836,11.05-8.4,0-2.73-2-5.07-5.564-5.07-2.236,0-5.07.91-8.424,3.224a5.844,5.844,0,0,1-3.3,1.4,6.461,6.461,0,0,1-1.482-.234,1.266,1.266,0,0,0-.312-.026c-.312,0-.572.13-.572.39,0,.312.39.832,1.508,1.482a3.566,3.566,0,0,0,1.768.442,4.114,4.114,0,0,0,2.834-1.2c3.276-3.146,6.032-4.342,8.06-4.342a3.567,3.567,0,0,1,3.77,3.744c0,2.938-2.782,6.734-9.36,7.9-.364.078-.546.234-.546.416,0,.13.156.26.468.26Z" transform="translate(193.93 21.722)" fill="#5d5d5d" stroke="#5d5d5d" stroke-width="0.2"/>
</svg>
