<svg xmlns="http://www.w3.org/2000/svg" width="355.83" height="27.06" viewBox="0 0 355.83 27.06">
  <path id="パス_928" data-name="パス 928" d="M21.63-19.5a6.316,6.316,0,0,0-.75.06c-4.59.51-7.35.75-10.86.87,0-.72-.24-1.47-2.28-1.77a2.316,2.316,0,0,0-.45-.06c-.54,0-.81.21-.81.48,0,.21.15.45.51.66.99.66.9.84,1.26,7.68a1.444,1.444,0,0,0,1.29,1.53c.57,0,1.08-.42,1.08-1.32,0-.15-.03-.3-.03-.45a28.219,28.219,0,0,1-.6-5.07,93.454,93.454,0,0,1,10.92-.96.539.539,0,0,1,.63.57v.06A22.449,22.449,0,0,1,9.39.87c-.33.18-.48.39-.48.51,0,.09.09.15.24.15a1.175,1.175,0,0,0,.39-.09c7.14-2.97,12.57-8.52,14.31-17.1a6.982,6.982,0,0,0,.18-1.47A2.1,2.1,0,0,0,21.63-19.5Zm34.08,1.23c0-.72-.42-1.14-1.32-1.14a3.825,3.825,0,0,0-.57.03,42.084,42.084,0,0,1-6.57.6c.06-.15.15-.33.21-.51a4.332,4.332,0,0,0,.42-1.59c0-.81-.48-1.53-1.95-2.07a1.9,1.9,0,0,0-.63-.15c-.33,0-.57.15-.57.42a1.711,1.711,0,0,0,.66,1.02,1.654,1.654,0,0,1,.45,1.2,3.972,3.972,0,0,1-.39,1.53,20.417,20.417,0,0,1-7.56,9.24c-.3.21-.42.42-.42.57a.242.242,0,0,0,.27.21A.782.782,0,0,0,38.07-9c4.23-2.28,6.54-4.29,8.58-8.52,1.71-.09,3.75-.21,6-.45a.34.34,0,0,1,.42.36l-.03.21a31.876,31.876,0,0,1-2.46,6.36,19.8,19.8,0,0,0-3.51-1.89,1.036,1.036,0,0,0-.39-.09c-.21,0-.33.09-.33.21,0,.18.15.39.48.57a9.087,9.087,0,0,1,2.91,2.58C47.19-5.67,43.32-2.52,36.87.6c-.33.15-.51.36-.51.51,0,.12.12.21.3.21a1.175,1.175,0,0,0,.39-.09C43.38-1.11,47.37-3.9,50.61-8.25c.18.36.36.72.51,1.11a2.216,2.216,0,0,0,1.86,1.53,1.041,1.041,0,0,0,1.05-1.11,2.811,2.811,0,0,0-.42-1.26,8.779,8.779,0,0,0-1.77-2.07,54.83,54.83,0,0,0,3.39-6.54A4.388,4.388,0,0,0,55.71-18.27Zm19.68,4.83a1.1,1.1,0,0,0,1.17-1.11,2.222,2.222,0,0,0-.54-1.26,7.828,7.828,0,0,0-6.06-2.37h-.72c-.42.03-.63.18-.63.36s.24.36.6.42c2.13.36,3.45,1.59,4.77,3.24A1.814,1.814,0,0,0,75.39-13.44ZM71.82-.33c5.7,0,13.62-8.67,18.69-16.35a.871.871,0,0,0,.18-.48c0-.18-.09-.27-.24-.27a1.047,1.047,0,0,0-.75.51C82.89-7.8,75.6-2.73,72.45-2.73a2.353,2.353,0,0,1-1.89-.66.945.945,0,0,0-.66-.3c-.33,0-.6.24-.6.75a3.034,3.034,0,0,0,.3,1.17A2.317,2.317,0,0,0,71.82-.33Zm.9-8.01A1.05,1.05,0,0,0,73.8-9.39a1.809,1.809,0,0,0-.51-1.17,7.237,7.237,0,0,0-5.49-1.98c-.3,0-.63.03-.93.06-.33,0-.51.18-.51.33,0,.18.18.36.57.42a7.029,7.029,0,0,1,4.38,2.55A1.766,1.766,0,0,0,72.72-8.34ZM106.98.96c8.67,0,12.45-4.5,12.45-8.25,0-2.73-1.95-5.04-5.52-5.04-2.34,0-5.37.99-8.94,3.57a3.064,3.064,0,0,1-1.59.66c-.42,0-.72-.27-.72-.99a2.591,2.591,0,0,1,.03-.45l.81-6.72c.15-1.29.63-2.22,2.4-2.22a9.1,9.1,0,0,1,2.49.42,4.654,4.654,0,0,0,1.02.15c.87,0,1.32-.45,1.32-1.17a3.431,3.431,0,0,0-.63-1.74c-.96-1.44-1.92-2.31-5.25-2.43-.33,0-.57.15-.57.36,0,.18.15.33.54.51a5.9,5.9,0,0,1,3.06,2.28.385.385,0,0,1,.12.3.322.322,0,0,1-.36.33c-2.64.36-5.19.54-5.58,3.21s-.9,6.15-1.02,8.37c-.09,1.62.72,2.67,1.89,2.67a3.486,3.486,0,0,0,2.28-1.17c3.36-3.36,6.3-4.65,8.46-4.65a3.845,3.845,0,0,1,4.11,3.93c0,3.27-3.57,7.38-12.42,7.29-.48,0-.72.18-.72.36,0,.15.21.33.66.36C105.87.93,106.41.96,106.98.96Zm33.06.18c3.6,0,8.13-2.28,11.85-6.78a.971.971,0,0,0,.27-.57.245.245,0,0,0-.27-.24.922.922,0,0,0-.63.33c-3.54,3.42-7.53,5.31-10.59,5.31-2.85,0-4.89-1.65-4.89-5.22,0-.27,0-.57.03-.87.57-6.57,1.59-10.14,1.59-12.33a2.988,2.988,0,0,0-1.77-3.03,1.45,1.45,0,0,0-.63-.18c-.33,0-.51.18-.51.45a1.273,1.273,0,0,0,.3.75,2.809,2.809,0,0,1,.48,1.86c0,1.77-.6,5.07-1.29,12.63-.03.42-.06.81-.06,1.17C133.92-1.05,136.53,1.14,140.04,1.14Zm39.93-21.66a17.146,17.146,0,0,1-7.2-1.86,1.527,1.527,0,0,0-.66-.15c-.69,0-1.35.42-1.35,1.05a1.454,1.454,0,0,0,.39.9,38.019,38.019,0,0,1,2.58,3.99,20.789,20.789,0,0,1-6.69,1.29,6.988,6.988,0,0,1-3.87-.93,1.539,1.539,0,0,0-.72-.27.293.293,0,0,0-.33.3,1.262,1.262,0,0,0,.48.78c.96.9,2.91,1.38,5.31,1.38a22.125,22.125,0,0,0,6.69-1.11,48.781,48.781,0,0,1,2.61,4.95,3.345,3.345,0,0,1,.09.69c0,.54-.24.81-.63.81a1.178,1.178,0,0,1-.42-.09,17.006,17.006,0,0,0-5.76-1.23,9.48,9.48,0,0,0-2.7.39c-2.31.66-3.39,2.25-3.39,3.99,0,2.97,3.18,6.42,8.85,6.42a17.937,17.937,0,0,0,3.42-.36c.84-.18,1.17-.57,1.17-.96,0-.54-.72-1.14-1.74-1.14a2.271,2.271,0,0,0-.45.03,17.237,17.237,0,0,1-2.64.24c-4.92,0-7.5-2.52-7.5-4.62,0-1.14.81-2.16,2.43-2.55a7.726,7.726,0,0,1,1.8-.21,11.749,11.749,0,0,1,6.03,1.98,3.87,3.87,0,0,0,1.95.6,1.393,1.393,0,0,0,1.53-1.5,3.674,3.674,0,0,0-.24-1.26,47.95,47.95,0,0,0-2.94-6.72,18.881,18.881,0,0,0,4.35-2.46c.66-.51.9-.96.9-1.32C181.32-20.1,180.57-20.49,179.97-20.52Zm-1.83,1.92a19.8,19.8,0,0,1-2.88,1.44c-.63-1.14-1.32-2.28-2.07-3.45a1.018,1.018,0,0,1-.15-.42c0-.12.09-.18.21-.18a1.037,1.037,0,0,1,.36.09,21.437,21.437,0,0,0,4.47,1.71c.3.09.48.21.48.36C178.56-18.93,178.44-18.78,178.14-18.6Zm31,6.1c0-.768-.648-1.248-1.656-1.248-1.536,0-3.888,1.1-6.168,4.008A2.785,2.785,0,0,0,199.1-10.9a4.046,4.046,0,0,0-1.56.36.341.341,0,0,1-.144.048c-.072,0-.12-.024-.12-.1,0-.048.024-.1.1-.168a15.93,15.93,0,0,0,2.616-4.7,3.651,3.651,0,0,0,1.68-1.608,2.245,2.245,0,0,0,.216-.744c0-.24-.144-.408-.48-.48-.48-.1-1.1-.216-1.584-.264a1.44,1.44,0,0,0-.984-.528c-.36,0-.6.192-.6.5a.929.929,0,0,0,.264.6,2.093,2.093,0,0,1,.48,1.392,4.308,4.308,0,0,1-1.488.264,3.028,3.028,0,0,1-1.632-.432.959.959,0,0,0-.5-.168.6.6,0,0,0-.576.648,1.64,1.64,0,0,0,.84,1.248,2.524,2.524,0,0,0,1.344.312,6,6,0,0,0,1.656-.24c-.744,1.9-2.664,4.2-5.5,6.5a1.236,1.236,0,0,0-.552.96.784.784,0,0,0,.792.792A1.556,1.556,0,0,0,194.5-7.32c1.7-1.992,3.12-2.784,4.2-2.784,1.128,0,1.872.936,2.088,2.3-3.672,1.776-5.256,3.792-5.256,5.424,0,1.92,2.088,3.312,5.5,3.312a15.65,15.65,0,0,0,4.2-.6c.768-.216,1.1-.552,1.1-.84,0-.456-.648-.84-1.512-.84a2.877,2.877,0,0,0-.744.1,16.5,16.5,0,0,1-4.368.72c-2.112,0-3.12-.768-3.12-1.824,0-1.3,1.488-3.024,4.272-4.392a8.547,8.547,0,0,1-.384,2.232,1.67,1.67,0,0,0-.1.552.769.769,0,0,0,.744.864c.432,0,.96-.36,1.152-1.2a6.262,6.262,0,0,0,.192-1.656,6.913,6.913,0,0,0-.144-1.416l.12-.048C207.336-9.216,209.136-11.232,209.136-12.5Zm-9.048-5.544a3.2,3.2,0,0,1,.672.144c.144.048.216.1.216.192,0,.048-.024.1-.1.168a4.488,4.488,0,0,1-.624.408A2.208,2.208,0,0,0,200.088-18.048Zm1.656,8.976c1.8-2.568,3.936-3.576,4.992-3.576.408,0,.672.144.672.432,0,.7-1.416,2.112-5.352,3.84A6.119,6.119,0,0,0,201.744-9.072ZM222.9-24.21a17.888,17.888,0,0,1,6.99,3.06,2.363,2.363,0,0,0,1.35.75q.9,0,.9-.99c0-.63-.6-1.23-1.83-1.8a23.876,23.876,0,0,0-7.14-1.74Zm7.14,7.02.81-.48a.406.406,0,0,0,.27-.36c0-.3-.63-.9-1.89-1.83l-1.17,1.44H219.9l.3.75h8.16V-1.44c0,.6-.36.9-1.05.9a40.6,40.6,0,0,1-4.5-.33v.78a17.782,17.782,0,0,1,2.94.69,1.521,1.521,0,0,1,1.11,1.44c2.13.03,3.18-.75,3.18-2.37V-14.55a22.848,22.848,0,0,0,2.61,6.48,22.906,22.906,0,0,0,8.28,7.53,6.216,6.216,0,0,1,1.59-1.74,23.616,23.616,0,0,1-9.24-7.14,37.644,37.644,0,0,0,5.82-5.31,4.645,4.645,0,0,0,.66.03c.51,0,.78-.12.78-.36q0-.63-2.34-2.16a36.842,36.842,0,0,1-5.37,7.11,21.916,21.916,0,0,1-2.79-7.05Zm-6.39,4.05h-6.96l.3.75h6.81A22.511,22.511,0,0,1,215.79-.06l.45.63a20.4,20.4,0,0,0,5.88-4.98,23.136,23.136,0,0,0,3.57-7.32l.78-.42a.406.406,0,0,0,.27-.36c0-.33-.63-1.02-1.89-2.1Zm39.3-4.56h-8.13l.39.75H272.7l.36-.57a17.47,17.47,0,0,0-1.35-1.53,6.616,6.616,0,0,1-.51-.48l-1.44,1.83h-5.13v-3h6.75l.33-.54a15.659,15.659,0,0,0-1.86-1.89l-1.38,1.68h-3.84v-1.92c.81-.27,1.2-.54,1.2-.81,0-.45-.96-.66-2.88-.66v3.39h-6.54l.36.75h6.18Zm-14.61-5.31a9.605,9.605,0,0,1,3.3,4.05c.27.72.66,1.08,1.11,1.08.75,0,1.14-.39,1.14-1.2,0-1.62-1.71-3.12-5.13-4.53Zm10.65,8.25c-.87-.36-1.47-.6-1.8-.69v6.33h1.65v-.99h4.05a25.9,25.9,0,0,1-7.74,6.3l.45.63a24.326,24.326,0,0,0,7.35-4.77V-1.5h1.68V-7.65a17.94,17.94,0,0,1,5.67,3.96c.45.48.78.72,1.05.72a.866.866,0,0,0,.99-.96q0-1.26-3.51-2.97a14.275,14.275,0,0,0,2.91-2.19,1.585,1.585,0,0,0,.39.03q.9,0,.9-.36c-.03-.33-.66-.93-1.89-1.74a15.207,15.207,0,0,1-1.08,1.62V-13.5l.66-.51a.35.35,0,0,0,.21-.33c0-.21-.54-.75-1.62-1.56l-1.05,1.14Zm9.48,3.9h-9.63v-3.15h9.63Zm-14.85.09.72-.45q.27-.18.27-.36c0-.27-.6-.9-1.77-1.83l-1.17,1.38h-4.44l.33.75h4.38v8.01a30.9,30.9,0,0,1-4.77,3c.81,1.59,1.41,2.4,1.83,2.4.27,0,.42-.39.42-1.2a43.031,43.031,0,0,0,3.78-4.29,7.838,7.838,0,0,0,4.32,3.6,28.445,28.445,0,0,0,9.33,1.17h6.57a4.94,4.94,0,0,1,.93-2.01,79.61,79.61,0,0,1-8.04.45,28.378,28.378,0,0,1-8.58-.99,6.776,6.776,0,0,1-4.11-3.36Zm14.85.66v.78h1.44a27.206,27.206,0,0,1-1.77,2.13,28.094,28.094,0,0,0-3.15-1.14l-.36-.09V-9.78l.27-.33ZM283.272.96c.408,0,.744-.312.744-.888a2.2,2.2,0,0,0-.12-.6,12.584,12.584,0,0,1-.648-3.5,5.912,5.912,0,0,1,.576-2.544,1.587,1.587,0,0,0,.144-.528c0-.12-.048-.192-.144-.192-.12,0-.312.144-.552.432a6.393,6.393,0,0,0-.84,1.56c-.072.216-.192.336-.264.336s-.12-.12-.12-.384c.1-4.392,1.992-7.032,1.992-9.024a2.432,2.432,0,0,0-.48-1.536c-.48-.624-.912-.888-1.176-.888a.317.317,0,0,0-.312.36,1.638,1.638,0,0,0,.24.744,2.684,2.684,0,0,1,.264,1.272c0,2.112-1.536,5.3-1.536,9.144A13.236,13.236,0,0,0,282.12,0,1.412,1.412,0,0,0,283.272.96Zm9.96-14.352a8,8,0,0,0,2.616-.384c.528-.168.792-.528.792-.84,0-.336-.288-.624-.792-.624a1.333,1.333,0,0,0-.5.1,11.723,11.723,0,0,1-3.408.6,7.385,7.385,0,0,1-2.112-.312,1.238,1.238,0,0,0-.264-.048c-.192,0-.312.1-.312.24s.12.312.408.48A7.608,7.608,0,0,0,293.232-13.392ZM294.816-.648a12.679,12.679,0,0,0,2.928-.36c.744-.192,1.056-.528,1.056-.84,0-.432-.552-.84-1.368-.84a3.06,3.06,0,0,0-.456.024,19.854,19.854,0,0,1-3.528.432,5.717,5.717,0,0,1-3.84-1.32.889.889,0,0,0-.5-.216.247.247,0,0,0-.264.24.975.975,0,0,0,.192.456A6.993,6.993,0,0,0,294.816-.648ZM329.97-2.13q0-1.08.18-3.6l-.78-.33c-.39,3.42-.81,5.13-1.32,5.13-.18,0-.51-.21-1.02-.66a13.024,13.024,0,0,1-2.58-3.06,22.43,22.43,0,0,0,3.12-3.66,2.27,2.27,0,0,0,.45.03c.54,0,.81-.12.81-.33,0-.36-.72-.9-2.19-1.65a22.332,22.332,0,0,1-2.91,4.14,25.647,25.647,0,0,1-1.32-4.11l-.06-.33,8.25-.87.3-.6a12.8,12.8,0,0,0-2.01-1.89l-1.26,1.98-5.43.57a27.3,27.3,0,0,1-.48-3.36l6.66-.66.27-.57a12.808,12.808,0,0,0-1.89-1.71l-1.08,1.71-4.02.42c-.09-.93-.15-1.89-.18-2.91l7.95-.69.27-.63a18.649,18.649,0,0,0-1.89-1.74l-1.2,1.8-5.16.45c-.03-.99-.03-2.28-.03-3.87.69-.24,1.02-.48,1.02-.69q0-.63-2.7-.81c0,1.11.03,2.61.06,4.5v.99l-5.85.51.36.81,5.55-.48c.03,1.08.09,2.04.18,2.91l-4.98.51.39.78,4.65-.45c.15,1.29.3,2.4.48,3.36l-6.78.72.36.75,6.57-.69a28.415,28.415,0,0,0,1.77,5.46A30.2,30.2,0,0,1,312.57.99l.39.69a32.092,32.092,0,0,0,10.35-5.1,15.305,15.305,0,0,0,2.37,3.03c1.41,1.41,2.7,2.1,3.9,2.1.75,0,1.2-.45,1.35-1.38C330.3.15,329.97-.66,329.97-2.13Zm-5.16-19.32c.12.69.42,1.02.9,1.02a.894.894,0,0,0,1.02-1.02c0-1.23-1.11-2.25-3.33-3.09l-.36.48A4.53,4.53,0,0,1,324.81-21.45Zm-9.78,6.06a.35.35,0,0,0,.21-.33c0-.3-.57-.93-1.74-1.92l-1.17,1.38h-3.09a42.375,42.375,0,0,0,.96-4.8l.06-.39h6.27l.36-.6a14.033,14.033,0,0,0-1.98-2.1l-1.53,1.95h-9.57l.24.75h4.23q-.855,8.82-4.83,14.31l.57.45a17.645,17.645,0,0,0,2.82-3.66l.15-.24a5.726,5.726,0,0,1,1.71,2.52.972.972,0,0,0,.93.78.825.825,0,0,0,.81-.45c-.09.18-.15.36-.24.54a24.094,24.094,0,0,1-6.6,8.76l.51.54a21.852,21.852,0,0,0,6.84-7.17,30.912,30.912,0,0,0,3.3-9.84ZM310.44-7.8a1.2,1.2,0,0,0,.09-.51c0-1.17-1.08-2.13-3.21-2.88a23.151,23.151,0,0,0,1.71-4.32h3.45A35,35,0,0,1,310.44-7.8Zm50.76-9.99a30.381,30.381,0,0,1-9.45-4.68,2.1,2.1,0,0,0-1.02-1.32,2.493,2.493,0,0,0-1.2-.45.521.521,0,0,0-.57.57,2.954,2.954,0,0,0,.42,1.32,10.884,10.884,0,0,1,.81,3.9c-3.66.33-6.72,1.11-9.27,1.11a7.572,7.572,0,0,1-2.79-.42,1.721,1.721,0,0,0-.72-.15c-.51,0-.84.3-.84.66,0,.51.51,1.14,1.77,1.59a3.816,3.816,0,0,0,1.38.21c2.25,0,5.49-1.17,10.56-1.5.03.96.03,1.92.03,2.82v.21a3.245,3.245,0,0,0-1.8-.54c-1.71,0-3.39,1.38-3.39,3.96a2.911,2.911,0,0,0,.03.51c.27,3.36,1.8,4.8,3.36,4.8a2.9,2.9,0,0,0,2.01-.87c-.06,2.85-.87,5.58-4.2,6.96-.36.15-.54.36-.54.54s.18.3.48.3a1.125,1.125,0,0,0,.3-.03c4.89-1.26,5.7-6.45,5.7-10.17a16.011,16.011,0,0,0-.06-1.74,5.5,5.5,0,0,0-.48-2.01c-.06-1.29-.09-2.4-.09-3.39,0-.51,0-.96.03-1.41h1.05a45.614,45.614,0,0,1,8.22.78,2.745,2.745,0,0,0,.48.03c.6,0,.9-.27.9-.57C362.31-17.16,361.95-17.58,361.2-17.79Zm-5.04-.6c-.03,0-.06-.03-.09-.03-.99-.09-1.98-.15-2.91-.15-.48,0-.99,0-1.44.03.06-1.17.12-2.07.12-2.79,1.68,1.05,3.51,2.07,4.32,2.55a.281.281,0,0,1,.18.24C356.34-18.45,356.28-18.39,356.16-18.39ZM348.27-6.93c-1.02,0-1.98-1.02-1.98-3.33,0-1.86.93-2.79,1.89-2.79.93,0,1.95.93,2.1,2.76,0,.15.03.3.03.45C350.28-8.01,349.26-6.93,348.27-6.93Z" transform="translate(-6.48 24.93)" fill="#5d5d5d"/>
</svg>
